<?xml version="1.0" encoding="UTF-8" standalone="no"?>
<!-- Created with Inkscape (http://www.inkscape.org/) -->

<svg
   xmlns:dc="http://purl.org/dc/elements/1.1/"
   xmlns:cc="http://creativecommons.org/ns#"
   xmlns:rdf="http://www.w3.org/1999/02/22-rdf-syntax-ns#"
   xmlns:svg="http://www.w3.org/2000/svg"
   xmlns="http://www.w3.org/2000/svg"
   xmlns:sodipodi="http://sodipodi.sourceforge.net/DTD/sodipodi-0.dtd"
   xmlns:inkscape="http://www.inkscape.org/namespaces/inkscape"
   width="10.735657mm"
   height="13.110197mm"
   viewBox="0 0 10.735657 13.110197"
   version="1.1"
   id="svg8"
   inkscape:version="0.92.1 r15371"
   sodipodi:docname="twitter-icon.svg">
  <defs
     id="defs2" />
  <sodipodi:namedview
     id="base"
     pagecolor="#ffffff"
     bordercolor="#666666"
     borderopacity="1.0"
     inkscape:pageopacity="0.0"
     inkscape:pageshadow="2"
     inkscape:zoom="5.6"
     inkscape:cx="145.36796"
     inkscape:cy="40.001668"
     inkscape:document-units="mm"
     inkscape:current-layer="layer1"
     showgrid="false"
     fit-margin-top="0"
     fit-margin-left="0"
     fit-margin-right="0"
     fit-margin-bottom="0"
     inkscape:window-width="1920"
     inkscape:window-height="1016"
     inkscape:window-x="-8"
     inkscape:window-y="-8"
     inkscape:window-maximized="1" />
  <metadata
     id="metadata5">
    <rdf:RDF>
      <cc:Work
         rdf:about="">
        <dc:format>image/svg+xml</dc:format>
        <dc:type
           rdf:resource="http://purl.org/dc/dcmitype/StillImage" />
        <dc:title></dc:title>
      </cc:Work>
    </rdf:RDF>
  </metadata>
  <g
     inkscape:label="Layer 1"
     inkscape:groupmode="layer"
     id="layer1"
     transform="translate(-72.038226,-56.792255)">
    <g
       id="g53"
       transform="translate(-14.079613,6.9453125)">
      <path
         style="fill:#9ed1f2;stroke-width:0.26458332"
         d="m 89.103165,62.718412 c -0.495981,-0.194094 -0.49417,-0.206983 0.04902,-0.349031 0.437226,-0.114337 0.528218,-0.284411 0.404756,-0.756531 -0.17424,-0.666296 -1.334456,-1.809036 -1.850217,-1.822348 -0.178164,-0.0046 -0.508643,-0.365549 -0.734398,-0.802112 -0.225756,-0.436562 -0.528026,-0.79375 -0.671713,-0.79375 -0.427774,0 -0.0366,-2.684422 0.473776,-3.251229 0.254386,-0.282516 0.730411,-0.616118 1.057833,-0.741336 0.426648,-0.163167 0.595312,-0.443326 0.595312,-0.988842 0,-1.317947 1.028271,-2.501004 2.640358,-3.037813 1.172164,-0.390319 1.547766,-0.419459 2.03634,-0.157982 0.816673,0.43707 1.888066,2.039907 2.110045,3.156693 0.100518,0.505707 0.508018,1.224288 0.905556,1.596846 0.603496,0.565574 0.724551,0.904019 0.733431,2.05052 0.0059,0.755229 -0.101608,1.373143 -0.238796,1.373143 -0.137189,0 -0.249434,0.176784 -0.249434,0.392853 0,0.216069 -0.582485,0.841147 -1.294412,1.389062 -1.462269,1.125397 -1.870533,2.109731 -1.007457,2.429003 0.530579,0.196274 0.529235,0.204505 -0.05847,0.358194 -0.330841,0.08652 -0.857842,0.05391 -1.171115,-0.07247 -0.509325,-0.20546 -0.516261,-0.231544 -0.06556,-0.24654 0.463165,-0.01541 0.470057,-0.05431 0.08501,-0.479792 -0.524384,-0.579448 -1.922223,-0.566142 -2.51228,0.02392 -0.409085,0.409085 -0.403574,0.440376 0.08061,0.457701 0.510044,0.01825 0.509868,0.02283 -0.0094,0.245987 -0.644117,0.276787 -0.666401,0.277227 -1.308748,0.02585 z"
         id="path67"
         inkscape:connector-curvature="0" />
      <path
         style="fill:#579cd2;stroke-width:0.26458332"
         d="m 89.517006,62.361828 c 0.09643,-1.122016 -0.04949,-1.390567 -1.245173,-2.291553 -1.401101,-1.055779 -1.960962,-2.00796 -1.960962,-3.335098 0,-1.237232 0.358186,-1.878113 1.33076,-2.381051 0.478758,-0.247575 0.785907,-0.615697 0.785907,-0.941919 0,-0.294531 0.176215,-0.876274 0.391589,-1.292761 0.586172,-1.133533 2.483857,-2.503946 2.10684,-1.521455 -0.07194,0.187468 0.213951,0.67114 0.635309,1.074826 0.676379,0.648013 0.870851,0.705529 1.660455,0.491092 0.491892,-0.133586 0.864583,-0.379133 0.828203,-0.545659 -0.03638,-0.166527 0.03381,-0.302776 0.155968,-0.302776 0.319831,0 0.83622,1.235396 0.83622,2.000554 0,0.396763 0.323519,0.941803 0.824975,1.389854 0.654124,0.584459 0.846429,0.994649 0.928568,1.980645 0.06072,0.728879 -0.007,1.24353 -0.163518,1.24353 -0.14691,0 -0.267109,0.184006 -0.267109,0.408902 0,0.431139 -0.674886,1.179992 -1.970301,2.186246 -0.610042,0.473869 -0.774044,0.804312 -0.753792,1.518787 0.01424,0.502231 -0.08139,0.913148 -0.212511,0.913148 -0.131118,0 -0.238396,-0.214312 -0.238396,-0.47625 0,-0.732519 -0.541044,-1.11125 -1.5875,-1.11125 -1.046456,0 -1.5875,0.378731 -1.5875,1.11125 0,0.261938 -0.123569,0.47625 -0.274597,0.47625 -0.151029,0 -0.251574,-0.26789 -0.223435,-0.595312 z m 4.015046,-11.603924 c -0.161143,-0.161142 -0.690971,-0.38708 -1.177396,-0.502083 l -0.884409,-0.209097 0.818888,-0.02708 c 0.509333,-0.01685 0.999918,0.172953 1.297778,0.502084 0.499976,0.552468 0.45501,0.746051 -0.05486,0.23618 z"
         id="path65"
         inkscape:connector-curvature="0" />
      <path
         style="fill:#d1a535;stroke-width:0.26458332"
         d="m 89.589244,62.316707 c 0.231641,-0.922932 0.01033,-1.304876 -1.302318,-2.247547 -2.182619,-1.567438 -2.525436,-3.650471 -0.846589,-5.144066 0.542961,-0.483048 0.987201,-1.079928 0.987201,-1.326401 0,-0.246472 0.173953,-0.86446 0.386562,-1.373305 0.3449,-0.82546 0.466092,-0.906411 1.124479,-0.751092 0.768533,0.181303 1.460309,0.634928 0.968263,0.634928 -0.149799,0 -0.262908,0.267891 -0.251354,0.595312 0.01413,0.400451 -0.123702,0.584426 -0.421089,0.562052 -0.272458,-0.0205 -0.388779,0.105686 -0.303144,0.328847 0.08561,0.223106 0.361281,0.306306 0.718132,0.216742 0.361905,-0.09083 0.83868,0.05876 1.270919,0.398758 0.813743,0.640091 1.513095,0.759285 1.028413,0.175279 -0.235723,-0.284029 -0.213295,-0.461661 0.09753,-0.772489 0.304203,-0.304202 0.322749,-0.436329 0.07528,-0.53631 -0.180602,-0.07297 0.177649,-0.142065 0.796112,-0.153553 0.988859,-0.01837 1.12448,0.04939 1.12448,0.561828 0,0.320494 0.342397,0.945573 0.760883,1.389063 0.723493,0.766721 1.347857,3.055304 0.833539,3.055304 -0.114019,0 -0.351667,0.348516 -0.528107,0.77448 -0.17644,0.425964 -0.777309,1.090841 -1.335264,1.477504 -1.155128,0.800504 -1.385533,1.225476 -1.157341,2.134666 0.09763,0.389004 0.04561,0.640433 -0.132527,0.640433 -0.161297,0 -0.293267,-0.214312 -0.293267,-0.47625 0,-0.732519 -0.541044,-1.11125 -1.5875,-1.11125 -1.046456,0 -1.5875,0.378731 -1.5875,1.11125 0,0.261938 -0.13197,0.47625 -0.293266,0.47625 -0.178132,0 -0.230161,-0.251429 -0.132527,-0.640433 z"
         id="path63"
         inkscape:connector-curvature="0" />
      <path
         style="fill:#296eae;stroke-width:0.26458332"
         d="m 89.631338,61.411149 c -0.08513,-0.268211 -0.685315,-0.868661 -1.33375,-1.334332 -2.193241,-1.575066 -2.539378,-3.655209 -0.857251,-5.151723 0.542961,-0.483048 0.987201,-1.079928 0.987201,-1.326401 0,-0.246472 0.173953,-0.86446 0.386562,-1.373305 0.3449,-0.82546 0.466092,-0.906411 1.124479,-0.751092 0.768533,0.181303 1.460309,0.634928 0.968263,0.634928 -0.149799,0 -0.262908,0.267891 -0.251354,0.595312 0.01415,0.401027 -0.123615,0.584401 -0.422133,0.561879 -0.397049,-0.02996 -0.405938,0.0526 -0.08546,0.79375 0.196724,0.454951 0.42301,1.037739 0.502856,1.295084 0.135156,0.435608 0.225895,0.426478 1.314724,-0.132291 0.808603,-0.414961 1.093564,-0.693611 0.923341,-0.90289 -0.15897,-0.195443 -0.103185,-0.445722 0.157436,-0.706343 0.304203,-0.304202 0.322749,-0.436329 0.07528,-0.53631 -0.180602,-0.07297 0.177649,-0.142065 0.796112,-0.153553 0.988859,-0.01837 1.12448,0.04939 1.12448,0.561828 0,0.320494 0.342397,0.945573 0.760883,1.389063 0.723493,0.766721 1.347857,3.055304 0.833539,3.055304 -0.114019,0 -0.351667,0.348516 -0.528107,0.77448 -0.17644,0.425964 -0.7825,1.094438 -1.3468,1.485498 -0.5643,0.39106 -1.097252,0.935513 -1.184337,1.209895 -0.172917,0.544812 -0.526865,0.650569 -0.784137,0.234294 -0.08994,-0.145521 -0.625718,-0.264584 -1.190625,-0.264584 -0.564907,0 -1.100688,0.119063 -1.190625,0.264584 -0.25548,0.413375 -0.610803,0.311829 -0.780575,-0.223075 z"
         id="path61"
         inkscape:connector-curvature="0" />
      <path
         style="fill:#0c58a3;stroke-width:0.26458332"
         d="m 89.750455,61.586865 c 0,-0.334949 -1.770075,-2.063122 -1.939555,-1.893642 -0.05594,0.05594 -0.2675,-0.102621 -0.470138,-0.352353 -0.316112,-0.389578 -0.315082,-0.421895 0.0073,-0.227573 0.285382,0.172041 0.333083,0.115447 0.198437,-0.235434 -0.09749,-0.254055 -0.177254,-0.714118 -0.177254,-1.022362 0,-0.435901 -0.07056,-0.489888 -0.3175,-0.242944 -0.451006,0.451006 -0.742192,0.393159 -0.732519,-0.145521 0.0046,-0.254661 0.302229,-0.676938 0.661458,-0.938393 0.605127,-0.440425 0.653144,-0.442273 0.653144,-0.02514 0,0.415017 0.04121,0.412937 0.5269,-0.0266 0.449741,-0.40701 0.503844,-0.693918 0.369459,-1.959237 l -0.15744,-1.482398 0.73639,1.048076 c 0.405014,0.576442 0.784461,0.903864 0.843214,0.727604 0.165501,-0.496502 0.591894,-0.377928 0.591894,0.164597 0,0.755583 0.266151,0.850626 1.130446,0.403681 0.729051,-0.377007 0.784584,-0.376086 0.636218,0.01055 -0.25238,0.65769 0.544218,0.518035 1.288071,-0.225818 0.357187,-0.357187 0.649432,-0.833437 0.649432,-1.058333 0,-0.224895 0.122009,-0.408901 0.271132,-0.408901 0.451666,0 0.769949,1.223694 0.597322,2.296512 -0.149303,0.927873 -0.125806,0.980432 0.286471,0.64079 0.390827,-0.321971 0.498456,-0.304802 0.829305,0.132292 0.474769,0.627232 0.474305,0.864968 -0.0033,1.692906 -0.377467,0.654338 -0.379974,0.65149 -0.232932,-0.264584 0.112473,-0.700708 0.07983,-0.82947 -0.134165,-0.529166 -0.155545,0.218281 -0.284631,0.713713 -0.28686,1.100959 -0.0039,0.669963 -1.274159,2.074041 -1.876435,2.074041 -0.134356,0 -0.244283,0.238125 -0.244283,0.529166 0,0.558029 -0.384938,0.712004 -0.661459,0.264584 -0.08994,-0.145521 -0.625718,-0.264584 -1.190625,-0.264584 -0.564907,0 -1.100688,0.119063 -1.190625,0.264584 -0.225142,0.364287 -0.661458,0.333047 -0.661458,-0.04736 z m 3.023075,-1.981259 c 0.233561,-0.608652 -0.06898,-0.823946 -1.299896,-0.925015 -0.860674,-0.07067 -1.072545,0.0048 -1.150513,0.409614 -0.119692,0.621512 0.376025,0.947237 1.449547,0.952467 0.534877,0.0026 0.891985,-0.15334 1.000862,-0.437066 z m 0.19867,-5.525983 c 0.119664,-0.574705 0.589233,-0.60987 0.696636,-0.05217 0.05577,0.289614 -0.074,0.463021 -0.346506,0.463021 -0.254192,0 -0.400041,-0.171142 -0.35013,-0.410851 z m -3.038163,-1.081261 c -0.246921,-0.246921 0.05147,-0.624555 0.493491,-0.624555 0.209693,0 0.38126,0.178594 0.38126,0.396875 0,0.398524 -0.558533,0.543898 -0.874751,0.22768 z"
         id="path59"
         inkscape:connector-curvature="0" />
      <path
         style="fill:#0a4c91;stroke-width:0.26458332"
         d="m 89.750455,61.586865 c 0,-0.410954 -1.787919,-2.042154 -2.010082,-1.83389 -0.09473,0.0888 -0.117721,-0.525321 -0.0511,-1.364717 0.08497,-1.070558 0.264991,-1.631363 0.603004,-1.878524 0.358865,-0.262408 0.441038,-0.556494 0.321918,-1.152096 l -0.159949,-0.799746 0.842417,0.826187 0.842418,0.826187 0.167729,-0.926042 c 0.09225,-0.509323 0.183403,-0.677995 0.20256,-0.374827 0.0526,0.832457 0.286863,0.923366 1.192854,0.462903 l 0.826351,-0.419986 -0.597733,0.648604 c -0.664214,0.720745 -0.553457,1.006223 0.390386,1.006223 0.899852,0 2.125103,-0.696205 2.323093,-1.320015 0.09288,-0.292638 0.276964,-0.532069 0.409077,-0.532069 0.139673,0 0.132938,0.282132 -0.01609,0.674114 -0.185834,0.488781 -0.146539,0.936804 0.142931,1.629602 0.581776,1.392387 0.276247,2.622051 -0.829357,3.337915 -0.489342,0.316843 -0.891186,0.784437 -0.892987,1.039098 -0.0036,0.503687 -0.402482,0.622772 -0.664735,0.198438 -0.08994,-0.145521 -0.625718,-0.264584 -1.190625,-0.264584 -0.564907,0 -1.100688,0.119063 -1.190625,0.264584 -0.225142,0.364287 -0.661458,0.333047 -0.661458,-0.04736 z m 2.897643,-1.533305 c 0.481172,-0.257515 1.600274,-1.935289 1.600274,-2.399153 0,-0.141596 -0.66209,-0.176201 -1.565201,-0.08181 -1.325084,0.138498 -1.708282,0.07517 -2.497868,-0.412824 -0.923195,-0.570566 -0.935514,-0.571102 -1.212925,-0.05275 -0.427783,0.79932 -0.361697,0.983156 0.767599,2.135264 1.074506,1.09621 1.929856,1.334826 2.908121,0.811275 z M 92.9722,54.079623 c 0.119664,-0.574705 0.589233,-0.60987 0.696636,-0.05217 0.05577,0.289614 -0.074,0.463021 -0.346506,0.463021 -0.254192,0 -0.400041,-0.171142 -0.35013,-0.410851 z m -3.038163,-1.081261 c -0.246921,-0.246921 0.05147,-0.624555 0.493491,-0.624555 0.209693,0 0.38126,0.178594 0.38126,0.396875 0,0.398524 -0.558533,0.543898 -0.874751,0.22768 z"
         id="path57"
         inkscape:connector-curvature="0" />
      <path
         style="fill:#0f396a;stroke-width:0.26458332"
         d="m 89.750455,61.266517 c 0,-0.129478 -0.208172,-0.387634 -0.462605,-0.57368 -0.732668,-0.535739 -0.23891,-0.69713 1.10076,-0.359797 0.67743,0.170579 1.71279,0.245614 2.300801,0.166745 0.87614,-0.117515 1.041683,-0.07193 0.91716,0.252577 -0.08357,0.217786 -0.151949,0.475533 -0.151949,0.572772 0,0.09724 -0.833438,0.176798 -1.852084,0.176798 -1.018646,0 -1.852083,-0.105937 -1.852083,-0.235415 z m -1.947764,-2.145835 c -0.08376,-0.218281 -0.03697,-0.396875 0.103984,-0.396875 0.140954,0 0.25628,0.178594 0.25628,0.396875 0,0.218281 -0.04679,0.396875 -0.103984,0.396875 -0.05719,0 -0.172518,-0.178594 -0.25628,-0.396875 z M 87.91926,57.73162 c -0.01472,-0.605793 0.09914,-0.859896 0.385295,-0.859896 0.301173,0 0.344618,0.119705 0.168045,0.463021 -0.130977,0.254661 -0.30436,0.641614 -0.385296,0.859895 -0.08094,0.218282 -0.156556,0.0099 -0.168044,-0.46302 z m 6.951508,-0.0028 c -0.190698,-0.729231 -0.873873,-0.949584 -1.824039,-0.588332 -0.837826,0.318541 -2.070297,0.134041 -2.98692,-0.44714 -0.339179,-0.215055 -0.785663,-0.326167 -0.992188,-0.246916 -0.265906,0.102038 -0.3755,-0.06 -0.3755,-0.555182 v -0.699275 l 0.595313,0.542224 c 1.41398,1.287885 3.324145,1.536399 4.528381,0.589147 l 0.69714,-0.54837 v 0.563985 c 0,0.310191 0.106362,0.498249 0.236359,0.417907 0.266054,-0.16443 0.66965,1.149117 0.427482,1.391285 -0.08561,0.08561 -0.223327,-0.103086 -0.306028,-0.419333 z m -4.273647,-1.968354 c -0.174625,-0.174625 -0.3081,-0.561578 -0.296611,-0.859896 0.02024,-0.525511 0.06168,-0.46303 0.392196,0.591336 0.08379,0.267287 0.291453,0.250346 0.971225,-0.07923 l 0.864649,-0.419215 -0.624624,0.542254 c -0.725017,0.629407 -0.876183,0.655405 -1.306835,0.224754 z M 92.9722,54.079623 c 0.119664,-0.574705 0.589233,-0.60987 0.696636,-0.05217 0.05577,0.289614 -0.074,0.463021 -0.346506,0.463021 -0.254192,0 -0.400041,-0.171142 -0.35013,-0.410851 z m -3.038163,-1.081261 c -0.246921,-0.246921 0.05147,-0.624555 0.493491,-0.624555 0.209693,0 0.38126,0.178594 0.38126,0.396875 0,0.398524 -0.558533,0.543898 -0.874751,0.22768 z"
         id="path55"
         inkscape:connector-curvature="0" />
    </g>
  </g>
</svg>
