<?xml version="1.0" encoding="UTF-8" standalone="no"?>
<!-- Created with Inkscape (http://www.inkscape.org/) -->

<svg
   xmlns:dc="http://purl.org/dc/elements/1.1/"
   xmlns:cc="http://creativecommons.org/ns#"
   xmlns:rdf="http://www.w3.org/1999/02/22-rdf-syntax-ns#"
   xmlns:svg="http://www.w3.org/2000/svg"
   xmlns="http://www.w3.org/2000/svg"
   xmlns:sodipodi="http://sodipodi.sourceforge.net/DTD/sodipodi-0.dtd"
   xmlns:inkscape="http://www.inkscape.org/namespaces/inkscape"
   width="17.293673mm"
   height="9.940526mm"
   viewBox="0 0 17.293673 9.940526"
   version="1.1"
   id="svg8"
   inkscape:version="0.92.1 r15371"
   sodipodi:docname="logo.svg">
  <defs
     id="defs2" />
  <sodipodi:namedview
     id="base"
     pagecolor="#ffffff"
     bordercolor="#666666"
     borderopacity="1.0"
     inkscape:pageopacity="0.0"
     inkscape:pageshadow="2"
     inkscape:zoom="0.49497475"
     inkscape:cx="3.3387344"
     inkscape:cy="176.02777"
     inkscape:document-units="mm"
     inkscape:current-layer="layer1"
     showgrid="false"
     inkscape:snap-global="true"
     fit-margin-top="0"
     fit-margin-left="0"
     fit-margin-right="0"
     fit-margin-bottom="0"
     inkscape:window-width="1920"
     inkscape:window-height="1016"
     inkscape:window-x="-8"
     inkscape:window-y="-8"
     inkscape:window-maximized="1" />
  <metadata
     id="metadata5">
    <rdf:RDF>
      <cc:Work
         rdf:about="">
        <dc:format>image/svg+xml</dc:format>
        <dc:type
           rdf:resource="http://purl.org/dc/dcmitype/StillImage" />
        <dc:title></dc:title>
      </cc:Work>
    </rdf:RDF>
  </metadata>
  <g
     inkscape:label="Layer 1"
     inkscape:groupmode="layer"
     id="layer1"
     transform="translate(-109.89162,-36.964463)">
    <g
       id="g77"
       transform="translate(25.52424,-7.8844511)">
      <path
         style="fill:#adcfe3;stroke-width:0.26458332"
         d="m 92.08597,53.763545 c -0.575778,-0.975871 -0.584755,-1.068877 -0.18425,-1.908745 0.379506,-0.795834 0.381115,-0.960055 0.01632,-1.665496 -0.222586,-0.430434 -0.491146,-0.782608 -0.596799,-0.782608 -0.105654,0 -0.476329,0.535781 -0.823723,1.190625 l -0.631625,1.190625 h -2.749258 -2.749258 l 0.603212,-1.056296 c 0.590946,-1.034813 0.633484,-1.056336 2.091681,-1.058333 l 1.488468,-0.002 1.389943,-2.408355 1.389944,-2.408355 1.090339,1.875171 c 0.599686,1.031344 1.155188,1.876979 1.234448,1.879189 0.07926,0.0022 0.628146,-0.842899 1.219747,-1.878018 l 1.075637,-1.882035 1.399078,2.444847 1.399078,2.444847 0.609305,-1.025833 c 0.335118,-0.564208 0.708983,-1.191039 0.830823,-1.392958 0.1633,-0.270636 0.38585,-0.05737 0.84675,0.811426 l 0.62522,1.178552 -1.13963,1.966699 c -1.91314,3.301585 -1.605259,3.252223 -3.175057,0.509048 L 95.96308,49.368297 95.46291,50.19076 c -0.459808,0.756094 -0.467501,0.885637 -0.09533,1.605339 0.37507,0.725305 0.363725,0.863469 -0.154268,1.87882 l -0.559109,1.095943 -0.455792,-0.694814 -0.455791,-0.694815 -0.525689,0.704103 -0.525689,0.704104 z"
         id="path91"
         inkscape:connector-curvature="0" />
      <path
         style="fill:#85bcdc;stroke-width:0.26458332"
         d="m 92.071556,53.670344 c -0.533895,-1.046521 -0.546239,-1.179079 -0.164101,-1.762294 0.532026,-0.811975 0.51858,-1.14564 -0.08293,-2.057946 l -0.492661,-0.747217 -0.826066,1.34253 -0.826067,1.342529 h -2.515987 c -1.383793,0 -2.515987,-0.07093 -2.515987,-0.157614 0,-0.08669 0.204264,-0.503407 0.453921,-0.926042 0.413926,-0.700721 0.582941,-0.768504 1.918229,-0.769291 l 1.464308,-8.64e-4 1.289522,-2.252721 c 0.709237,-1.238996 1.375543,-2.305885 1.480681,-2.370864 0.105138,-0.06498 0.655947,0.698977 1.22402,1.697679 0.568073,0.998703 1.112503,1.767264 1.209843,1.707914 0.09734,-0.05935 0.609184,-0.880754 1.137429,-1.825344 0.528244,-0.94459 1.043914,-1.71664 1.145933,-1.715666 0.102019,9.73e-4 0.624587,0.804645 1.161262,1.785937 1.64506,3.007932 1.595903,2.976686 2.433752,1.547005 0.39673,-0.676968 0.803913,-1.178297 0.904863,-1.114065 0.10094,0.06423 0.40016,0.5239 0.66492,1.021482 l 0.48139,0.904696 -1.42171,2.419697 -1.421703,2.419698 -1.405904,-2.410347 -1.405905,-2.410348 -0.547636,0.864933 c -0.507259,0.80116 -0.517499,0.917445 -0.138876,1.577157 0.376296,0.655659 0.367339,0.792964 -0.112784,1.728821 l -0.521545,1.016595 -0.518638,-0.64162 c -0.298915,-0.369795 -0.570444,-0.517401 -0.640922,-0.348411 -0.06726,0.161265 -0.282269,0.512002 -0.477807,0.779416 -0.329125,0.450105 -0.398392,0.402179 -0.932844,-0.645435 z"
         id="path89"
         inkscape:connector-curvature="0" />
      <path
         style="fill:#969da7;stroke-width:0.26458332"
         d="m 92.071791,53.670804 -0.55634,-1.090517 0.958396,-1.785233 c 0.527118,-0.981878 1.106536,-1.963827 1.287594,-2.182108 0.181059,-0.218281 0.7136,-1.081484 1.183425,-1.918229 0.469825,-0.836745 0.934786,-1.520558 1.033247,-1.519584 0.09846,9.73e-4 0.618118,0.804645 1.154793,1.785937 1.64506,3.007932 1.595903,2.976686 2.433752,1.547005 0.39673,-0.676968 0.803912,-1.178297 0.904862,-1.114065 0.10094,0.06423 0.40016,0.5239 0.66492,1.021482 l 0.48139,0.904696 -1.42171,2.419697 -1.421702,2.419698 -1.403208,-2.405725 -1.403208,-2.405726 -0.499004,0.756886 c -0.274452,0.416288 -0.499788,0.855772 -0.500747,0.976631 -0.0016,0.202662 -1.691829,2.923557 -2.142989,3.449756 -0.108422,0.126454 -0.447484,-0.260816 -0.753471,-0.860601 z"
         id="path87"
         inkscape:connector-curvature="0" />
      <path
         style="fill:#709ebb;stroke-width:0.26458332"
         d="m 92.124526,53.705228 -0.558172,-0.993133 0.908164,-1.836658 c 0.49949,-1.010161 1.002351,-1.902704 1.117468,-1.983428 0.115116,-0.08072 0.549506,-0.742084 0.965309,-1.469688 1.47209,-2.575975 1.276892,-2.564927 2.679106,-0.151642 0.689048,1.185889 1.346467,2.214041 1.46093,2.284783 0.114463,0.07074 0.523793,-0.41004 0.90962,-1.068405 0.385828,-0.658365 0.747299,-1.197028 0.803279,-1.197028 0.056,0 0.33272,0.452696 0.61499,1.00599 l 0.51322,1.00599 -1.24004,2.151551 c -0.682014,1.183352 -1.317973,2.229494 -1.413237,2.324758 -0.09526,0.09527 -0.728172,-0.788936 -1.406462,-1.96489 -0.678289,-1.175954 -1.339593,-2.203819 -1.469564,-2.284146 -0.12997,-0.08033 -0.519519,0.441016 -0.865663,1.158538 -0.524466,1.087168 -2.289745,4.010543 -2.421764,4.010543 -0.02146,0 -0.290189,-0.446911 -0.597184,-0.993135 z"
         id="path85"
         inkscape:connector-curvature="0" />
      <path
         style="fill:#67798b;stroke-width:0.26458332"
         d="m 92.130659,53.720912 -0.55861,-0.97745 0.912775,-1.734529 c 0.502025,-0.953991 1.170127,-2.151247 1.48467,-2.66057 0.314543,-0.509323 0.893298,-1.450619 1.286123,-2.091769 l 0.714226,-1.165727 1.259686,2.167986 c 0.692828,1.192393 1.353339,2.225867 1.467802,2.296609 0.114463,0.07074 0.523793,-0.41004 0.90962,-1.068405 0.385828,-0.658365 0.747299,-1.197028 0.803279,-1.197028 0.056,0 0.33272,0.452696 0.61499,1.00599 l 0.51322,1.00599 -1.24004,2.151551 c -0.682014,1.183352 -1.317973,2.229494 -1.413237,2.324758 -0.09526,0.09527 -0.728172,-0.788936 -1.406462,-1.96489 -0.678289,-1.175954 -1.337856,-2.202746 -1.465704,-2.28176 -0.127847,-0.07901 -0.48963,0.366559 -0.803962,0.990162 -0.53447,1.060338 -2.382675,4.176533 -2.477087,4.176533 -0.02347,0 -0.294054,-0.439853 -0.601289,-0.977451 z"
         id="path83"
         inkscape:connector-curvature="0" />
      <path
         style="fill:#4f5b6d;stroke-width:0.26458332"
         d="m 92.14813,53.688518 c -0.527944,-0.917323 -0.539083,-1.040167 -0.160833,-1.773805 0.4032,-0.78203 3.761347,-6.526781 3.915764,-6.698661 0.04427,-0.04928 0.635463,0.872541 1.313753,2.048495 0.678289,1.175954 1.335714,2.201422 1.460943,2.278818 0.125229,0.0774 0.550971,-0.410919 0.946093,-1.085144 l 0.7184,-1.225864 0.60532,1.002965 c 0.33292,0.55163 0.56808,1.070621 0.52257,1.153315 -0.0455,0.08269 -0.65413,1.148627 -1.35249,2.368743 -1.451234,2.535463 -1.271661,2.569334 -2.984744,-0.562976 -0.536675,-0.981293 -1.047812,-1.784965 -1.135858,-1.785938 -0.08805,-9.79e-4 -0.783981,1.099558 -1.546521,2.445626 -0.76254,1.346068 -1.464902,2.531233 -1.560804,2.6337 -0.0959,0.102468 -0.429619,-0.257206 -0.741593,-0.799274 z"
         id="path81"
         inkscape:connector-curvature="0" />
      <path
         style="fill:#2d3a4f;stroke-width:0.26458332"
         d="m 92.186857,53.636646 -0.472673,-1.048201 0.815277,-1.524729 c 0.448402,-0.838601 1.405155,-2.504127 2.126118,-3.70117 l 1.310842,-2.176443 1.399547,2.424996 c 1.034909,1.793185 1.459519,2.32577 1.629726,2.044151 0.126598,-0.209465 0.492328,-0.822525 0.812734,-1.362356 l 0.582552,-0.98151 0.5644,0.98151 0.56439,0.98151 -1.17392,1.984375 c -0.645663,1.091407 -1.266716,2.142206 -1.380121,2.33511 -0.139841,0.237874 -0.657111,-0.430575 -1.607505,-2.077323 -1.522143,-2.637417 -1.412243,-2.617161 -2.533641,-0.466975 -0.357415,0.685312 -0.990766,1.783599 -1.407449,2.440639 l -0.757604,1.194618 z"
         id="path79"
         inkscape:connector-curvature="0" />
    </g>
  </g>
</svg>
