<svg width="72" height="72" viewBox="0 0 72 72" version="1.1" xmlns="http://www.w3.org/2000/svg" xmlns:xlink="http://www.w3.org/1999/xlink">
<title>howToWork-2</title>
<desc>Created using Figma</desc>
<g id="Canvas" transform="translate(-15255 -13319)">
<g id="howToWork-2">
<g id="Group 30.2">
<g id="BlockIcon-2">
<g id="Group 2">
<g id="Group 5.1">
<g id="Rectangle 4">
<use xlink:href="#path0_fill" transform="translate(15255 13319)" fill="#FFD205"/>
</g>
</g>
</g>
</g>
</g>
<g id="Group 33">
<g id="invisible-person-of-clothes">
<g id="Group">
<g id="Vector">
<use xlink:href="#path1_fill" transform="translate(15280.8 13336)" fill="#FFFFFF"/>
</g>
<g id="Vector">
<use xlink:href="#path2_fill" transform="translate(15274.6 13347)" fill="#FFFFFF"/>
</g>
<g id="Vector">
<use xlink:href="#path3_fill" transform="translate(15272 13358.8)" fill="#FFFFFF"/>
</g>
</g>
</g>
</g>
</g>
</g>
<defs>
<path id="path0_fill" d="M 0 0L 72 0L 72 72L 0 72L 0 0Z"/>
<path id="path1_fill" d="M 13.9369 0.481318L 10.8964 3.33666C 10.2041 3.98141 9.15059 3.98141 8.45827 3.33666L 5.38801 0.51202C 4.45489 -0.347652 2.97996 -0.00992389 2.49835 1.15677L 1.65348e-07 7.2973L 19.3246 7.2973L 16.8262 1.12607C 16.3449 -0.0403195 14.8697 -0.378048 13.9369 0.481318Z"/>
<path id="path2_fill" d="M 0.508127 1.93426C -0.364791 2.3641 -0.0336845 3.68431 0.899435 3.68431L 15.8895 3.68431L 30.8499 3.68431C 31.8128 3.68431 32.1138 2.3641 31.271 1.93426L 27.5987 4.77854e-07L 4.1804 4.77854e-07L 0.508127 1.93426Z"/>
<path id="path3_fill" d="M 0.0378282 4.93236L 1.63316 13.775C 1.78366 14.6651 2.53618 15.2487 3.4091 15.2487L 18.4895 15.2487L 33.6003 15.2487C 34.4729 15.2487 35.2255 14.6347 35.376 13.775L 36.9713 4.93236C 37.1218 4.07269 36.6703 3.21301 35.8579 2.87559C 32.0047 1.34046 27.9715 0.511492 24.7805 0.0199438C 23.9681 -0.10256 23.1852 0.357979 22.8842 1.09453L 19.844 8.12543C 19.3022 9.35353 17.5865 9.35353 17.0745 8.09473L 14.1246 1.12524C 13.7935 0.357672 13.0109 -0.102866 12.1982 0.019637C 9.00751 0.480176 4.97403 1.34016 1.15125 2.87529C 0.338835 3.18262 -0.142776 4.04229 0.0378282 4.93236Z"/>
</defs>
</svg>
