<svg width="72" height="72" viewBox="0 0 72 72" version="1.1" xmlns="http://www.w3.org/2000/svg" xmlns:xlink="http://www.w3.org/1999/xlink">
<title>howToWork-4</title>
<desc>Created using Figma</desc>
<g id="Canvas" transform="translate(-14811 -13431)">
<g id="howToWork-4">
<g id="BlockIcon-2">
<g id="Group 2">
<g id="Group 5.1">
<g id="Rectangle 4">
<use xlink:href="#path0_fill" transform="translate(14811 13431)" fill="#FFD205"/>
</g>
</g>
</g>
</g>
<g id="money-graph-with-up-arrow (1)">
<g id="Group">
<g id="Vector">
<use xlink:href="#path1_fill" transform="translate(14825 13450)" fill="#FFFFFF"/>
</g>
</g>
</g>
</g>
</g>
<defs>
<path id="path0_fill" d="M 0 0L 72 0L 72 72L 0 72L 0 0Z"/>
<path id="path1_fill" d="M 20.0953 14.9777L 14.7162 9.45219L 1.77887 22.4548L 0 20.7252L 14.7349 5.91533L 20.1664 11.4939L 29.5098 2.64617L 26.8328 -6.58837e-08L 33.8223 -6.58837e-08L 33.8223 6.90964L 31.2737 4.39054L 20.0953 14.9777ZM 6.18988 33L 14.6102 33L 14.6102 21.2804L 6.18988 21.2804L 6.18988 33ZM 17.8848 33L 26.3051 33L 26.3051 17.5794L 17.8848 17.5794L 17.8848 33ZM 29.5797 9.86916L 29.5797 33L 38 33L 38 9.86916L 29.5797 9.86916Z"/>
</defs>
</svg>
