<svg width="72" height="72" viewBox="0 0 72 72" version="1.1" xmlns="http://www.w3.org/2000/svg" xmlns:xlink="http://www.w3.org/1999/xlink">
<title>howToWork-1</title>
<desc>Created using Figma</desc>
<g id="Canvas" transform="translate(-14812 -13319)">
<g id="howToWork-1">
<g id="Group 30.5">
<g id="BlockIcon-2">
<g id="Group 2">
<g id="Group 5.1">
<g id="Rectangle 4">
<use xlink:href="#path0_fill" transform="translate(14812 13319)" fill="#FFD205"/>
</g>
<g id="like (3)">
<g id="Group">
<g id="Group">
<g id="Vector">
<use xlink:href="#path1_fill" transform="translate(14838.8 13336)" fill="#FFFFFF"/>
</g>
<g id="Vector">
<use xlink:href="#path2_fill" transform="translate(14831 13355.6)" fill="#FFFFFF"/>
</g>
</g>
</g>
</g>
</g>
</g>
</g>
</g>
</g>
</g>
<defs>
<path id="path0_fill" d="M 0 0L 72 0L 72 72L 0 72L 0 0Z"/>
<path id="path1_fill" d="M 10.9991 0C 9.40256 0 9.93945 3.35456 9.93945 3.35456C 9.93945 3.35456 6.5274 12.6056 3.2637 15.0712C 2.56433 15.7935 2.12635 16.5922 1.85084 17.2451C 1.78726 17.4048 1.73075 17.5576 1.6813 17.6965C 1.46231 18.1341 0.996064 18.8078 -1.7678e-07 19.3981L 3.2637 33.3511C 3.2637 33.3511 8.31466 33.997 13.3798 33.8929C 15.4072 34.0526 17.5547 34.0665 19.2643 33.7053C 25.0711 32.4899 23.6159 28.5103 23.6159 28.5103C 26.7454 26.1975 24.9652 23.3083 24.9652 23.3083C 27.7485 20.4538 25.0146 18.0577 25.0146 18.0577C 25.0146 18.0577 26.5193 15.7518 24.5766 14.0086C 22.1536 11.8278 15.5767 13.2793 15.5767 13.2793C 15.1176 13.3557 14.6301 13.453 14.1074 13.578C 14.1074 13.578 11.8327 14.6198 14.1074 7.83425C 16.3891 1.04873 12.5956 0 10.9991 0Z"/>
<path id="path2_fill" d="M 8.7032 12.7515L 6.2307 1.20153C 6.08941 0.54173 5.41124 4.23905e-07 4.72601 4.23905e-07L 0.00706428 4.23905e-07L 5.12014e-09 13.9461L 7.70713 13.9461C 8.39943 13.953 8.84448 13.4113 8.7032 12.7515Z"/>
</defs>
</svg>
