<svg width="72" height="72" viewBox="0 0 72 72" version="1.1" xmlns="http://www.w3.org/2000/svg" xmlns:xlink="http://www.w3.org/1999/xlink">
<title>howToWork-5</title>
<desc>Created using Figma</desc>
<g id="Canvas" transform="translate(-15255 -13431)">
<g id="howToWork-5">
<g id="BlockIcon-2">
<g id="Group 2">
<g id="Group 5.1">
<g id="Rectangle 4">
<use xlink:href="#path0_fill" transform="translate(15255 13431)" fill="#FFD205"/>
</g>
<g id="group (1)">
<g id="Group">
<g id="Group">
<g id="Vector">
<use xlink:href="#path1_fill" transform="translate(15271 13454.1)" fill="#FFFFFF"/>
</g>
</g>
</g>
<g id="Group">
<g id="Group">
<g id="Vector">
<use xlink:href="#path2_fill" transform="translate(15292 13449)" fill="#FFFFFF"/>
</g>
</g>
</g>
</g>
</g>
</g>
</g>
</g>
</g>
<defs>
<path id="path0_fill" d="M 0 0L 72 0L 72 72L 0 72L 0 0Z"/>
<path id="path1_fill" d="M 23.56 21.4637L 18.07 20.2346L 18.07 18.5657C 18.3575 18.1389 18.625 17.5937 18.9025 17.028C 19.11 16.6063 19.4225 15.9686 19.5525 15.8169C 20.445 14.9194 21.395 13.8034 21.69 12.33C 21.985 10.8617 21.6125 10.1083 21.3975 9.81257C 21.3975 8.77886 21.3975 6.894 21.0475 5.51057C 21.0075 3.84171 20.69 2.84914 19.9275 1.99543C 19.355 1.35771 18.5475 1.21886 17.9 1.10571C 17.69 1.06971 17.375 1.01571 17.28 0.966857C 16.1875 0.342 15.0775 0.036 13.7025 0C 10.9275 0.108 7.5175 1.926 6.375 5.18657C 6.05 6.11229 6.05 7.49571 6.08 9.07971L 6.0775 9.70714C 5.8775 10.1109 5.505 10.8643 5.8 12.33C 6.095 13.806 7.045 14.922 7.93 15.8117C 8.0675 15.9711 8.385 16.6114 8.595 17.0357C 8.875 17.5989 9.1425 18.1414 9.43 18.5657L 9.43 20.2346L 3.94 21.4637C 1.6575 21.9703 0 24.084 0 26.4883L 0 29.5714C 0 30.2811 0.56 30.8571 1.25 30.8571L 26.25 30.8571C 26.94 30.8571 27.5 30.2811 27.5 29.5714L 27.5 26.4883C 27.5 24.084 25.8425 21.9703 23.56 21.4637Z"/>
<path id="path2_fill" d="M 15.3895 20.5441L 10.3542 19.3696L 10.3542 17.7238C 14.3082 17.3106 15.159 16.4527 15.159 15.3048C 15.159 12.5884 13.4621 6.35342 13.1554 5.25383C 13.1162 3.63467 12.8257 2.71392 12.1041 1.8995C 11.5715 1.29292 10.8176 1.16 10.2113 1.05125C 10.013 1.015 9.71326 0.961833 9.61643 0.911083C 8.5651 0.314167 7.52299 0.0241667 6.27108 0C 4.11079 0.0918333 1.44097 1.28808 -4.04568e-07 3.72892C 0.693969 3.93433 1.49861 4.292 2.18335 5.07017C 3.23929 6.27608 3.73498 7.66567 3.81798 9.68358C 4.09004 10.9572 4.14076 12.4168 4.14998 13.4536C 4.46123 14.2221 4.67795 15.3628 4.37362 16.9118C 3.99782 18.8234 2.9096 20.2154 1.94127 21.2328C 1.83521 21.4334 1.7038 21.7138 1.60466 21.9216C 1.59083 21.953 1.57469 21.9796 1.56085 22.011L 4.32751 22.6418C 7.25555 23.3063 9.41585 25.9212 9.71787 29L 17.8472 29C 18.4836 29 19 28.4587 19 27.7917L 19 25.2614C 19 22.9801 17.5152 21.0395 15.3895 20.5441Z"/>
</defs>
</svg>
