<svg width="72" height="72" viewBox="0 0 72 72" version="1.1" xmlns="http://www.w3.org/2000/svg" xmlns:xlink="http://www.w3.org/1999/xlink">
<title>howToWork-6</title>
<desc>Created using Figma</desc>
<g id="Canvas" transform="translate(-15680 -13431)">
<g id="howToWork-6">
<g id="BlockIcon-2">
<g id="Group 2">
<g id="Group 5.1">
<g id="Group 31">
<g id="BlockIcon-3">
<g id="BlockIcon-3">
<g id="Group 5.2">
<g id="Rectangle 4">
<use xlink:href="#path0_fill" transform="translate(15680 13431)" fill="#FFD205"/>
</g>
</g>
</g>
<g id="graphIcon-6">
<g id="Group">
<g id="Group">
<g id="Vector">
<use xlink:href="#path1_fill" transform="translate(15701 13450.5)" fill="#FFFFFF"/>
</g>
</g>
</g>
</g>
</g>
</g>
</g>
</g>
</g>
</g>
</g>
<defs>
<path id="path0_fill" d="M 0 0L 72 0L 72 72L 0 72L 0 0Z"/>
<path id="path1_fill" d="M 0.750207 27.7495L 6.0003 27.7495L 6.0003 32.2501C 6.0003 32.4691 6.07036 32.6483 6.21132 32.7885C 6.35189 32.9295 6.5316 33 6.75051 33L 10.6644 33C 10.8675 33 11.0433 32.9295 11.1917 32.7885C 11.3402 32.6483 11.4142 32.469 11.4142 32.2501L 11.4142 27.7495L 23.2501 27.7495C 23.4685 27.7495 23.6483 27.6799 23.7892 27.5389C 23.9302 27.398 24.0002 27.2186 24.0002 26.9996L 24.0002 23.9995C 24.0002 23.7818 23.9302 23.6013 23.7892 23.4612C 23.6487 23.3201 23.4685 23.2496 23.2501 23.2496L 11.4138 23.2496L 11.4138 20.4839L 19.3825 20.4839C 22.5074 20.4839 25.0578 19.5317 27.0349 17.6247C 29.0112 15.7196 29.9999 13.2588 29.9999 10.2419C 29.9999 7.22714 29.0112 4.76621 27.0349 2.85922C 25.0582 0.954109 22.5073 0 19.3825 0L 6.75012 0C 6.53114 0 6.35182 0.0704472 6.21093 0.21063C 6.07036 0.351589 5.99991 0.532073 5.99991 0.749819L 5.99991 15.4924L 0.750207 15.4924C 0.531297 15.4924 0.351912 15.5664 0.211018 15.7148C 0.0705119 15.8633 -5.33027e-08 16.0391 -5.33027e-08 16.2421L -5.33027e-08 19.7339C -5.33027e-08 19.9529 0.0700591 20.1323 0.211018 20.2732C 0.351977 20.4142 0.530909 20.4838 0.750207 20.4838L 6.0003 20.4838L 6.0003 23.2496L 0.750207 23.2496C 0.531297 23.2496 0.351912 23.3201 0.211018 23.4611C 0.0705119 23.6012 -5.33027e-08 23.7814 -5.33027e-08 23.9995L -5.33027e-08 26.9996C -5.33027e-08 27.2185 0.0700591 27.3979 0.211018 27.5388C 0.351912 27.6799 0.531232 27.7495 0.750207 27.7495ZM 11.4138 4.99269L 18.9138 4.99269C 20.5699 4.99269 21.9056 5.47689 22.9215 6.44562C 23.937 7.41442 24.4449 8.68046 24.4449 10.2423C 24.4449 11.805 23.937 13.0714 22.9215 14.039C 21.9056 15.0086 20.5698 15.4928 18.9138 15.4928L 11.4138 15.4928L 11.4138 4.99269Z"/>
</defs>
</svg>
