<?xml version="1.0" encoding="UTF-8" standalone="no"?>
<!-- Created with Inkscape (http://www.inkscape.org/) -->

<svg
   xmlns:dc="http://purl.org/dc/elements/1.1/"
   xmlns:cc="http://creativecommons.org/ns#"
   xmlns:rdf="http://www.w3.org/1999/02/22-rdf-syntax-ns#"
   xmlns:svg="http://www.w3.org/2000/svg"
   xmlns="http://www.w3.org/2000/svg"
   xmlns:sodipodi="http://sodipodi.sourceforge.net/DTD/sodipodi-0.dtd"
   xmlns:inkscape="http://www.inkscape.org/namespaces/inkscape"
   width="21.43125mm"
   height="21.43125mm"
   viewBox="0 0 21.43125 21.43125"
   version="1.1"
   id="svg8"
   inkscape:version="0.92.1 r15371"
   sodipodi:docname="section1-1.svg">
  <defs
     id="defs2" />
  <sodipodi:namedview
     id="base"
     pagecolor="#ffffff"
     bordercolor="#666666"
     borderopacity="1.0"
     inkscape:pageopacity="0.0"
     inkscape:pageshadow="2"
     inkscape:zoom="0.49497475"
     inkscape:cx="1298.3959"
     inkscape:cy="-494.79587"
     inkscape:document-units="mm"
     inkscape:current-layer="layer1"
     showgrid="false"
     fit-margin-top="0"
     fit-margin-left="0"
     fit-margin-right="0"
     fit-margin-bottom="0"
     inkscape:window-width="1920"
     inkscape:window-height="1016"
     inkscape:window-x="-8"
     inkscape:window-y="-8"
     inkscape:window-maximized="1" />
  <metadata
     id="metadata5">
    <rdf:RDF>
      <cc:Work
         rdf:about="">
        <dc:format>image/svg+xml</dc:format>
        <dc:type
           rdf:resource="http://purl.org/dc/dcmitype/StillImage" />
        <dc:title></dc:title>
      </cc:Work>
    </rdf:RDF>
  </metadata>
  <g
     inkscape:label="Layer 1"
     inkscape:groupmode="layer"
     id="layer1"
     transform="translate(-19.784366,-24.74892)">
    <g
       id="g55"
       transform="translate(-89.546954,-188.21066)">
      <path
         style="fill:#fdfdfd;stroke-width:0.26458332"
         d="m 109.33132,223.6752 v -10.71562 h 10.71563 10.71562 v 10.71562 10.71563 h -10.71562 -10.71563 z"
         id="path71"
         inkscape:connector-curvature="0" />
      <path
         style="fill:#f5f5f8;stroke-width:0.26458332"
         d="m 118.32715,234.22175 c -6.08397,-1.17142 -10.10234,-7.26157 -8.6199,-13.06415 0.94476,-3.698 4.12409,-6.87733 7.82209,-7.82209 5.17275,-1.32153 10.57248,1.63864 12.58667,6.90011 0.58604,1.53087 0.6962,6.00932 0.16097,6.54455 -0.16949,0.16949 -0.30816,0.582 -0.30816,0.9167 0,0.3347 -0.1,0.60854 -0.22211,0.60854 -0.12217,0 -0.35351,0.28838 -0.5141,0.64084 -0.63519,1.39409 -2.52053,3.27943 -3.91462,3.91462 -0.35246,0.16059 -0.64084,0.39193 -0.64084,0.5141 0,0.12216 -0.27384,0.22211 -0.60854,0.22211 -0.3347,0 -0.72165,0.11197 -0.85989,0.24883 -0.29001,0.28709 -3.89926,0.56497 -4.88157,0.37584 z m 3.20875,-9.81894 c 0.32911,-0.41964 0.31975,-0.429 -0.0999,-0.0999 -0.44073,0.34565 -0.58089,0.56292 -0.36313,0.56292 0.0549,0 0.2633,-0.20836 0.46302,-0.46302 z m 4.29089,-3.64943 c -0.0862,-0.22456 -0.21342,-0.35154 -0.28278,-0.28219 -0.0694,0.0694 -0.0476,0.25308 0.0483,0.40829 0.26089,0.42213 0.41338,0.34012 0.23447,-0.1261 z m -2.80879,-2.66199 c -0.0879,-0.0879 -0.31613,-0.0973 -0.50712,-0.0209 -0.21107,0.0845 -0.14837,0.14715 0.15985,0.15985 0.27891,0.0115 0.43518,-0.0511 0.34727,-0.13897 z"
         id="path69"
         inkscape:connector-curvature="0" />
      <path
         style="fill:#f3f4f6;stroke-width:0.26458332"
         d="m 116.15858,233.23744 c -0.52509,-0.2331 -0.65105,-0.4175 -0.47725,-0.6987 0.19908,-0.32213 0.26352,-0.3106 0.41094,0.0736 0.20225,0.52705 0.92715,0.59917 1.38822,0.1381 0.24694,-0.24694 0.3175,-0.22383 0.3175,0.10399 0,0.3266 -0.63049,0.84241 -0.88154,0.72119 -0.0245,-0.0118 -0.36552,-0.16399 -0.75787,-0.33815 z m -1.66788,-0.69869 c -0.0899,-0.14552 0.0221,-0.26459 0.24896,-0.26459 0.22687,0 0.41249,0.11907 0.41249,0.26459 0,0.14552 -0.11203,0.26458 -0.24897,0.26458 -0.13693,0 -0.32255,-0.11906 -0.41248,-0.26458 z m 1.91822,-0.43982 c 0.18191,-0.0734 0.47956,-0.0734 0.66146,0 0.1819,0.0734 0.0331,0.13346 -0.33073,0.13346 -0.3638,0 -0.51263,-0.0601 -0.33073,-0.13346 z m 6.87917,0 c 0.1819,-0.0734 0.47956,-0.0734 0.66146,0 0.1819,0.0734 0.0331,0.13346 -0.33073,0.13346 -0.3638,0 -0.51263,-0.0601 -0.33073,-0.13346 z m -10.6134,-1.31605 c -0.38805,-0.38806 -0.64061,-0.7705 -0.56124,-0.84988 0.0794,-0.0794 0.46182,0.17318 0.84988,0.56124 0.38805,0.38805 0.64061,0.7705 0.56123,0.84987 -0.0794,0.0794 -0.46181,-0.17318 -0.84987,-0.56123 z m 14.11913,0.0581 c 0,-0.2304 0.18852,-0.41892 0.41892,-0.41892 0.23041,0 0.3718,0.14139 0.3142,0.31419 -0.16354,0.4906 -0.73312,0.57197 -0.73312,0.10473 z m -12.97157,-1.22258 c -0.33047,-0.20899 -0.3217,-0.24719 0.0575,-0.25062 0.24607,-0.002 0.51413,-0.11201 0.59568,-0.24396 0.0815,-0.13195 -0.11979,-0.18115 -0.44741,-0.10934 -0.43239,0.0948 -0.49727,0.0608 -0.2367,-0.1239 0.25093,-0.17787 0.27084,-0.30893 0.0661,-0.43544 -0.16105,-0.0995 -0.291,-0.32278 -0.28878,-0.49609 0.002,-0.18934 0.10643,-0.15671 0.26054,0.0818 0.20012,0.30968 0.25737,0.31743 0.26053,0.0353 0.003,-0.23071 0.19558,-0.3115 0.53322,-0.22321 0.34392,0.0899 0.52916,0.008 0.52916,-0.23373 0,-0.20465 0.11907,-0.3721 0.26459,-0.3721 0.14552,0 0.2664,-0.68461 0.26863,-1.52135 0.002,-0.83675 0.0915,-1.64761 0.19844,-1.80191 0.10691,-0.15431 0.66213,-0.27337 1.23382,-0.26459 0.96116,0.0148 1.95874,-0.51363 1.61626,-0.8561 -0.0812,-0.0812 -0.31693,0.0818 -0.52386,0.36222 -0.34581,0.46862 -0.37516,0.41891 -0.36295,-0.61462 0.0119,-1.0045 0.0805,-1.12448 0.64356,-1.12448 0.56921,0 0.7627,0.25981 0.65504,0.87956 -0.0384,0.22081 0.36071,0.0454 0.97067,-0.4267 0.23854,-0.18461 0.25393,-0.35496 0.0538,-0.59604 -0.42668,-0.51412 -0.15777,-1.82592 0.39633,-1.93338 0.26144,-0.0507 0.57395,0.0674 0.69446,0.26237 0.36939,0.59768 0.85751,-0.15988 0.87129,-1.35221 0.012,-1.03618 0.22633,-1.34304 0.5605,-0.80235 0.0899,0.14552 0.28258,0.26458 0.4281,0.26458 0.14552,0 0.191,-0.11906 0.10107,-0.26458 -0.0899,-0.14552 -0.0661,-0.26459 0.053,-0.26459 0.30693,0 0.87456,0.96858 0.68105,1.1621 -0.0884,0.0884 -0.40887,0.16155 -0.71204,0.16245 -0.88152,0.003 0.84883,0.83263 1.89999,0.91139 1.0694,0.0801 1.21668,0.21975 0.98891,0.93738 -0.16351,0.51518 -0.20959,0.52701 -0.50093,0.12856 -0.28442,-0.38896 -0.40557,-0.31658 -1.06667,0.63739 -0.51051,0.73667 -0.70497,1.28978 -0.61638,1.75321 0.12323,0.64463 0.0805,0.67212 -0.89408,0.57467 -1.01306,-0.10131 -1.02383,-0.0926 -1.05484,0.85014 -0.0172,0.52388 -0.0236,1.02261 -0.0142,1.1083 0.009,0.0857 -0.4825,0.14894 -1.09314,0.14055 -0.93209,-0.0128 -1.09681,0.062 -1.02643,0.46607 0.0461,0.26472 -0.0177,0.41857 -0.14174,0.3419 -0.12407,-0.0767 -0.22558,0.0812 -0.22558,0.35089 0,0.26968 0.0935,0.4325 0.20789,0.36184 0.11433,-0.0707 0.20788,0.0517 0.20788,0.2719 0,0.30282 -0.22286,0.37185 -0.91462,0.28328 -0.66079,-0.0846 -0.98213,0.004 -1.15787,0.31757 -0.13379,0.23906 -0.41282,0.3696 -0.62006,0.29007 -0.20725,-0.0795 -0.66847,0.0238 -1.02494,0.22965 -0.5648,0.32613 -0.5801,0.36956 -0.11896,0.33783 1.28954,-0.0887 1.71933,0.0346 1.6989,0.48755 -0.0125,0.27661 -0.0746,0.32987 -0.15434,0.13229 -0.0734,-0.1819 -0.24962,-0.33073 -0.3916,-0.33073 -0.14199,0 -0.17669,0.13182 -0.0771,0.29293 0.12071,0.19532 10e-4,0.23582 -0.359,0.12153 -0.29702,-0.0943 -0.61661,-0.0475 -0.7102,0.10395 -0.28004,0.4531 -0.66276,0.31113 -0.50592,-0.18768 0.13443,-0.42752 0.11555,-0.42645 -0.24616,0.014 -0.29478,0.35896 -0.42613,0.3917 -0.53063,0.13229 -0.10621,-0.26367 -0.19192,-0.27026 -0.36443,-0.028 -0.14845,0.20847 -0.35886,0.23247 -0.61546,0.0702 z m 1.59449,-1.04842 c 0,-0.14552 -0.12609,-0.26459 -0.2802,-0.26459 -0.15411,0 -0.20662,0.11907 -0.11668,0.26459 0.0899,0.14552 0.21603,0.26458 0.2802,0.26458 0.0642,0 0.11668,-0.11906 0.11668,-0.26458 z m 2.64583,-1.7198 c -0.18116,-0.21828 -0.38891,-0.39687 -0.46167,-0.39687 -0.0728,0 0.0159,0.17859 0.19709,0.39687 0.18115,0.21829 0.3889,0.39688 0.46167,0.39688 0.0728,0 -0.0159,-0.17859 -0.19709,-0.39688 z m -0.45011,-2.51354 c 0.11922,0 0.13877,-0.12618 0.0435,-0.28041 -0.10959,-0.17732 -0.30804,-0.10436 -0.53975,0.19843 -0.315,0.41162 -0.40229,0.42421 -0.62168,0.0897 -0.14037,-0.21407 -0.34754,-0.29689 -0.46038,-0.18406 -0.11284,0.11284 -0.0471,0.30287 0.14615,0.42229 0.24592,0.15198 0.26346,0.27142 0.0585,0.3981 -0.16105,0.0995 -0.29283,0.29784 -0.29283,0.44066 0,0.14282 0.32621,-0.0428 0.7249,-0.41249 0.3987,-0.36969 0.82244,-0.67217 0.94166,-0.67217 z m 4.02019,0.35674 c 0.0488,-0.66402 -0.53301,-0.5586 -0.92131,0.16694 -0.20024,0.37415 -0.14042,0.45583 0.31627,0.43189 0.37652,-0.0197 0.57708,-0.21824 0.60504,-0.59883 z m 1.87278,-1.96495 c 0,-0.61653 0.0269,-0.61465 -0.49775,-0.0349 -0.39621,0.43781 -0.3936,0.4762 0.0346,0.50845 0.29258,0.022 0.46316,-0.15237 0.46316,-0.47356 z M 118.85632,222.22 c 0,-0.14552 -0.0525,-0.26459 -0.11668,-0.26459 -0.0642,0 -0.19026,0.11907 -0.28019,0.26459 -0.0899,0.14552 -0.0374,0.26458 0.11667,0.26458 0.15411,0 0.2802,-0.11906 0.2802,-0.26458 z m 1.6788,-1.46662 c -0.0862,-0.22456 -0.21342,-0.35154 -0.28277,-0.28219 -0.0694,0.0694 -0.0476,0.25308 0.0483,0.40829 0.26089,0.42213 0.41338,0.34012 0.23447,-0.1261 z m 2.15766,-0.12088 c -0.0899,-0.14552 -0.30532,-0.26276 -0.47864,-0.26054 -0.18934,0.002 -0.1567,0.10643 0.0818,0.26054 0.5083,0.32848 0.59989,0.32848 0.39688,0 z m -1.71979,-0.79375 c 0,-0.14552 -0.12609,-0.26459 -0.2802,-0.26459 -0.15411,0 -0.20662,0.11907 -0.11668,0.26459 0.0899,0.14552 0.21603,0.26458 0.2802,0.26458 0.0642,0 0.11668,-0.11906 0.11668,-0.26458 z m 2.31007,-1.77086 c -0.25744,-0.0671 -0.61462,-0.0627 -0.79375,0.01 -0.17914,0.0725 0.0315,0.12736 0.46805,0.12197 0.43656,-0.005 0.58313,-0.0647 0.3257,-0.13178 z m -12.50581,10.21959 c -0.23085,-0.44643 -0.36237,-0.95245 -0.29226,-1.12448 0.0701,-0.17204 0.13687,-0.10444 0.14836,0.15023 0.0115,0.25466 0.19948,0.46302 0.41776,0.46302 0.24695,0 0.39688,0.24988 0.39688,0.66145 0,0.87063 -0.16154,0.83445 -0.67074,-0.15022 z m 17.64585,-1.0404 c 0,-0.3638 0.06,-0.51263 0.13345,-0.33073 0.0734,0.1819 0.0734,0.47956 0,0.66146 -0.0734,0.1819 -0.13345,0.0331 -0.13345,-0.33073 z m -14.73248,-0.28452 c -0.0959,-0.30201 -0.10388,-0.61951 -0.0178,-0.70556 0.086,-0.0861 0.15645,0.0507 0.15645,0.30392 0,0.29488 0.16536,0.42853 0.45998,0.37179 0.6249,-0.12034 0.78058,-1.00855 0.17678,-1.00855 -0.25321,0 -0.38997,-0.0704 -0.30392,-0.15645 0.22072,-0.22072 1.25466,0.14094 1.25466,0.43887 0,0.13571 -0.23813,0.48487 -0.52917,0.77592 -0.67356,0.67355 -0.97846,0.66847 -1.19695,-0.0199 z m -3.83013,-1.41966 c 0,-0.51791 0.11906,-0.94165 0.26458,-0.94165 0.14552,0 0.26458,0.35016 0.26458,0.77813 0,0.42798 -0.11906,0.85172 -0.26458,0.94166 -0.15746,0.0973 -0.26458,-0.21774 -0.26458,-0.77814 z m 1.1033,0.64585 c 0.004,-0.21828 0.1031,-0.69453 0.21961,-1.05834 0.1703,-0.53174 0.21336,-0.55768 0.21962,-0.13229 0.004,0.29104 -0.0945,0.76729 -0.21962,1.05833 -0.13931,0.3242 -0.22437,0.37544 -0.21961,0.1323 z m -1.63247,-2.64584 c 0,-0.49389 0.0706,-0.56444 0.3175,-0.3175 0.24694,0.24695 0.24694,0.38806 0,0.635 -0.24694,0.24695 -0.3175,0.17639 -0.3175,-0.3175 z m 0.53322,-1.91823 c 0.003,-0.65252 0.0659,-0.76418 0.26053,-0.46302 0.33607,0.52004 0.33607,1.32292 0,1.32292 -0.14552,0 -0.26276,-0.38695 -0.26053,-0.8599 z m 1.21964,0.0331 c -0.22057,-1.10285 -0.007,-1.31661 0.23152,-0.23151 0.10045,0.45737 0.12749,0.88674 0.0601,0.95414 -0.0674,0.0674 -0.19862,-0.25777 -0.2916,-0.72263 z m 8.4336,0.0331 c 0.0899,-0.14552 0.28258,-0.26458 0.4281,-0.26458 0.14552,0 0.191,0.11906 0.10107,0.26458 -0.0899,0.14552 -0.28259,0.26458 -0.42811,0.26458 -0.14552,0 -0.191,-0.11906 -0.10106,-0.26458 z m 5.47544,-0.44414 c 0.28062,-0.074 0.39501,-0.2852 0.30577,-0.56462 -0.11108,-0.3478 -0.0855,-0.36647 0.11572,-0.0845 0.14208,0.19908 0.4212,0.46515 0.62028,0.59126 0.2411,0.15274 0.0528,0.22041 -0.56409,0.20266 -0.50932,-0.0147 -0.72428,-0.0798 -0.47768,-0.14481 z m 4.12893,-0.13794 c 0.46107,-0.46107 0.38895,-1.18597 -0.1381,-1.38822 -0.38273,-0.14687 -0.3948,-0.21242 -0.0755,-0.40978 0.28205,-0.17432 0.4652,-0.0327 0.70975,0.54896 0.38049,0.90491 0.21484,1.56654 -0.3922,1.56654 -0.32782,0 -0.35093,-0.0706 -0.10399,-0.3175 z m -0.69905,-0.74084 c 0,-0.3638 0.06,-0.51263 0.13345,-0.33073 0.0734,0.18191 0.0734,0.47956 0,0.66146 -0.0734,0.1819 -0.13345,0.0331 -0.13345,-0.33073 z m -17.76045,-1.23472 c 0.005,-0.12127 0.19259,-0.45861 0.4177,-0.74965 0.40084,-0.51826 0.40748,-0.51596 0.32231,0.11157 -0.0785,0.57823 -0.76016,1.16602 -0.74001,0.63808 z m 17.98325,-0.76527 c 0,-0.22687 0.11907,-0.3389 0.26459,-0.24897 0.14552,0.0899 0.26458,0.27556 0.26458,0.41249 0,0.13694 -0.11906,0.24897 -0.26458,0.24897 -0.14552,0 -0.26459,-0.18562 -0.26459,-0.41249 z m -1.8511,-1.83542 c -0.66131,-0.70393 -0.66168,-1.09016 -5.6e-4,-0.57472 0.61804,0.48185 1.14976,1.23513 0.87185,1.23513 -0.13798,0 -0.53005,-0.29718 -0.87129,-0.66041 z m -14.28848,0.17926 c 0,-0.31977 0.50197,-0.69257 0.68546,-0.50909 0.0666,0.0666 -0.0604,0.27169 -0.28219,0.45577 -0.25146,0.20869 -0.40327,0.22876 -0.40327,0.0533 z m 2.11667,-1.91301 c 0.21828,-0.14816 0.61424,-0.39348 0.87992,-0.54514 0.43014,-0.24555 0.45085,-0.2156 0.18913,0.27344 -0.16317,0.30489 -0.5546,0.54739 -0.87992,0.54515 -0.48152,-0.003 -0.51524,-0.0521 -0.18913,-0.27345 z m 2.77812,0.0129 c -0.67422,-0.28972 0.0214,-0.28972 0.92604,0 0.53174,0.1703 0.55769,0.21336 0.1323,0.21962 -0.29105,0.004 -0.7673,-0.0945 -1.05834,-0.21962 z m 4.10104,0 c 0.90466,-0.28972 1.60026,-0.28972 0.92605,0 -0.29105,0.12507 -0.7673,0.22389 -1.05834,0.21962 -0.42539,-0.006 -0.39945,-0.0493 0.13229,-0.21962 z m 2.64584,-0.13229 c 0,-0.21828 -0.20836,-0.40627 -0.46302,-0.41776 -0.25467,-0.0115 -0.32227,-0.0782 -0.15023,-0.14836 0.30257,-0.12331 1.93616,0.58331 1.93616,0.8375 0,0.069 -0.29765,0.1255 -0.66145,0.1255 -0.41158,0 -0.66146,-0.14993 -0.66146,-0.39688 z m -6.61459,-0.92604 c -0.30116,-0.19463 -0.1895,-0.25746 0.46302,-0.26053 0.47295,-0.002 0.8599,0.11501 0.8599,0.26053 0,0.33607 -0.80288,0.33607 -1.32292,0 z m 3.43959,0 c 0,-0.14552 0.42374,-0.26458 0.94165,-0.26458 0.5604,0 0.87545,0.10712 0.77814,0.26458 -0.0899,0.14552 -0.51368,0.26458 -0.94166,0.26458 -0.42797,0 -0.77813,-0.11906 -0.77813,-0.26458 z m -1.45521,-0.52917 c -0.0899,-0.14552 0.0887,-0.26458 0.39687,-0.26458 0.30822,0 0.48682,0.11906 0.39688,0.26458 -0.0899,0.14552 -0.26853,0.26459 -0.39688,0.26459 -0.12834,0 -0.30693,-0.11907 -0.39687,-0.26459 z"
         id="path67"
         inkscape:connector-curvature="0" />
      <path
         style="fill:#eaf6fb;stroke-width:0.26458332"
         d="m 114.09382,228.45332 c 0,-0.81069 0.1508,-0.87618 0.34118,-0.14817 0.0761,0.2909 0.0304,0.59558 -0.10144,0.67707 -0.13186,0.0815 -0.23974,-0.15651 -0.23974,-0.5289 z m 1.30491,0.083 c -0.20341,-0.38007 -0.21288,-0.61741 -0.0292,-0.73095 0.14962,-0.0925 0.31074,-0.52122 0.35805,-0.95278 0.0532,-0.48542 0.51293,-1.22836 1.20552,-1.94818 0.61574,-0.63994 1.04382,-1.286 0.95131,-1.4357 -0.093,-0.1504 -0.0399,-0.19289 0.11851,-0.095 0.15771,0.0975 1.07002,-0.60608 2.02736,-1.56342 1.57864,-1.57864 1.77912,-1.70213 2.1543,-1.32695 0.61326,0.61325 0.71064,0.50216 0.21839,-0.24911 -0.34996,-0.53411 -0.37054,-0.73958 -0.106,-1.05834 0.62509,-0.75318 1.70644,-0.33968 2.37043,0.90642 0.29096,0.54603 0.27782,0.68694 -0.0891,0.95521 -0.2367,0.17309 -0.43037,0.45315 -0.43037,0.62236 0,0.19606 -0.25298,0.14191 -0.69742,-0.1493 -0.69148,-0.45308 -0.6944,-0.45213 -0.34248,0.11139 0.30528,0.48882 0.29172,0.63822 -0.0969,1.06765 -0.24852,0.27461 -0.3623,0.59024 -0.25284,0.70141 0.10945,0.11117 -0.0391,0.16104 -0.33015,0.11082 -0.39237,-0.0677 -0.5075,0.0353 -0.44533,0.39827 0.0486,0.28384 -0.0307,0.41877 -0.18879,0.32108 -0.35534,-0.21961 -1.42068,0.84573 -1.20107,1.20107 0.0977,0.15806 -0.0372,0.2374 -0.32108,0.18879 -0.35156,-0.0602 -0.46593,0.0542 -0.40573,0.40573 0.0461,0.26927 -0.0297,0.4194 -0.16846,0.33364 -0.13876,-0.0858 -0.39943,0.0214 -0.57925,0.23803 -0.46322,0.55815 -0.78391,0.49494 -1.6928,-0.33364 -0.72579,-0.66167 -0.51276,-0.18896 0.30615,0.67932 0.47894,0.50781 0.40638,0.84204 -0.18282,0.84204 -0.28246,0 -0.58714,0.11906 -0.67707,0.26458 -0.0899,0.14552 -0.39462,0.26458 -0.67708,0.26458 -0.78207,0 -0.61237,0.47905 0.21405,0.60424 l 0.72761,0.11023 -0.7183,0.0396 c -0.48811,0.0269 -0.81482,-0.14071 -1.0195,-0.52317 z m 4.13606,-1.10224 c 0.0994,-0.26094 0.2473,-0.40778 0.32876,-0.32632 0.0815,0.0815 1.7e-4,0.29495 -0.18065,0.47443 -0.26131,0.25936 -0.2917,0.22897 -0.14811,-0.14811 z m 1.79584,-1.97563 c 0.0961,-0.15558 0.0252,-0.34317 -0.15756,-0.41687 -0.2379,-0.0959 -0.2428,-0.13994 -0.0173,-0.15489 0.45532,-0.0302 0.67403,0.43804 0.30978,0.66317 -0.18464,0.11411 -0.23916,0.0772 -0.13496,-0.0914 z m -4.32639,-1.65098 c 0,-0.14552 0.12609,-0.26459 0.28019,-0.26459 0.15411,0 0.20662,0.11907 0.11668,0.26459 -0.0899,0.14552 -0.21602,0.26458 -0.2802,0.26458 -0.0642,0 -0.11667,-0.11906 -0.11667,-0.26458 z m 1.19062,-1.85209 c 0.0899,-0.14552 0.21603,-0.26458 0.2802,-0.26458 0.0642,0 0.11668,0.11906 0.11668,0.26458 0,0.14552 -0.12609,0.26459 -0.2802,0.26459 -0.15411,0 -0.20662,-0.11907 -0.11668,-0.26459 z m 1.98438,-1.98437 c -0.18374,-0.22139 -0.21239,-0.39688 -0.0648,-0.39688 0.14552,0 0.41281,0.1786 0.59396,0.39688 0.18374,0.22139 0.21239,0.39687 0.0648,0.39687 -0.14552,0 -0.41281,-0.17859 -0.59396,-0.39687 z m 5.20347,0.22048 c -0.097,-0.097 -0.17639,-0.29942 -0.17639,-0.44979 0,-0.16579 0.12324,-0.15016 0.31309,0.0397 0.1722,0.1722 0.25158,0.37461 0.17639,0.44979 -0.0752,0.0752 -0.21608,0.0573 -0.31309,-0.0397 z m -3.35139,-2.20486 c 0,-0.14552 0.12609,-0.26458 0.2802,-0.26458 0.15411,0 0.20661,0.11906 0.11668,0.26458 -0.0899,0.14552 -0.21603,0.26459 -0.2802,0.26459 -0.0642,0 -0.11668,-0.11907 -0.11668,-0.26459 z"
         id="path65"
         inkscape:connector-curvature="0" />
      <path
         style="fill:#98d3f9;stroke-width:0.26458332"
         d="m 115.56653,227.7101 c 0.62883,-2.01859 0.769,-2.11792 1.65617,-1.17357 0.7625,0.81164 0.73772,0.90016 -0.38307,1.36846 -1.28754,0.53797 -1.49167,0.50672 -1.2731,-0.19489 z m 1.88581,-1.58119 -0.74251,-0.83299 2.52676,-2.52675 2.52675,-2.52676 0.85644,0.85643 0.85643,0.85644 -2.50315,2.51361 c -1.37674,1.38248 -2.56505,2.50897 -2.64068,2.5033 -0.0756,-0.006 -0.47165,-0.38515 -0.88004,-0.84328 z m 5.39374,-5.34175 c -1.16174,-1.23662 0.0542,-2.31638 1.2556,-1.11498 0.56523,0.56523 0.64518,0.79081 0.41167,1.16161 -0.4386,0.69646 -0.98348,0.68122 -1.66727,-0.0466 z"
         id="path63"
         inkscape:connector-curvature="0" />
      <path
         style="fill:#73c5fb;stroke-width:0.26458332"
         d="m 115.54778,227.84239 c 0.10322,-0.25466 0.3062,-0.79044 0.45107,-1.19062 0.32413,-0.89536 0.48306,-0.90377 1.26899,-0.0672 0.71405,0.76007 0.72594,0.73547 -0.62664,1.29615 -1.27863,0.53002 -1.32314,0.52846 -1.09342,-0.0383 z m 2.03174,-1.73684 c -0.3164,-0.3368 -0.57528,-0.68779 -0.57528,-0.77997 0,-0.0922 1.0767,-1.23106 2.39268,-2.53085 l 2.39268,-2.36325 0.80687,0.80687 0.80687,0.80687 -2.33965,2.3302 c -1.28682,1.28161 -2.46774,2.33297 -2.62427,2.33635 -0.15653,0.003 -0.54349,-0.26942 -0.8599,-0.60622 z m 5.42187,-5.4271 c -0.69174,-0.72202 -0.69965,-0.76297 -0.22935,-1.18859 0.45887,-0.41527 0.5305,-0.39549 1.23644,0.34135 0.62692,0.65436 0.69423,0.84856 0.41203,1.1886 -0.45918,0.55327 -0.5928,0.52113 -1.41912,-0.34136 z"
         id="path61"
         inkscape:connector-curvature="0" />
      <path
         style="fill:#61b3f0;stroke-width:0.26458332"
         d="m 115.41674,228.20329 c 0,-0.13015 0.8281,-2.12397 0.92578,-2.22902 0.042,-0.0452 0.39393,0.23532 0.78198,0.62338 0.38806,0.38805 0.66858,0.7331 0.62338,0.76676 -0.22093,0.16453 -2.33114,0.92391 -2.33114,0.83888 z m 2.10783,-2.15624 -0.63024,-0.67086 2.43409,-2.43409 2.43409,-2.43409 0.72395,0.72395 0.72396,0.72395 -2.36997,2.381 c -1.30349,1.30955 -2.441,2.381 -2.52781,2.381 -0.0868,0 -0.44144,-0.30188 -0.78807,-0.67086 z m 5.47682,-5.3686 c -0.69174,-0.72202 -0.69965,-0.76297 -0.22935,-1.18859 0.45882,-0.41523 0.53023,-0.39577 1.23063,0.33529 0.67344,0.70293 0.70465,0.81498 0.33103,1.18859 -0.53072,0.53073 -0.49369,0.54005 -1.33231,-0.33529 z"
         id="path59"
         inkscape:connector-curvature="0" />
      <path
         style="fill:#0594f8;stroke-width:0.26458332"
         d="m 115.78643,227.61937 c 0.089,-0.2318 0.23567,-0.71603 0.32603,-1.07608 l 0.1643,-0.65463 0.77244,0.74004 0.77244,0.74004 -0.87172,0.31592 c -1.1916,0.43184 -1.35082,0.4229 -1.16349,-0.0653 z m 1.75948,-1.60154 -0.64895,-0.64427 2.43277,-2.43278 2.43278,-2.43277 0.72395,0.72395 0.72396,0.72395 -2.36997,2.381 c -1.30349,1.30955 -2.43199,2.36844 -2.50778,2.35309 -0.0758,-0.0153 -0.42984,-0.31783 -0.78676,-0.67217 z m 5.45419,-5.34073 c -0.65758,-0.68636 -0.68496,-0.78952 -0.29543,-1.11281 0.80265,-0.66614 2.161,0.7285 1.42571,1.46379 -0.3643,0.3643 -0.47918,0.32862 -1.13028,-0.35098 z"
         id="path57"
         inkscape:connector-curvature="0" />
    </g>
  </g>
</svg>
