<?xml version="1.0" standalone="no"?>
<!DOCTYPE svg PUBLIC "-//W3C//DTD SVG 1.1//EN" "http://www.w3.org/Graphics/SVG/1.1/DTD/svg11.dtd" >
<svg xmlns="http://www.w3.org/2000/svg" xmlns:xlink="http://www.w3.org/1999/xlink" version="1.1">
<metadata></metadata>
<defs>
<font id="cuttyfrutyregular" horiz-adv-x="1139" >
<font-face units-per-em="2048" ascent="1638" descent="-410" />
<missing-glyph horiz-adv-x="569" />
<glyph horiz-adv-x="0" />
<glyph unicode="&#xd;" horiz-adv-x="569" />
<glyph unicode=" "  horiz-adv-x="569" />
<glyph unicode="&#x09;" horiz-adv-x="569" />
<glyph unicode="&#xa0;" horiz-adv-x="569" />
<glyph unicode="!" horiz-adv-x="517" d="M68 120q0 103 76 133h57q35 0 95 -171l-95 -57q-118 38 -133 95zM182 539v57q0 139 114 590q-38 0 -38 58q31 95 115 95q87 -37 95 -76q0 -105 -133 -591v-57l38 -152v-19l-19 -19v-19q-130 33 -172 133z" />
<glyph unicode="&#x22;" horiz-adv-x="580" d="M94 1677v13q170 0 170 -315l-13 -13h-13q-95 0 -118 223q-22 0 -26 92zM291 1690v13l26 26q62 0 157 -197v-26l-39 -39h-13q-108 107 -131 223z" />
<glyph unicode="#" horiz-adv-x="1998" d="M19 689v26l77 77h129v52q0 49 -206 156v52q0 129 724 129v25l-77 104l206 285q157 -27 157 -79l-26 -284h232l258 258h105l77 -77v-77l-25 -26v-26h258l103 26l26 -26l129 26h27l26 -26l103 52q155 -35 155 -78v-52l-181 26q-724 0 -724 -258l-79 -311h131v-77 q-208 0 -208 -260l-26 -26l26 -77q-129 -181 -310 -181q-119 50 -129 103v26l52 52h51l26 -26h26q86 86 155 337h-233q-146 0 -208 -286q-125 -154 -206 -154q-232 25 -232 103v26l103 363h-26l-77 -26q0 36 -363 103zM330 844q0 -71 258 -104l104 286v51 q-362 -86 -362 -130v-103zM640 326q58 0 155 234h-78zM769 715l26 -26h103l208 337v51h-129q-76 -13 -208 -362zM1029 689l258 -52q58 62 129 466h-26q-174 0 -361 -414z" />
<glyph unicode="$" horiz-adv-x="980" d="M86 177v163q0 245 122 245l41 -81l-41 -123v-81q13 -123 62 -123h81v20l21 490h20q-153 261 -204 449v41q0 56 265 82l41 265q184 -20 184 -61v-82q-79 -92 -82 -184q74 -38 225 -244v-21l-41 -41h-61l-164 123l-20 -245l367 -265q0 -253 -428 -449l-21 -61l82 -429 q102 -26 102 -61l-82 -82h-40q-97 0 -184 531l-41 81l20 21q-224 52 -224 122zM372 1075l20 -143h41v21l-20 81l20 82h-20zM474 197q245 119 245 245v21l-184 163q-61 -133 -61 -326v-103z" />
<glyph unicode="%" horiz-adv-x="1268" d="M131 858q0 156 212 309h96l20 -19l19 19h19l155 -58h57q211 135 444 135h19l39 -39q0 -146 -675 -964q-123 -171 -212 -443l58 -19q189 74 270 193l77 38v58q0 150 212 328h96l39 -39v-19l-77 -97v-38q64 0 192 -154q0 -69 -289 -135l-115 19h-39q0 -57 -58 -57 q-225 -213 -366 -213v20l-19 -20h-39l-39 39v96q167 455 675 1041q116 211 116 270h-58q-251 -105 -251 -289q-162 -172 -385 -193q-193 58 -193 231zM266 820l58 -77l212 58v19q-78 135 -231 135l-39 -116v-19zM883 49l96 -20v20l-57 57l-39 -38v-19z" />
<glyph unicode="&#x26;" horiz-adv-x="1366" d="M184 122v108l131 240l-44 87q188 544 414 544h130q161 0 175 -65l-44 -152h-65l-153 87q-120 0 -261 -370h22l130 65q131 -29 131 -65v-22l-283 -196q-131 -114 -131 -196h22l66 -22l21 22l109 -22h22l65 44l22 -22h22l43 43h87v-43q0 -65 -304 -131v-22l-109 22h-153z M511 -30q0 55 196 86l21 -22l-21 -151l43 -196v-44l-109 -44q-66 0 -130 284v87zM685 1646v109l65 65l22 -22h22l65 22q65 -80 65 -305l-43 -43h-66q-41 0 -130 174z" />
<glyph unicode="'" horiz-adv-x="1137" d="M770 1418q0 162 144 162h54l54 -54l-108 -108v-72l18 -90l-54 -18q-108 41 -108 180z" />
<glyph unicode="(" horiz-adv-x="880" d="M100 -1h26l-26 25v26q165 903 742 1613l384 153q128 -32 128 -76v-26q0 -44 -307 -128q-494 -342 -742 -1408l-26 -179q0 -358 410 -358l435 205h26l51 -52l-359 -230l-25 26l-333 -77q-384 101 -384 384v102z" />
<glyph unicode=")" horiz-adv-x="688" d="M-165 -469q268 134 408 571q123 218 225 837q0 543 -306 735v82h143q285 -170 285 -653l21 -184q-18 -443 -347 -1163l-306 -348h-61l-62 62v61z" />
<glyph unicode="*" horiz-adv-x="741" d="M53 1454v13q1 18 370 159q91 185 159 185h39l14 -13v-27q-199 -199 -199 -370v-53l27 -105v-14l-27 -26h-13l-40 53l-13 13h-13l-40 -26l-13 13v26l40 159v53l-13 13v13l-159 -106h-40q-68 0 -79 40z" />
<glyph unicode="+" horiz-adv-x="539" d="M82 735v15q0 36 129 71l28 86h86l58 -71q105 0 114 -43q0 -40 -129 -58l-57 -114q-115 11 -115 72h-71z" />
<glyph unicode="," horiz-adv-x="569" d="M-90 -146q261 230 323 447l-24 25v25l24 25v25l-24 149l74 50q224 -40 224 -224h-25l25 -25v-25q-295 -547 -572 -547l-25 25v50z" />
<glyph unicode="-" horiz-adv-x="1111" d="M37 669v60l30 29v30q233 -121 446 -68h29h30l56 5h30l312 71h59l60 -60v-59q-149 -9 -190 -49l-78 -11l-193 -71h-30h-30h-59l-85 4l-119 -30q-268 89 -268 149z" />
<glyph unicode="." horiz-adv-x="569" d="M64 263l96 96h64q172 0 224 -128q-52 -128 -224 -128z" />
<glyph unicode="/" horiz-adv-x="1078" d="M-7 78v22q557 801 777 1243l-22 67q36 100 133 155h111q51 0 66 -111l-732 -1176q0 -251 -200 -289h-44z" />
<glyph unicode="0" d="M40 136q112 872 364 1371l196 140q280 0 280 -280l-140 -140q-56 0 -84 168h-56q-172 0 -364 -1091v-112h28q329 0 644 1147l28 308q-64 0 -84 140l28 28h83q65 0 140 -252q-336 -1539 -811 -1539h-140q-70 0 -84 112h-28z" />
<glyph unicode="1" horiz-adv-x="1343" d="M36 287q35 117 585 117q375 749 375 984h-23q-516 -317 -703 -679h-70l-141 93v24q613 643 960 749q188 -56 188 -94v-23q0 -255 -305 -796l-70 -211l23 24h47l24 -24l23 24h281l47 -47q0 -47 -211 -47l-234 -70l23 -117v-24l-70 -70q-143 0 -211 187l-140 -93l-23 23 l-24 -23h-211z" />
<glyph unicode="2" horiz-adv-x="1407" d="M-11 1308q0 76 256 96v-32l383 96v-32l351 96h128q245 0 288 -128q-205 -560 -863 -990l-160 -64v-64q288 -20 288 -64l32 32h64l127 -32l32 32h32l128 -32l320 32l31 -32v-32q-72 -64 -606 -95v31l-32 -31h-512q-173 0 -255 127v64q1086 638 1086 1022v64h-96l-766 -191 q-256 58 -256 127z" />
<glyph unicode="3" horiz-adv-x="1612" d="M81 991v33q0 251 585 422l292 -97l-32 -163v-97l162 32q455 0 455 -292q-35 -373 -617 -1072l-553 -260q-195 77 -195 130q81 107 520 195q617 532 617 1007l-32 97h-33l-324 -32q-260 0 -260 227v33l32 32v33l-32 32h-65q-331 -292 -488 -292z" />
<glyph unicode="4" d="M1 814q190 778 285 778h130l52 -52q-286 -322 -286 -674l78 -26q545 46 545 260q103 544 259 544l78 -26v-26l-208 -596l52 -52q-311 -302 -311 -778l-26 -77l52 -52l-78 -78h-26l-78 78v78l130 674h-26l-389 -78q-233 0 -233 103z" />
<glyph unicode="5" horiz-adv-x="1096" d="M12 296q111 79 210 79q0 -158 472 -158q105 17 105 184h26q0 131 -288 131v26l-27 -26h-26q-367 120 -367 367v79q51 341 341 341h79q138 0 262 -157q0 -53 -79 -53l-288 53q-70 -18 -131 -132v-105q0 -239 550 -314q158 -37 158 -158q0 -367 -289 -367h-78 q-604 0 -604 184z" />
<glyph unicode="6" d="M32 265q173 1026 511 1352q180 150 480 150l60 -60q-1 -65 -330 -180q-409 -394 -481 -931h30q158 120 331 120h300l120 -120q0 -501 -691 -571h-60q-270 47 -270 240zM242 295q0 -90 120 -90v-30q283 0 481 301q0 90 -150 90v30l-361 -211q-90 0 -90 -90z" />
<glyph unicode="7" horiz-adv-x="1231" d="M64 836q0 88 235 134l335 -33v33l100 168v234l-134 34q-151 0 -335 -168q-201 34 -201 101v67q0 116 369 167v-33l33 33h168q368 0 368 -100v-134l-67 -268v-168h369l100 -100l-100 -67l-101 33q-469 0 -469 -134l-134 -301l34 -268l-34 -34h-33l-101 34l-100 -34l-34 34 v167l168 503h-34l-33 -34h-34q-335 34 -335 134z" />
<glyph unicode="8" d="M89 1036q0 407 261 407h175l87 -59q417 320 494 320l29 -29v-58q-697 -558 -697 -785l406 -406l29 -146v-58q0 -203 -348 -203q-290 0 -378 203l-29 117h29l-29 29v58l58 377zM321 484q0 -225 146 -291h29l174 58q0 128 -320 349h-29v-116zM321 1094h29l59 58v29l-59 58 l-29 -29v-116z" />
<glyph unicode="9" d="M72 1348v111q97 167 444 167h139l56 -56v-27q0 -92 -361 -111l-28 -28l-28 -84h-28l84 -83v-28q250 0 611 528h111l55 -56v-55q-493 -963 -500 -1389l28 -83l-28 -28l28 -138v-28l-55 -56h-28q-83 0 -139 278l306 1027q-208 -139 -361 -139h-167q-139 63 -139 278z" />
<glyph unicode=":" horiz-adv-x="808" d="M-12 112v55q0 66 390 168h84q56 0 56 -84q0 -146 -391 -251h-27zM378 920l112 84q251 -58 251 -279l-28 -28h-167q-168 112 -168 223z" />
<glyph unicode=";" horiz-adv-x="752" d="M-168 -408q261 230 323 447l-24 25v25l24 25v25l-24 149l74 50q224 -40 224 -224h-25l25 -25v-25q-295 -547 -572 -547l-25 25v50zM363 920l112 84q251 -58 251 -279l-28 -28h-167q-168 112 -168 223z" />
<glyph unicode="&#x3c;" horiz-adv-x="1196" />
<glyph unicode="=" horiz-adv-x="1229" d="M112 687v62l92 92h309l123 31l277 -62v-30q0 -61 -185 -124h-61l-308 -31h-185zM328 471q0 68 801 216l31 -31v-61q-203 -247 -678 -247q-141 60 -154 123z" />
<glyph unicode="&#x3e;" horiz-adv-x="1196" />
<glyph unicode="?" d="M-7 93l107 80h188l80 -80q-50 -97 -161 -134q-134 0 -214 134zM100 522q0 153 589 642q130 130 161 295l-187 80l-349 -53l-53 134q103 107 348 107h80q429 -112 429 -214v-54q0 -233 -750 -830q-64 -215 -107 -215h-80q-67 0 -81 108z" />
<glyph unicode="@" horiz-adv-x="2079" d="M281 74q63 558 167 806q436 968 738 968q275 0 406 -315l18 -108q-212 -991 -762 -991q-103 18 -103 63q-95 -63 -275 -63l-63 -86l23 -18v-22q-45 -59 -45 -252h-18q0 -572 418 -572q419 0 910 675h23v-63q-397 -698 -973 -698h-86q-378 0 -378 487v189zM511 812 q162 0 211 -63q45 131 108 131l18 -23h23l63 23v-45l-63 -230l23 -23h22q270 0 441 487l-40 63q144 40 144 293l-18 63h18q-41 162 -167 256h-148q-90 -31 -298 -256q-36 0 -126 -230q-40 -4 -211 -446zM556 560l40 45v18h-40v-63z" />
<glyph unicode="A" horiz-adv-x="1439" d="M30 182q0 137 150 225q0 95 205 224q0 56 506 674q257 323 355 355q150 -41 150 -93l-206 -805h262q242 0 337 -37l18 18h19l243 -75l19 19h19q355 -112 542 -131l19 -18v-19l-75 -38l-56 38l-19 -19q-542 150 -1010 187l-19 -19h-18l-75 19q-281 -47 -281 -149l-93 -449 l74 -131v-75l-93 -19q-144 0 -169 187q-294 281 -486 281l-131 -113l19 -18v-56l-56 -56q-104 30 -150 93zM535 425l356 -206q93 285 93 393h-19q-94 -1 -168 -93l-56 19l-206 -94v-19zM554 612h19l467 131q63 106 169 655v56q-508 -501 -655 -842z" />
<glyph unicode="B" horiz-adv-x="1366" d="M-52 326v64l22 21l-22 21v43q120 520 449 1049l22 149l-22 22l64 43l86 -22l171 43l22 -21v-65l-43 -64q156 -128 535 -299l21 -107l-64 -107v-22q414 0 599 -299q0 -406 -642 -685q-543 -171 -749 -171h-42q-288 0 -407 407zM98 368q43 0 43 -85l21 -22h21 q136 0 278 599v22q-115 0 -149 85q0 55 171 107v172l-22 106q-363 -486 -363 -984zM183 112q75 -107 236 -107h42q765 138 1027 427q93 114 150 279q0 235 -513 235h-86l-150 -21v21q-299 -28 -299 -150q-128 -684 -407 -684zM568 1459q43 -385 86 -385h171q168 0 236 129 v64l-493 214v-22z" />
<glyph unicode="C" horiz-adv-x="1399" d="M108 497q0 279 678 992q208 156 313 156h78q142 0 209 -130v-79q-20 -77 -183 -130l-130 78h-52q-678 -541 -678 -887q0 -199 234 -286q368 0 679 286q130 -33 130 -78v-26q-11 -99 -600 -365h-313q-365 204 -365 469z" />
<glyph unicode="D" horiz-adv-x="2574" d="M0 1573v74l49 49h123q129 -98 271 -98q0 197 122 246h50l98 -98l-49 -173h24q1072 -56 1549 -196q369 -132 369 -467q0 -176 -541 -615l-369 -147q-398 -123 -934 -148q-614 60 -614 246l-74 98v25q246 230 246 811zM418 270q172 177 172 418q-38 271 -123 271l-49 -394 l49 -49l-49 -98l25 -74zM516 1229q271 -322 271 -590l-123 -467l49 -49h172q893 0 1451 615q98 147 98 221v24q0 336 -1033 443l-24 -25h-148l-24 25l-25 -25h-369l-172 -24v24q-123 -39 -123 -172z" />
<glyph unicode="E" horiz-adv-x="1577" d="M0 293q343 422 880 694q187 53 187 320q266 347 747 347l26 26q127 0 267 -133v-107q-318 -293 -480 -293h-107v53l267 240h-107q-209 0 -373 -266q263 -109 267 -161v-53q0 -73 -294 -107v27l-26 -27h-27l-27 27h-26q-518 -137 -881 -533v-27q0 -72 294 -160h80 q241 0 773 213l27 -26v-54q-103 -160 -747 -293q-720 48 -720 293z" />
<glyph unicode="F" horiz-adv-x="1489" d="M34 1160v63q670 596 1098 596q407 -52 407 -220l-31 -188v-94h31q938 157 1254 157v-32l32 32h188v-94q-1725 -174 -1725 -439q-125 -118 -174 -286l112 35l188 31l62 -94q-105 -96 -522 -185q-328 -442 -638 -442h-31l-94 94v31l313 157q431 462 628 816h-63l-690 -95 q-197 0 -345 157zM410 1286q0 -63 283 -94l94 31v-31l31 31h251q219 0 219 345l-94 63l-157 -32v32q-274 -71 -627 -345z" />
<glyph unicode="G" horiz-adv-x="2333" d="M76 421q0 455 1112 1232q187 120 541 180v-30l30 30h120l30 -30l30 30h30q223 -111 240 -180v-211q-266 -326 -330 -330h-90l-60 60v30q240 249 240 361l-180 60h-30l-120 -30l-121 30q-460 -250 -751 -481q-451 -455 -451 -691q37 -136 271 -271l30 30l150 -30h30 q445 0 1082 421l30 90l-90 30l-331 -90l-30 30h-30l-180 -60q-180 70 -180 120v30q40 120 270 120l30 -30v-30l481 90q391 -69 391 -150v-60q-306 -367 -1112 -631l-331 -60q-721 81 -721 421z" />
<glyph unicode="H" horiz-adv-x="1569" d="M59 326v23q163 228 163 325l-70 93q0 43 209 117q233 483 233 604h-23q-93 0 -93 70q52 122 232 302h47l93 -93q-117 -395 -349 -883l23 -24q59 3 581 721q198 186 326 186h46q101 -57 140 -163l-256 -767h23l582 93l116 -23q0 -70 -581 -140q0 -37 -210 -69 q-93 -194 -116 -372l70 -70v-70q0 -126 -93 -186q-186 0 -186 93q0 151 163 558l-24 23h-23l-349 -46l-93 23h-46l-256 -395l-116 -23q-163 55 -163 93zM710 860q89 -69 209 -69h233q209 309 302 837l-23 23h-47q-474 -399 -674 -767v-24z" />
<glyph unicode="I" horiz-adv-x="1625" d="M66 98q0 140 811 246l25 25l98 -25h49l-24 246l270 860h-24l-664 -270v-123h-25q-117 0 -196 123q-123 0 -123 74q0 98 123 147l123 -24l98 49l24 -25h25q410 172 1278 344h50q0 -40 147 -98v-49q0 -42 -147 -74l-74 74h-49q-148 -15 -148 -74l-24 25h-25 q-118 0 -418 -811l-25 -173l123 -270v-25q0 -49 -491 -73l-443 -172v24l-221 -49q-112 48 -123 98z" />
<glyph unicode="J" horiz-adv-x="802" d="M-115 1022v18q0 47 171 68h51l120 -16q597 394 597 546l257 205h68l52 -52q-122 -172 -223 -238q-200 -239 -256 -239l18 -18v-34l-188 -342l34 -154v-34q0 -108 -188 -359l-35 -102h17q111 0 308 240l68 16q86 -12 86 -50v-18q-97 -162 -444 -358q204 -209 204 -341v-68 q0 -243 -341 -292q-99 105 -102 206l16 171l-16 17l34 289q0 46 -172 120v52l18 16v18q-102 22 -102 50v18q0 56 256 68q0 34 102 52l103 341v52q-10 40 -120 84l-290 -34zM278 -36l17 -16l-17 -86v-170q0 -131 68 -154h34q86 115 86 170v52q0 121 -154 238zM432 1022 l17 -16h34l34 86v34q-62 -32 -85 -104z" />
<glyph unicode="K" horiz-adv-x="1425" d="M59 -108q114 529 707 1640q0 158 198 311h85l85 -85q-453 -668 -509 -877q-50 0 -57 -141v-28q124 0 622 283h113l85 -85q0 -189 -594 -340q0 -56 -169 -56v-57l311 -85l85 29q0 -64 339 -113l28 -29v-113l-113 -28l-452 113l-57 -57q0 77 -339 142q-75 0 -170 -452 l-28 -29h-113z" />
<glyph unicode="L" horiz-adv-x="1817" d="M84 627v63l209 104q429 341 669 816q0 69 188 188h21q113 0 147 -84q-607 -802 -795 -1129q-136 -189 -136 -247v-84l261 60v-21h251l84 21l21 -21l104 21h210l83 21l21 -21l105 21h146l104 -105v-21l-62 -63h-42q-146 0 -146 42l-21 -21h-21l-21 21l-21 -21h-42l-21 21 l-21 -21h-21q-722 0 -1045 -146l-84 -21q0 34 -48 52q0 83 -63 83q0 189 174 346l63 83v42l-126 -42h-62z" />
<glyph unicode="M" horiz-adv-x="2270" d="M55 294v41q48 102 102 102l121 -61q457 0 894 589q81 124 81 203h-20q-145 40 -203 142v183q41 203 162 203q325 -31 325 -284l-20 -21l20 -61l82 -20h81q110 0 345 386l102 81h122q122 -13 122 -61v-122q-264 -386 -447 -386q-366 -458 -366 -873q27 -203 203 -203h122 q196 65 325 203h102l40 -41v-20q-295 -264 -447 -264h-182q-346 66 -346 264q0 327 264 853l-20 20h-41q-168 0 -223 -182q-293 -490 -894 -732h-20v21l-203 -41q-183 25 -183 81zM1233 1391l61 -61l41 41q-21 122 -61 122l-41 -61v-41z" />
<glyph unicode="N" horiz-adv-x="1479" d="M0 120q0 122 336 624l384 719l120 -24l24 24h24l47 -72q-383 -594 -383 -1103q0 -144 168 -144q197 0 671 887q168 301 288 816q192 0 192 -96q-192 -506 -432 -935q-286 -571 -599 -792l-192 -24q-240 0 -240 216l-24 120l24 24v24l-24 72q-67 0 -192 -408h-96z" />
<glyph unicode="O" horiz-adv-x="1720" d="M0 609v158q196 662 662 662l26 -26h27l26 26h26q212 -91 212 -132v-53l-53 -53h-79l-80 53h-185q-344 -195 -344 -635h-26q166 -450 503 -450q583 0 793 556l27 105q0 260 -424 556q-387 230 -846 318v53l79 79l26 -26v-27l27 27h26q1138 -394 1138 -636q62 0 159 -291 q0 -563 -688 -847l-26 27l-27 -27v-26l-26 26l-133 -26h-53q-372 0 -582 265q-97 0 -185 344z" />
<glyph unicode="P" horiz-adv-x="1674" d="M0 582l28 27v28l277 -28h110l277 28q-692 744 -692 1080l166 111l1579 -222q637 -157 637 -415q0 -276 -1191 -582h-83v-55q102 0 360 -360v-111q-83 0 -83 -83h-166l27 28v27q-203 0 -387 416h-277l-28 28l-28 -28h-166l-111 28l-27 -28h-28q-194 38 -194 111zM222 1634 q0 -380 581 -831h28l28 139v332l-28 166q0 111 138 111l-27 28v27l-28 -27l-332 55l-28 -28l-139 28h-193zM1053 831l27 -139l28 28h28l27 -28h28q0 45 499 167l415 304v83q-27 152 -748 305l-28 -28l-249 56l28 -83l-55 -499l27 -166h-27z" />
<glyph unicode="Q" horiz-adv-x="1593" d="M42 943q0 285 212 614q0 283 213 283q397 -61 850 -614q94 -141 94 -259v-24q0 -360 -330 -779v-24q82 -118 236 -118h71l165 95l71 -71q0 -103 -378 -189q-301 90 -378 189l-165 -24h-24q-287 0 -448 260q-189 225 -189 661zM207 801q87 -417 354 -637l24 -24h165l47 48 l-141 354q0 70 141 141q103 0 166 -354h23q236 249 236 614q-20 170 -188 330h-24v-141q0 -205 -165 -307h-24l-71 71q71 111 71 425q-62 151 -118 165h-142q-277 0 -354 -567l24 -94z" />
<glyph unicode="R" horiz-adv-x="1479" d="M0 317v53l53 53h79l132 -27q159 749 159 1005q0 132 -264 343v53l52 53h133q152 -202 740 -317q502 -140 502 -397v-105q0 -310 -608 -661q-212 -64 -212 -106q0 -53 608 -185v-26l-53 -53h-26q-185 0 -185 53l-26 -27h-27q-145 80 -423 80l-238 -53q-330 264 -396 264z M449 423h27l26 79h-53v-79zM476 529h26l53 343h-53l-26 -317v-26zM661 370h26q430 96 714 529l26 132v132q-180 291 -608 291h-26l-132 -27v-26l79 -661h-26l26 -26v-27z" />
<glyph unicode="S" horiz-adv-x="1366" d="M7 820v58q106 808 606 808h29q318 0 318 -260l-87 -86h-58q-137 173 -259 173q-203 0 -347 -578q0 -86 895 -144q145 -84 145 -231l86 58l29 -29v-202q-233 -98 -664 -433l-318 -87q-173 38 -173 87v29l751 433l29 144v29q-18 86 -231 86l-29 -28h-29l-29 28l-115 -28 q-523 46 -549 173z" />
<glyph unicode="T" horiz-adv-x="1015" d="M-181 1141q0 279 1321 500l320 40l20 -20h20l901 180l20 -20v-20q0 -74 -480 -160l-20 -20l-20 20q-1882 -266 -1882 -540l20 -80l-59 -60zM520 240l280 881l-20 60q20 120 60 120h80q100 -58 100 -120q-300 -768 -300 -841v-140l60 -80v-40q-9 -41 -100 -80 q-160 74 -160 240z" />
<glyph unicode="U" horiz-adv-x="1200" d="M0 233v148q0 336 254 848q142 190 191 190q127 -27 127 -63v-85q-424 -351 -424 -890v-106q35 -84 149 -84q252 0 614 572q371 611 424 868q-128 50 -128 85v63l64 64l191 -21l21 -191q-125 -523 -784 -1398l-233 -212v21l-297 -42q-169 134 -169 233z" />
<glyph unicode="V" horiz-adv-x="1228" d="M0 417l20 834l59 40q120 -20 120 -60v-59l-80 -477l20 -99l-20 -60q0 -397 238 -397q284 0 874 1351q105 233 259 357q139 -20 139 -60v-39q-259 -150 -259 -318q-590 -1250 -794 -1331l-119 -99h-80l-20 20l-19 -20h-20l-60 20l-59 -20q-199 169 -199 417z" />
<glyph unicode="W" horiz-adv-x="1814" d="M0 260q0 201 571 1427l26 26h182l52 -52v-52q-597 -896 -597 -1323l181 -52l156 311l26 26h156l78 -78l-78 -259l104 -52q257 0 571 415q233 507 233 1012l-52 208l26 26h78q78 0 130 -311q0 -1103 -805 -1532h-233q-167 0 -260 78l-182 -26h-77q-158 0 -286 208z" />
<glyph unicode="X" horiz-adv-x="1639" d="M0 190v47l664 427q-94 857 -142 950q46 108 95 118q142 -48 142 -94v-262l-23 -94l71 -451h24q1255 996 1352 996l119 -23v-24l-878 -665q-546 -424 -546 -569q96 -278 332 -380l72 -95v-24l-48 -47h-47l-190 71l-24 -24l-166 167l24 23v24q-108 237 -143 237l-332 -332 l-24 24h-23q0 -57 -214 -71q-95 35 -95 71z" />
<glyph unicode="Y" horiz-adv-x="1716" d="M-19 15q15 77 180 77l206 -26v-51l-180 -52v-77q214 -309 593 -309q409 83 592 361l103 309v154l-51 155l25 26v25q-51 232 -103 232q-101 -335 -335 -335h-25l-181 26v77q0 541 129 541l155 -51l-103 -386v-26h25q361 370 361 618h26q154 -26 154 -77q0 -670 103 -670 l-25 -77l25 -232q0 -300 -489 -670l-309 -103h-232q-52 52 -206 52q-438 314 -438 489z" />
<glyph unicode="Z" horiz-adv-x="1974" d="M-109 -33q0 228 438 554q-175 60 -175 117l87 88h322q700 241 700 554l-87 30q-351 -23 -1139 -497q-133 57 -146 117v29q24 76 963 497l30 -30l350 88q245 -37 350 -146q0 -80 -292 -526l59 -58v-88q-325 0 -993 -379l-175 -234v-87q0 -58 175 -87q239 50 1402 525h29 q117 -44 117 -88v-29q-218 -175 -672 -263q-79 -107 -876 -321q-288 0 -467 205h30z" />
<glyph unicode="[" horiz-adv-x="768" d="M89 -228q55 118 183 805q220 640 220 861v92q-256 74 -256 146v18q0 92 293 147q109 -108 109 -220h55l110 37l19 -18l128 18h201l55 -55v-18l-36 -37h-238l-110 -37l-55 19q-147 0 -147 -202q-32 0 -128 -476q-238 -685 -238 -989q89 -55 238 -55h110l513 110h55l36 -36 q-39 -55 -659 -183l-18 -19h-55l-19 19l-18 -19h-128v-18l36 -165q-23 -92 -55 -92l-73 19l-73 -19q-55 12 -55 147v18l18 92z" />
<glyph unicode="\" horiz-adv-x="1721" d="M22 1599l10 54l95 66l27 -4q559 -502 1237 -1497l94 -100l112 8l84 -154l-9 -54q-42 -76 -176 -52q-136 69 -343 421q-581 830 -1109 1280z" />
<glyph unicode="]" horiz-adv-x="636" d="M-707 70v37q0 203 221 203h56q149 -16 459 -405h19q331 978 331 1472v74h-18l-515 -110q-129 32 -129 73v19l55 55l19 -19q476 47 772 295q129 -18 129 -55q0 -65 -129 -203q-92 -676 -350 -1472q-32 0 -73 -202v-74l133 -239v-37l-74 -74h-55l-19 19l-18 -19h-18 q-166 104 -166 185l70 110q-265 515 -460 515h-19l-73 -74v-18q0 -184 239 -184l92 18v-18l19 18h18l37 -36q0 -37 -74 -37l-18 -19v-18l-92 18h-19l-110 -18q-240 81 -240 220z" />
<glyph unicode="^" horiz-adv-x="961" />
<glyph unicode="_" horiz-adv-x="1835" d="M-39 90v72l36 36v35q609 -47 609 -107l287 72v-36l35 36h36l36 -36h36l681 107h71l72 -71v-72q-179 -10 -179 -108l-143 36l-538 -107v36l-36 -36h-36l-35 36l-36 -36h-430l-144 -36q-322 107 -322 179z" />
<glyph unicode="`" horiz-adv-x="682" />
<glyph unicode="a" horiz-adv-x="965" d="M-16 383l4 132q285 290 586 433l135 -28q18 -460 81 -460l186 80l7 -152q0 -54 -166 -145v27l-27 -27q-122 0 -271 136h-27q0 -132 -244 -217q-108 40 -108 81v81l54 190l-156 -131h-54z" />
<glyph unicode="b" horiz-adv-x="1384" d="M-7 387l14 143h22l7 8q115 33 269 243q498 1062 867 1062q162 -26 174 -87v-43q0 -169 -651 -824q-368 -318 -368 -542q11 -195 108 -195q161 0 473 375h109q79 -65 151 -65q86 11 226 83l21 -22l14 -93q0 -55 -231 -116l-246 -4q-231 -281 -473 -310h-65h-9 q-282 0 -285 432q-20 -45 -127 -45zM565 976h22l304 325q260 313 260 390q-275 -175 -586 -694v-21z" />
<glyph unicode="c" horiz-adv-x="995" d="M-19 399l3 126q314 282 606 439h118l89 -89v-59q-271 -158 -394 -335l39 -108h89l488 161l7 -120q-94 -140 -495 -278q-322 0 -458 241l-62 -7z" />
<glyph unicode="d" horiz-adv-x="1310" d="M-54 410v101q0 55 183 81q115 452 1054 1079q347 151 451 151q201 -67 201 -125v-101q-928 -1000 -928 -1129v-75l125 -3l313 146l9 -135q-162 -157 -347 -184h-50q-132 0 -251 125q0 271 652 904l327 376v25q0 51 -76 51q-431 -122 -727 -402q-468 -398 -527 -652 q200 -61 200 -101v-50q0 -137 -125 -201q-126 0 -292 111q1 -1 1 -3q0 -14 -167 -14z" />
<glyph unicode="e" horiz-adv-x="703" d="M0 476v88l22 22v22l65 31q120 331 243 331v-22l22 22h22q100 -43 110 -89v-131q0 -111 -177 -265v-44h155l180 91h66v-133q0 -61 -467 -157l-21 22l-23 -22q-154 114 -154 220q-18 -16 -29 -16q-14 0 -14 30z" />
<glyph unicode="f" horiz-adv-x="573" d="M-224 -478q52 536 215 857q-159 11 -159 46v20q254 97 290 259q397 811 531 857h163l42 -41v-20q0 -115 -490 -816l-21 -61h21l143 -122l155 35q-22 -140 -123 -164l-35 11q64 -49 64 -188q-189 -796 -510 -796h-143q-109 0 -143 83v40zM-101 -396v-82l102 -19h40 q207 116 286 325q102 168 102 284v103q0 125 -205 266q-200 -225 -325 -877zM286 786h20l286 469v20h-41l-265 -469v-20z" />
<glyph unicode="g" horiz-adv-x="871" d="M-226 -502q120 287 888 974q108 101 108 244l-21 65l-304 -325l-216 -173h-21q-114 0 -130 65l21 22v21h-21q-11 -18 -121 -18l-23 22v108q0 44 130 44l576 364h174q108 -55 108 -174v-42l-65 -158l6 -21h21l21 -22v-65q-186 -121 -655 -693l-346 -325q-130 0 -130 87z M164 -155v-44q104 73 260 302h-22q-54 -2 -238 -258z" />
<glyph unicode="h" horiz-adv-x="1287" d="M-52 392v129q0 39 329 105q403 365 863 1209q173 -22 173 -65v-43q-263 -500 -799 -1144l-151 -194v-22q350 281 453 281h65q58 -2 133 -182l87 -3l196 84l43 -64v-87q0 -43 -221 -123q-346 17 -346 180h-21q-49 0 -605 -453q-116 0 -151 86v22l173 281h-65 q-55 -19 -134 -19z" />
<glyph unicode="i" horiz-adv-x="416" d="M-27 406v116l219 246h70l69 -69v-46l-93 -139v-47l47 -46l159 131l16 -159q-84 -108 -222 -134q-185 23 -185 93l-56 31zM285 1023v23q3 51 231 139q139 -23 139 -69v-47q0 -58 -231 -115h-70z" />
<glyph unicode="j" horiz-adv-x="730" d="M-219 1487v18q0 48 176 70h18l104 -105l-52 -53q-246 0 -246 70zM27 31q0 150 456 351q-110 491 -193 491q-53 88 -141 88v53q11 52 141 52q158 0 306 -619q137 61 154 93l18 -18v-87q-29 -53 -162 -106v-70l17 -175q-52 -509 -245 -509h-71q-280 64 -280 456zM149 -39 q0 -165 193 -280h18q97 0 140 403v157l-35 36q-316 -179 -316 -316z" />
<glyph unicode="k" horiz-adv-x="973" d="M-65 410l7 114l52 10q10 -5 21 -5q126 0 383 684q141 264 488 637h85l42 -43v-42q-55 -239 -297 -637q-49 -13 -127 -170q127 -43 127 -85v-21l-149 -297q115 -85 277 -85q26 0 53 2l170 43l21 -21v-43q0 -58 -234 -85l-74 -2l-21 -22h-22l-297 107q-54 -107 -170 -107 h-21l-21 22h-21l-64 -64l-84 12q-47 49 -47 93v5l-55 -21zM292 491l21 -21h21l21 21v43h-21zM355 873q461 536 531 786h-21q-313 -275 -425 -595q-85 -121 -85 -191zM419 640h64l21 106l-85 -85v-21z" />
<glyph unicode="l" horiz-adv-x="1047" d="M-42 442v69q460 169 611 337q657 884 964 991q160 -27 160 -80q0 -139 -669 -670q-375 -328 -375 -508v-81q17 -80 214 -80l237 106q-8 -57 -8 -82q0 -18 4 -17q2 0 5 3q-107 -108 -264 -144h-161q-214 79 -214 348l-480 -248zM1078 1277h26q0 53 81 53v54z" />
<glyph unicode="m" horiz-adv-x="1503" d="M-50 399v108l122 107q225 239 324 239h65l65 -65v-44l-86 -151l21 -22h22q409 347 520 347q108 0 108 -174l151 109q152 0 152 -109l-87 -151v-65h44l143 20l22 -21l8 -107q-22 -65 -130 -65h-43q-260 29 -260 151l-195 -195h-152l-65 65v44l44 151q-51 0 -303 -281 l-87 -22h-130q-43 0 -65 217q-73 -74 -186 -108z" />
<glyph unicode="n" horiz-adv-x="1198" d="M-84 410v75l274 237l225 225l150 -100l-175 -424h25q401 376 549 399l175 -75l-50 -229l75 -25q-8 4 36 37h25l21 -102q1 -9 1 -17q0 -89 -108 -93q-250 25 -250 105v175h-25q-79 0 -424 -425l-150 -50l-175 75l100 350q-160 -163 -274 -163z" />
<glyph unicode="o" horiz-adv-x="772" d="M-69 491q0 37 111 109l211 235l94 70h94q117 -67 117 -141h24l204 -201l23 -24v-46v-11q0 -249 -321 -352l-71 -23q-234 0 -375 282l-103 -9zM277 506q28 -211 93 -211h24q204 35 204 144v7q-107 154 -275 154v-24z" />
<glyph unicode="p" horiz-adv-x="1029" d="M-425 -527q0 114 707 1104q68 83 68 158l-353 -344l-4 130q223 299 560 552q112 -38 112 -113q-241 -444 -631 -969v-22h23l338 428q338 374 473 428q203 0 203 -180v-45l-1 -43l-23 -81v-113q-136 -169 -201 -169h-68l-68 67v91q181 187 181 293v22h-23 q-168 -72 -879 -946q-197 -316 -254 -316q-160 23 -160 68zM-54 -144v-23q65 0 65 91v22h-22z" />
<glyph unicode="q" horiz-adv-x="729" d="M-136 -514q0 178 263 736l18 52l-53 88v17l53 53l87 -17l23 42h-35l-105 -35h-35q-94 0 -123 70v18q276 333 438 333q281 -18 281 -70q0 -152 -193 -263l-75 -60v-18h52q225 53 268 100h35v-88q0 -29 -57 -47q0 -35 -123 -35q0 -35 -88 -35q0 -31 -193 -53l-17 -52 l17 -245q-108 -562 -315 -562q-123 42 -123 71zM-13 -444q193 180 193 473v35q-41 -26 -141 -333q-38 0 -52 -175zM237 615h18l52 18v35h-35l-35 -35v-18zM325 650l88 70h-35l-53 -17v-53z" />
<glyph unicode="r" horiz-adv-x="770" d="M-59 420v84q279 313 419 313h86l84 -84l-20 -107v-43q12 -127 63 -127q77 0 191 85h43l-11 -121q0 -63 -266 -155q-99 0 -233 212v106h-21q-187 -206 -292 -206z" />
<glyph unicode="s" horiz-adv-x="1130" d="M-39 513l218 260l-28 137v28l83 82h27q275 0 275 -220q329 -188 329 -301h137l137 27l28 -27l4 -88q0 -62 -306 -132q-55 -192 -110 -192h-137l-110 110q0 160 110 274l-302 192l-348 -281z" />
<glyph unicode="t" horiz-adv-x="845" d="M-58 417v55q0 78 111 135q114 71 565 505q-501 83 -501 166v28l84 111l139 -28h111l139 28v-28q639 106 639 278l111 84q167 0 167 -167l750 111v-28l28 28h111l28 -28l28 28h28q472 -18 472 -111l-83 -28l-278 28l-111 -28l-139 28q-715 -89 -1223 -306 q-750 -856 -750 -1028h27l387 255l84 28l27 -28v-100q0 -80 -518 -386q-230 24 -230 120v56l84 277q-102 -115 -231 -115q-56 4 -56 60z" />
<glyph unicode="u" horiz-adv-x="1160" d="M-25 539l451 356h55q55 0 55 -82l-247 -357h27q208 0 577 412h110l55 -55l-110 -247q29 -104 53 -104q8 0 15 11h28l82 55l110 -27v-110q-27 -83 -165 -83h-55q-38 -4 -72 -4q-216 0 -216 152q-296 -220 -521 -220q-112 0 -112 112q0 53 25 130q-86 -79 -82 -77h-55z" />
<glyph unicode="v" horiz-adv-x="972" d="M-41 479q99 102 190 322h24l25 -24l25 24h24l49 -49l-49 -569h25q207 158 371 494h99l123 -147h51v-25l24 25h74v-100l-49 -49h-100l-198 49q-289 -428 -420 -445q-173 0 -173 98l46 359q-65 -56 -104 -56q-50 0 -57 93z" />
<glyph unicode="w" horiz-adv-x="1021" d="M-53 191v19l20 286l-20 153q29 76 58 76q142 0 171 -95l-57 -286v-115h38q85 55 325 401q133 -19 133 -57v-19q-32 -224 -76 -268l19 -95h19q190 0 325 420q84 153 114 153l38 -39l58 20l38 -58l-38 -133q-147 -243 -306 -478q-81 0 -210 -76q-188 68 -267 153l-134 -96 q-248 0 -248 134z" />
<glyph unicode="x" horiz-adv-x="1073" d="M-279 -222q0 136 565 607v22l-22 108q-200 -118 -272 -118q-40 0 -40 37q0 21 13 55l364 265l174 -43l-22 -109v-21l217 195h109l43 -44v-43l-326 -282v-22l22 -65h87q152 0 434 217h22v-152q-116 -145 -239 -195v21l-260 -65l-174 44l-22 -22l-43 43q-223 -81 -543 -499 h-21z" />
<glyph unicode="y" horiz-adv-x="966" d="M-508 -372q75 205 801 514q185 65 185 267l-144 -62q-123 0 -205 103l-108 -71h-76l-20 20h-20q0 105 142 195q136 184 246 184q82 -30 82 -61l-41 -165v-20h21q262 213 513 719l124 -21v-41l-247 -493q-123 -257 -134 -361h20q92 33 368 206l20 -20v-75 q-21 -66 -418 -243q-113 -90 -184 -492l82 -267l-41 -42l-309 42l-20 -21q-637 34 -637 205zM-343 -372q0 -82 308 -82h61l21 -20l20 20h21l20 -20h21l123 20v-20l62 20l-21 144l82 390h-20q-529 -216 -698 -452z" />
<glyph unicode="z" horiz-adv-x="904" d="M-801 -325q0 317 761 406h68v-17l-34 -34h-17l-17 17q-659 -110 -659 -406q0 -135 220 -186v-17l-34 -34l-34 34l-51 -17q-186 65 -186 186zM-141 -460l524 372q322 351 322 609v33q0 125 -51 136q-51 -184 -152 -237h-68l-51 51v50l77 179l-483 -331l-84 -17h-17v17 q369 379 778 575l-50 -198l67 46q152 0 152 -304q0 -343 -541 -761q-306 -220 -389 -220h-34z" />
<glyph unicode="{" horiz-adv-x="684" />
<glyph unicode="|" horiz-adv-x="532" d="M97 510q45 219 68 861l-45 135l22 23h68l23 -23l22 23h23q54 0 91 -181l-23 -68l23 -68l-91 -860l68 -317v-23l-45 -45h-113q-91 0 -91 543z" />
<glyph unicode="}" horiz-adv-x="684" />
<glyph unicode="~" horiz-adv-x="1196" />
<glyph unicode="&#xa1;" horiz-adv-x="682" />
<glyph unicode="&#xa2;" d="M101 557v45q88 586 428 586v360q0 45 67 45q90 -23 90 -90l-45 -383l45 -45v-45q-77 0 -157 -653v-45q143 8 495 270h23l22 -22v-23q-279 -315 -495 -315l-90 -90v-315l-68 -68h-22l-45 46v22l22 23l-22 22v45l22 23l-22 22v23l22 224q-200 0 -270 338zM259 467l90 -113 h45l90 563l-23 91q-112 0 -202 -406v-135z" />
<glyph unicode="&#xa3;" />
<glyph unicode="&#xa4;" />
<glyph unicode="&#xa5;" />
<glyph unicode="&#xa6;" horiz-adv-x="532" />
<glyph unicode="&#xa7;" horiz-adv-x="1239" d="M100 532q118 370 434 671q-232 113 -355 257v118q178 237 395 237h138l20 -20h20l-40 -197h-59q-40 0 -40 59h-59q-99 0 -178 -99v-19q79 -112 474 -356l158 -276v-99q0 -202 -474 -316l-19 -20q-103 0 -119 60v39q0 51 395 138l59 119q-59 184 -177 217 q-229 -107 -356 -434l-20 -79v-20q0 -97 435 -237l99 -119v-138q0 -294 -455 -612h-79l-59 60v39q40 79 119 79l59 -20q235 255 257 454q0 155 -336 237q-237 122 -237 277z" />
<glyph unicode="&#xa8;" horiz-adv-x="682" />
<glyph unicode="&#xa9;" horiz-adv-x="4452" d="M95 -322q35 173 59 173q36 -5 36 -14v-14q-59 -58 -59 -159l14 -9h9q46 0 109 109q8 0 32 64q16 0 36 68l-18 -9l5 -14q-8 -22 -28 -22l-4 4v23l4 5l-4 4v5q28 50 36 50h5q41 0 41 -32q0 -18 -82 -164q-69 -122 -132 -122q-59 0 -59 54zM123 533q19 12 70 18 q91 47 188 193v9h-5q-74 -38 -103 -38h-19q-34 0 -37 15v9q0 14 159 51q63 37 211 202h19l4 -5h5q-5 -17 -117 -150q0 -10 -52 -70q0 -25 -23 -37v9l42 84l-47 -42l5 -5v-4q0 -43 -84 -136q-105 -122 -146 -122l-9 -9h-47q-14 4 -14 28zM143 1323q0 143 74 143l10 -16v-5 q-42 -31 -42 -111v-26h27l73 95q37 0 37 -11l-5 -47h5q137 119 190 221l16 5v-5q0 -30 -21 -58q0 -17 -111 -148q-63 -68 -105 -68h-11q-10 0 -10 16h-6q-34 -43 -79 -43q-42 11 -42 58zM163 41v27q0 69 27 87h32q25 0 32 -18v-14l-5 -5v-4l-36 9l-13 -50l4 -14l-4 -4v-5 q0 -32 31 -32v-4q56 8 59 18q0 100 46 100h13q16 0 46 -23l77 18q32 0 32 -31h4q22 22 50 22h19q9 0 9 -27h9v9q36 16 36 23q46 0 46 -27l-5 -46h5q11 0 90 77h32q9 0 9 -22h9q16 13 55 13h5q9 -2 18 -22l50 18q36 -11 36 -46q34 0 86 73q32 -4 32 -14q-27 -52 -27 -72h9 q74 68 104 68h5q27 -3 27 -14v-32l5 -22h9l91 77q27 -5 27 -14v-4l-23 -59l5 -5q19 5 36 23q49 45 59 45l5 -4h4l14 4l5 -13l-19 -37q7 -18 14 -18q17 0 82 64l27 9q41 0 41 -41l14 -9q30 0 154 173q23 -5 23 -19q-82 -129 -82 -150v-22q0 -55 32 -55l4 -4v-4 q-9 -19 -22 -19q-50 0 -50 95h-5q-16 -27 -41 -27h-32l-4 5h-5q-24 -41 -31 -41h-14q-17 0 -18 50h-5q0 -16 -45 -37h-23q-50 12 -50 37h-4q-27 -41 -64 -41q-46 8 -46 32h-4q-33 -28 -64 -28q-41 0 -41 73l-68 -59l-36 -9h-5l-4 4h-5l-4 -4l-28 27q0 -12 -45 -18 q-33 0 -50 45q-13 0 -54 -59h-28l-13 14v9l9 46q-37 -24 -55 -73h-13q-24 0 -28 13l9 46l-63 -59h-41q-14 3 -23 32l5 41l-50 -64l-18 -5h-19q-6 0 -13 19l4 36l-41 -55l-13 -4q-18 0 -18 27h-5l5 23v18l-10 9h-4l-45 -9l4 -41q0 -49 -91 -49l-23 8l-31 -8v4l-37 -9h-9l-4 5 l-5 -5h-4q-35 0 -46 54zM203 228v9l117 291l-10 28v10q0 14 33 14l33 60v15h14v-5q-28 -57 -28 -75v-9l9 -24h10q36 0 117 108h19l9 -10v-4l-33 -80v-5l24 -4q36 0 136 140q119 134 150 263l14 9h18l5 -4h5l-5 -24l5 -5v-4q-13 0 -28 -52q-122 -173 -122 -225 q-8 -33 -19 -33l-5 5v5l14 42l-4 14h-5q0 -11 -47 -66l-70 -89l-5 5q-38 -14 -65 -14q-38 5 -38 23h-5q-40 -28 -61 -28v-18q0 -33 -51 -146q-49 -131 -113 -131zM231 242q33 0 84 122h10v23q32 53 32 108v5q0 11 -23 14q-32 -55 -80 -202q-6 0 -23 -70zM295 -299 q0 35 18 41h41q36 -26 36 -55l-4 -23l4 -4l5 4l14 -4q88 17 122 54q59 0 59 -40v-28l14 -4q9 0 77 68q24 23 41 23h14q24 0 36 -23v-9q-17 -105 -32 -105v-4h5q0 9 22 9q0 14 60 63q0 16 45 60h23l9 -10v-9l-50 -59l27 -13l18 4l5 -4h4l9 9l10 -9q-15 -28 -55 -28 q-39 5 -55 23q0 -7 -100 -91q0 -13 -45 -63q-12 -35 -50 -73q-23 4 -23 18q18 38 96 141l41 100q-49 -55 -73 -55l-27 14l-46 -9q-36 0 -36 59q-41 -37 -41 -64l-9 -9q-32 5 -32 14v9l18 32h-4q-87 -29 -100 -55l-14 -4l-32 13v9q10 0 28 28q-32 0 -73 41v18zM327 64l9 9v4 l-9 -9v-4zM327 -304l22 -18h5v18l-18 18zM345 27h9v-4q23 6 23 32v4h-5q-8 0 -27 -32zM390 664v14q21 42 28 42v-5l-18 -51h-10zM433 1302v21q7 80 26 80h32l11 -11v-5q-27 -28 -27 -53v-37l11 -16q34 0 68 90l6 5h5l5 -5h6l15 5l6 -5v-5q0 -22 -27 -74h16q68 32 111 116 q60 86 68 158v27h22l5 -6l5 -16h5q-11 -107 -142 -274q-49 -47 -116 -47l-63 -6v6l-6 -6h-5q-30 0 -37 58zM643 514q10 94 33 94h5v-10q-14 -20 -14 -65l14 -19h14q0 14 19 14q0 9 37 38l89 154q18 60 42 99q28 79 38 79h18q10 0 10 -14q-56 -95 -103 -244v-18l4 -24h14 q31 20 57 94l18 19h5l10 -10l4 5h5l9 -9q-33 -56 -33 -75h5q35 0 61 98h28l14 -14v-5q-37 -75 -61 -150l5 -23h5q92 86 220 248q40 164 75 164q52 0 52 -42q9 0 9 -23l-103 -94l-28 -103q37 -5 37 -23q-8 -45 -33 -85h10v-4q77 65 98 65q29 0 52 47h9l5 -5l4 5h5l10 -9v-5 q0 -20 -33 -80v-9l9 -9h5l23 4l5 -4v-5q-13 -20 -42 -33h-5l-5 5h-4l-5 -5l-14 19l-5 -5h-14q-28 0 -28 33l-56 -47h-10v5l-46 -5h-29q-14 -35 -37 -52l-23 10v47q89 129 89 150l4 28v4l-173 -196q-47 -37 -47 -94l5 -19q0 -73 -108 -108h-5l-5 5l-149 -51q-38 5 -38 18 q90 28 202 136q75 67 75 89v5l-5 23l9 61l-56 10l-28 -24h-38q-23 12 -23 38h-9l-43 -66q-25 -51 -103 -51zM681 -340v-9q10 2 18 23h-4zM760 1313v16q0 77 58 153q32 -6 32 -16q-27 -32 -53 -116v-11l21 -31q10 0 48 47l5 -5h5l21 5l6 -5v-32q-22 -28 -22 -47q38 0 159 158 q21 -8 21 -16v-16q-25 0 -32 -37l-95 -110l-58 -16h-21l-26 26l5 5v6q-46 0 -74 42zM817 308q131 32 131 112v24q-131 -123 -131 -132v-4zM1066 1255q0 22 48 26q0 -16 21 -16v-10l-21 -21h-11q-28 0 -37 21zM1099 -354q0 59 41 59h18q12 0 23 -45l-5 -5h-18l-13 9h-5v-18 q5 -13 27 -13h9q34 0 87 59q0 33 63 36q21 -14 73 -14q22 14 59 14q23 -3 23 -14v-13l-5 -32q57 59 82 59h14q10 0 13 -23q31 23 46 23h9l18 -18v-41h18l77 73l19 4h9l13 -13v-5q-14 -54 -31 -77v-9h4l50 50h18q18 -7 18 -37q26 8 64 37q36 -5 36 -23l-13 -36h4q36 0 123 86 h27l14 -14v-4q-41 -32 -41 -50l5 -14h13q85 68 136 68h14q9 -2 18 -22l-18 -46v-4h14q106 91 127 91l14 -19l-32 -63h13q35 0 100 77h14v-9h5l13 4l5 -4v-9l-46 -59v-9l9 -9q14 0 114 77l36 9h5q29 -13 45 -36q50 0 141 77q54 63 73 63q0 -9 13 -9l5 -4v-5 q-132 -118 -132 -168v-9l5 -5v-4l-5 -5v-4l23 -55l-23 -9q-21 33 -27 77l9 60l-64 -28l-54 5q-26 -37 -50 -37q-14 20 -14 37q-64 -59 -100 -59h-4q-41 0 -41 32q-25 -19 -64 -19h-9q-36 0 -36 37q-51 -41 -68 -41q-50 0 -50 41l9 36h-5q-13 -2 -100 -68l-27 -9 q-45 3 -45 18v23h-5q-40 -41 -77 -41h-23q-27 11 -27 27l4 14h-4q-35 -32 -59 -32h-18l-9 36h-5q-36 -68 -68 -68q-14 4 -23 32q11 15 18 64h-9q-4 -21 -54 -41q-55 2 -55 54q-13 -7 -50 -63h-4q-32 4 -32 13l4 41h-4l-59 -64h-28l-4 23v5l4 54h-4q-59 0 -73 -59 q-30 -32 -77 -32q-15 3 -41 32q-26 -32 -59 -32h-23q-63 0 -63 28zM1187 580q26 25 28 46v5h-5l-23 -37v-14zM1257 823q56 48 56 61q-7 19 -14 19q-21 0 -42 -80zM1282 1323v6q37 78 101 111q0 13 258 26q0 8 48 10q68 166 110 317l6 5h15q16 -5 16 -31q-9 0 -16 -48l6 -5 v-5l-79 -211h10q79 0 79 63q27 33 27 79l21 11q21 -6 21 -22l-32 -105l5 -5q275 51 275 110q4 68 79 180q43 47 84 47h37q23 0 32 -79q-11 -79 -42 -169h5q96 43 174 101q121 36 158 36q100 -16 100 -42l-15 -16q-51 32 -85 37l-84 -26v5q-25 0 -259 -137q-21 0 -42 -74 l-31 -89l5 -6h5l74 16q21 -8 21 -16q0 -18 -127 -42q-60 -174 -105 -174q-32 5 -32 16v5q50 31 58 63q12 0 21 37q14 0 21 48l-15 16v16q0 10 31 10q0 13 21 16v37q43 91 43 111l-6 5l-26 -11q-106 8 -106 32l-89 -48l-5 6h-6q0 -13 -158 -48q-39 0 -79 -158v-11l16 -15 q49 0 55 109l18 4l3 -83q13 -22 45 138h5l6 -5l5 5h5l16 -15v-21q0 -40 -53 -159v-63q16 -103 53 -137l26 -21v-11l-10 -10h-95l-5 5l-43 -11v6q-126 -25 -126 -48q-70 -72 -185 -137q-32 7 -32 16q106 110 164 121q26 17 26 48l-5 15l16 11q21 -9 21 -37q71 26 206 42v6 q-22 0 -58 216l-48 -11h-26q-18 0 -37 16q-33 -58 -79 -58h-16q-47 0 -47 48h-6q-28 -22 -63 -22l-37 16q-43 -26 -63 -26l-42 32l-48 -16l-63 16l-6 -6q-21 23 -21 42zM1290 -349l23 -14q12 0 36 37l-9 9h-41zM1330 1323l10 -10l22 5l31 -5q0 10 16 10q8 48 21 48h5l6 -5 l5 5h16l10 -11l-5 -52h11q13 3 63 79h32l10 -11v-5q0 -28 -16 -48v-10l16 -5q39 0 95 142v5l-253 -37q-80 -43 -95 -95zM1458 186v10q0 9 27 13l14 -9l5 5h9v-9h-9q0 -23 -32 -23zM1515 434v42q14 124 37 179q97 215 164 215q61 0 90 -70l4 -24q-47 -220 -169 -220 q-23 4 -23 14q-21 -14 -61 -14l-14 -19l5 -4v-5q-10 -13 -10 -56h-4q0 -127 93 -127t202 150h5v-14q-88 -155 -216 -155h-19q-84 0 -84 108zM1566 640q36 0 47 -14q10 29 24 29l4 -5h5l14 5v-10l-14 -51l5 -5h5q60 0 98 108l-9 14q32 9 32 65l-4 14h4q-9 36 -37 57h-33 q-20 -7 -66 -57q-8 0 -28 -51q-9 -1 -47 -99zM1576 584l9 10v4h-9v-14zM1667 1308q0 -26 22 -37q42 0 84 100l26 105h-5q-94 0 -121 -158l-6 -5v-5zM1890 64q3 54 18 54h18l5 -4h4l-4 -32v-23q36 -3 36 -9q35 0 55 73h4q36 0 36 -18l-13 -46v-13l13 -14q21 0 105 41h18 l36 -9l-4 -32v-5l4 -4v-5q10 0 114 87h9v4q41 -4 41 -13v-5q-13 -21 -64 -45v-9h-4q3 -13 23 -23h59l9 -9q0 -18 -55 -18h-18q-29 0 -54 22h-19q0 -18 -77 -36v-4q-54 9 -54 23v8q0 11 31 14l9 23h-4l-77 -37v-4l-18 4l-23 -4q-37 16 -37 31l-45 -4q-77 0 -77 41zM1951 533 v4q0 127 98 127q0 31 52 37q23 -7 23 -23q0 -31 -47 -112l-9 -71l5 -19v-28q40 2 159 141l23 28q0 23 47 80q28 -3 28 -19l-14 -47q8 0 38 56l14 5q28 -9 28 -19v-9l-5 -5l5 -4v-5l-14 -52h5l56 75h5q28 0 28 -37v-19q24 -25 53 -25q18 1 50 34l6 9q25 34 50 34h5 q11 0 14 -38l-14 -70l4 -5q13 0 66 75l19 14l14 -5l5 5l23 -75h9q26 0 122 197l10 9q32 -4 32 -14q-4 -45 -37 -140l14 -66h9q22 0 61 47l10 -14v-5q-25 -56 -61 -56h-10q-44 0 -51 70v24l19 61h-5l-42 -89q-38 -57 -75 -57v5l-14 -5q-43 24 -43 47q-47 -61 -56 -61h-37 q-11 0 -24 38q-28 0 -28 23q-44 -20 -59 -20q-18 4 -44 16h-19q-9 0 -14 28q-42 -52 -70 -52h-5q-11 0 -14 19l10 61v4h-5l-56 -117h-33l-10 10l19 65v5h-5q-46 -92 -196 -197v-5l4 -32l-4 -43v-18l-5 -5l5 -5q-14 -123 -28 -131h-24q-56 56 -56 164v24q0 42 80 65h4l-4 56 v38l-5 5v4l-56 -9q-33 11 -33 19zM1979 561l5 -19h4q37 0 57 33v61h-15q-25 0 -51 -75zM1984 345q0 -89 46 -140h5l14 192h-4q-28 -5 -61 -52zM2077 636h10l4 28h-9l-5 -24v-4zM2184 1598l48 -21l47 16l21 -6q48 138 48 217l-16 21h-5q-78 0 -143 -190l6 -6v-5zM2364 1323v6 q0 36 79 63h32q9 0 15 -26l-10 -69l5 -5h11q22 9 68 116h11l5 -5h5l16 5l5 -16l-10 -74v-5l10 -11h16q32 30 53 74h5l6 -5h5l16 5l10 -21l-5 -16l5 -31h5q43 0 43 84q31 116 52 158h-5l-105 -10q-24 10 -27 21q0 13 64 21l21 -5l5 5h5l5 -5q58 0 74 47q0 27 37 27h21l11 -11 v-37q67 4 111 21v-5l21 10l5 -5h5l27 5l21 -5l5 5l26 -5h16v-10q-57 0 -242 -43q0 -47 -122 -269l-10 -26v-21h10v-5q63 0 106 179l5 5h37q11 0 11 -16q-32 -57 -32 -95q5 -21 21 -21q19 0 53 159q10 0 10 31l48 11l10 -16v-26l-89 -232q-11 -20 -21 -132l-6 -16v-27 l11 -131q40 0 126 31h11l11 -10q0 -12 -85 -32q-53 -18 -53 -26l85 -69v-5l-16 -16h-16q-53 0 -100 90l-5 5h-6l-42 -5q-192 0 -390 147l-11 37v16q0 42 64 58h5l16 -16q-53 -10 -53 -52q0 -62 206 -138l131 -37l6 6h5l21 -6l21 6q0 10 -31 21q0 14 -43 53l11 10 q49 -46 90 -63h5v58l-5 26q10 152 31 211l-5 6v5l5 16l-63 26q-38 -63 -95 -63q-39 0 -53 58l-5 -6h-21q-18 0 -37 16q-27 -26 -48 -26h-15q-24 0 -58 32h-6q0 -28 -47 -37h-26q-43 0 -43 58l6 37q-32 -22 -58 -22h-16zM2499 -186l4 5v4q55 -9 55 -18v-4q-14 0 -14 -18v-5 h-23l-22 27v9zM2608 14l45 45l114 241l13 9h5l4 -4l5 4h5l18 -4v-5q-48 -118 -150 -291q-28 -65 -28 -117h-4q14 -64 36 -64q42 0 68 141v9q-40 5 -40 27q11 32 27 32l4 -5h5l18 5l23 -23q37 0 63 91q24 22 41 22h18q37 -13 46 -36q23 5 54 32h28l13 -18l-4 -28 q0 -24 18 -31h23l36 41q23 32 123 340l13 23q32 -3 32 -9q0 -68 -123 -350l-4 -23l4 -22q39 0 69 77l4 4h5l9 -9l4 5h14v-27h5l31 18h23l9 -9v-9l-9 -37v-9l9 -9q52 0 109 77q0 13 23 41q38 65 86 118l118 155h9l14 -14q-96 -137 -145 -263l-14 -55v-18q0 -27 18 -27 q82 57 132 141l95 145l59 91q30 64 41 68q23 -6 23 -14q-123 -216 -123 -268q-27 -57 -50 -150l5 -13l-5 -5v-4l5 -14h9q17 8 68 95h27l10 -9l-32 -63v-14l13 -4q29 17 82 81l5 5h4q32 0 32 -41q36 41 68 41h5q33 0 45 -64q46 -13 46 -22v-5l-9 -9h-23q-59 0 -59 68h-9 l-59 -54h-9q-27 0 -46 18l-59 -50l-14 4l-4 -4h-5l-45 13l-14 -13h-9q-50 7 -50 22q0 45 59 223v9h-4q-96 -149 -96 -204l-22 -46l22 5h9q11 0 14 -22q-9 0 -23 -78l-32 -54l119 13v-4q23 9 95 9v-5l5 5l81 -9l5 4h4q33 -18 50 -18v5q62 104 96 104q0 -9 13 -9l5 -4v-5 q0 -20 -73 -123q0 -13 -18 -27q-36 -82 -36 -122q0 -41 18 -41q32 17 68 91q-32 9 -32 18v4q0 14 50 18l23 -22q-9 -18 -27 -18q0 -10 18 -10v-13l-9 -41l13 -5q58 29 91 109v5h-22q-24 0 -28 14v9q0 9 23 9v4l23 -4h23q37 93 54 95q27 -4 27 -13v-5l-31 -64l4 -4l114 32h13 l23 -19q-19 -13 -36 -13v4l-123 -36q-27 0 -45 -91q0 -17 18 -32l22 9q21 -8 23 -18q0 -10 -36 -22q-43 9 -64 50q-43 -50 -86 -50l-32 13q-32 -32 -41 -32q-59 0 -59 37l-4 13h-5q-9 0 -36 -31l-28 -5q-13 0 -13 32l-55 -32h-13l-5 5l-4 -5h-5q-24 0 -41 27v28h-4 q-65 -46 -91 -46l-55 5l-27 -9h-14q-32 14 -32 68l5 27h-5q-72 -74 -113 -77h-23q-23 10 -23 45v9h-13q0 -12 -32 -36q0 -24 -41 -32h-18l-9 9l4 64v9h-9q-69 -105 -132 -105q-33 0 -63 41l-36 -18q-32 6 -32 18v18h9q44 0 100 78h9q32 -5 32 -14l-32 -68l4 -18h5 q33 0 95 68l41 36l23 9q36 -5 36 -18v-13l-9 -28h14q0 29 82 37l18 -23v-27h9q48 16 127 109l9 27l-4 4h-5l-145 -22v4l-28 -9h-9l-13 14v9l13 14h50l19 4l4 -4h5q122 14 122 22l68 145h-9l-22 -4l-5 4v18l5 23q-19 -18 -46 -18q-45 0 -45 41q0 71 50 172v5 q-39 -32 -87 -118l-9 -27l5 -37q-27 -72 -77 -72q-9 11 -9 31h-5l-50 -9q-45 0 -45 41l4 14h-45q-36 -50 -87 -50l-27 32l-41 -32h-36q-45 0 -50 63h-5q-21 -18 -45 -18q-22 -63 -55 -63h-31l-28 9l-59 -32q-28 -168 -95 -168h-27q-37 21 -37 87l14 104q-18 4 -18 18z M2733 706v5q5 19 47 19l14 -5v-14q-3 -14 -37 -14h-14zM2802 1392h5l53 100l21 69h-11q-31 0 -68 -164v-5zM2862 32l18 -5l18 14v9l-13 14h-5q-18 -8 -18 -32zM3067 -167l9 9h4q64 -3 64 -23v-5q0 -9 -37 -13q-40 7 -40 18v14zM3086 1234v21l16 21l-10 26q45 0 68 58h27 l10 -10q-38 -132 -68 -132q-43 3 -43 16zM3094 533v14q0 8 52 23l9 -37l-9 -10h-42zM3301 598v10q0 63 28 84h37q52 -39 52 -56l-14 -10h-10l-47 43l-18 -57q13 -46 28 -46h37q30 0 52 93l14 10l75 -10h14l75 19q37 0 37 -47h-4l4 -23l61 70q47 0 47 -56l14 -14q0 15 71 23 l14 -5l14 5l4 -5h5l5 5h4q23 -3 43 -33q21 0 11 -29h33v-10l-23 -23q-47 15 -47 47q20 11 -35 11h-33l-9 -10l-15 5l-32 -23h-19q-30 19 -42 79l-61 -79l-14 -5q-33 0 -33 37l5 42l-5 15l-66 -24l10 -47q0 -57 -75 -70h-10q-56 0 -56 37l-56 -9h-10q-60 13 -60 56zM3326 205 v4l13 14q46 -3 46 -14v-4q0 -9 -28 -19q-31 8 -31 19zM3340 1323q0 106 73 106q37 -13 37 -21v-5l-15 -16h-16l-6 5h-5q-26 -24 -26 -74l21 -16q89 0 100 74l5 6l6 26l5 5h37q18 0 37 -16h10l79 27q48 0 48 -69v-10h5q0 26 42 47l6 -5h5l16 5q14 -58 37 -58q3 14 52 58 q37 0 37 -32l11 -10v-11q15 0 26 -16l85 22l5 -6v-5q-35 -37 -95 -37h-26l-43 37q-47 -47 -63 -47q-33 0 -53 36q-36 -52 -47 -52q-42 0 -42 58l-6 53h-5q-24 0 -53 -27q16 0 16 -58q0 -47 -84 -47q-39 0 -63 42l-80 -21l-5 5h-5l-5 -5h-6q-52 0 -52 52zM3460 556 q0 -14 28 -14v-5q25 0 47 38v9q-7 47 -42 47h-5l-28 -61v-14zM3540 1302q0 -15 32 -15v-6q21 3 21 42v11l-16 16h-11l-26 -37v-11zM3548 -290v-32q1 -23 9 -23q18 3 18 32q21 55 37 59h27l14 -13l-32 -69l4 -4h19q19 0 91 50h13q25 0 32 -18v-37h32q0 10 95 73l59 114 l-77 18l-5 -5l-22 5h-5q-61 0 -100 -9l-4 4q-164 -19 -164 -41q-41 -66 -41 -104zM3594 -131v-5h4l41 87v4h-4zM3953 -258h13l28 81l-5 5h-5q-31 -68 -31 -86zM4003 -149l9 -9l9 27z" />
<glyph unicode="&#xaa;" horiz-adv-x="758" />
<glyph unicode="&#xab;" horiz-adv-x="1788" d="M57 312q0 51 578 578l203 231q173 -29 173 -86v-29l-665 -694v-87q0 -105 520 -144l174 57v29q-228 0 -347 174v86q335 365 549 376l58 -58v-28l-318 -290v-57h318l289 86l58 -57q-184 -203 -463 -203q0 -117 -289 -260h-202q-636 63 -636 376z" />
<glyph unicode="&#xac;" horiz-adv-x="1196" />
<glyph unicode="&#xad;" horiz-adv-x="1111" d="M37 669v60l30 29v30q233 -121 446 -68h29h30l56 5h30l312 71h59l60 -60v-59q-149 -9 -190 -49l-78 -11l-193 -71h-30h-30h-59l-85 4l-119 -30q-268 89 -268 149z" />
<glyph unicode="&#xae;" horiz-adv-x="1509" />
<glyph unicode="&#xaf;" horiz-adv-x="1131" />
<glyph unicode="&#xb0;" horiz-adv-x="819" d="M184 1330v21q41 266 123 266h41l20 -20l21 20h20l82 -41q0 82 103 82l20 -20h21l61 20q61 -78 61 -184q-162 -280 -286 -328q-287 0 -287 184zM368 1289h21q184 69 184 226q-205 -75 -205 -185v-41z" />
<glyph unicode="&#xb1;" horiz-adv-x="1124" />
<glyph unicode="&#xb2;" horiz-adv-x="682" />
<glyph unicode="&#xb3;" horiz-adv-x="682" />
<glyph unicode="&#xb4;" horiz-adv-x="682" />
<glyph unicode="&#xb5;" horiz-adv-x="1180" />
<glyph unicode="&#xb6;" horiz-adv-x="1752" d="M0 1190q0 214 804 487l24 -24h25q0 36 97 73q292 -65 292 -195l-48 -390l73 -73v-73q-4 -41 -219 -171l-98 -487q0 -511 -268 -511h-49l-24 24v25q171 544 171 754v220q0 48 -147 48v25l-24 -25h-24q-583 203 -585 293zM244 1214q251 -195 463 -195h48q0 139 -97 219 l24 25l-24 24v146q-414 -92 -414 -195v-24zM926 1360l24 -317h24l74 293v49l-25 121h-97l24 -121zM1316 1628q15 122 146 122h48l74 -49q-19 -316 -49 -316l24 -25v-24l-24 -73l24 -244v-292l-24 -98q49 -146 49 -633v-194q0 -56 -122 -74v25l-25 -25h-48q-49 0 -49 74 l49 218l-25 25l25 121v122q0 535 -49 853l24 24z" />
<glyph unicode="&#xb7;" horiz-adv-x="569" />
<glyph unicode="&#xb8;" horiz-adv-x="682" />
<glyph unicode="&#xb9;" horiz-adv-x="682" />
<glyph unicode="&#xba;" horiz-adv-x="748" />
<glyph unicode="&#xbb;" horiz-adv-x="1702" d="M-25 789v29l87 87l232 -87l29 29q436 -105 436 -261q-9 -83 -291 -465q0 -173 -87 -173h-58l-174 173v58q261 206 261 378v58h-29q-338 0 -406 174zM555 1021v58l59 58q986 -151 986 -493v-58q0 -109 -725 -697h-29l-174 116l551 464q116 167 116 262l-377 145l-29 -29 q-378 67 -378 174z" />
<glyph unicode="&#xbc;" horiz-adv-x="1708" />
<glyph unicode="&#xbd;" horiz-adv-x="1708" />
<glyph unicode="&#xbe;" horiz-adv-x="1708" />
<glyph unicode="&#xbf;" horiz-adv-x="1251" />
<glyph unicode="&#xc0;" horiz-adv-x="1695" d="M0 26l193 367l-39 58v19q5 53 174 116q542 714 733 714h77l58 -58v-96l-115 -406l19 -19l251 58v-19l714 135l19 -20v-19q-216 -92 -810 -174l-20 -19q-212 -54 -212 -96v-20q187 -47 386 -231q0 -366 -270 -366q-251 0 -251 154v96l39 270l-97 77q-352 -49 -521 -154 q-239 -443 -270 -443q-48 0 -58 76zM521 625h19q361 43 463 96l-19 19v39l77 251l-19 19v135h-39q-482 -425 -482 -559zM695 1782q19 58 115 58l560 -482v-19l-39 -39q-118 0 -405 309q-135 0 -231 173zM1003 161q0 -115 116 -115q155 71 155 231l-58 39l19 19v39l-135 77 h-77l-20 -58l20 -19l-20 -193v-20z" />
<glyph unicode="&#xc1;" horiz-adv-x="1366" />
<glyph unicode="&#xc2;" horiz-adv-x="1366" />
<glyph unicode="&#xc3;" horiz-adv-x="1366" />
<glyph unicode="&#xc4;" horiz-adv-x="1366" d="M-369 -290q370 432 950 1437l217 218q217 -33 217 -109v-190l-27 -597l108 -27l163 27l27 -27v-27q0 -64 -244 -109v-54l54 -81l136 27h54l55 -55l-109 -108h-136q-154 0 -298 271l-27 27l-136 -27h-81q-217 0 -217 109q-283 -499 -543 -814h-108l-55 54v55zM391 496h135 l218 -54h81v217l27 27l-27 27v82l27 108l-27 109v108h-27q-104 -72 -407 -570v-54zM445 1500l81 109q380 -20 380 -82q0 -88 -298 -108q-163 27 -163 81zM1286 1554v55l55 54h108l81 -81v-28l-54 -54h-135z" />
<glyph unicode="&#xc5;" horiz-adv-x="1366" d="M0 -109q0 412 571 1252l22 22h22l66 -22l66 22l22 -66q-52 -417 -88 -417l22 -110h198q219 0 219 44l418 -44v-44q0 -50 -154 -88l-154 44l-549 -132l-22 -22q0 -570 154 -570q232 0 329 460l-22 110l66 44h44l66 -66v-22l-22 -110l44 -44q-45 -7 -220 -416l-219 -88h-88 q-308 0 -308 504l22 220h-44q-241 0 -241 -373q0 -132 -44 -132h-110zM395 1363v110q0 65 176 87l66 -22l110 66l-22 22v22q26 176 88 176q154 -30 154 -88q-93 -527 -286 -527l-132 -22q-132 0 -154 176zM417 572l22 -22h44q38 0 66 110l-22 88l22 22h-44z" />
<glyph unicode="&#xc6;" horiz-adv-x="2048" />
<glyph unicode="&#xc7;" horiz-adv-x="1100" d="M225 384q122 770 325 770q0 48 267 59l148 -30v-118q-474 0 -474 -651l178 -30q235 -5 442 154l29 -30l-7 -136q0 -118 -435 -224q-51 -740 -236 -740h-59l-89 89v59q89 114 89 267v354z" />
<glyph unicode="&#xc8;" horiz-adv-x="1458" d="M0 317q120 305 828 657q164 439 439 439q414 -15 414 -146v-49l-49 -49h-73l-24 25h-25q0 -207 -243 -317q0 -49 -171 -49l-97 25q-476 -174 -780 -512q0 -120 341 -195l439 49v-24l24 24h146l49 -49q-111 -97 -755 -146q-463 128 -463 317zM743 1798l25 52l19 7 q63 9 114 -132q157 -110 528 -199l7 -19l-24 -52l-39 -14q-165 -61 -574 204zM1340 1194l146 -25l-49 49h-97v-24z" />
<glyph unicode="&#xc9;" horiz-adv-x="1063" d="M0 1258q0 121 699 490q70 0 210 93h46l70 -70q-23 -70 -139 -70l-24 23l-536 -396q0 -83 -116 -186q-210 30 -210 116zM23 256q0 243 373 699q0 233 350 233q180 -58 209 -139l-46 -47l-233 23q-117 -107 -117 -163l140 -93v-70l-46 -46v23q-443 -61 -443 -420 q32 -116 163 -116h93q137 0 280 116l23 -23l170 144l47 -46q-106 -238 -217 -238q0 -46 -116 -93h-350q-280 41 -280 256z" />
<glyph unicode="&#xca;" horiz-adv-x="1608" d="M18 415v48q0 189 616 663q155 261 403 261q238 0 403 -190v-71l-71 -71q-145 0 -284 142q-177 -29 -190 -94q124 0 213 -143q-9 -76 -213 -166l-213 48q-292 -94 -427 -332l-24 -24v-23q0 -451 380 -451l213 24v-47l-166 -119q-640 91 -640 545zM514 1322v22 q562 509 708 509h66q97 0 155 -398q110 -6 110 -66v-22l-88 -67q-265 0 -265 354q-75 0 -531 -376l-66 -22z" />
<glyph unicode="&#xcb;" horiz-adv-x="1934" d="M60 280v64q112 135 836 611q113 515 483 515h161q514 -26 514 -289l-96 -65h-161q-142 161 -289 161q-226 -76 -226 -129v-64h97q180 0 225 -161q-84 -289 -386 -289l-289 32q-547 -239 -547 -322v-32q169 -225 611 -225q495 32 804 129l32 -33v-96q-240 -96 -772 -161 l-32 33h-32l-129 -33v33l-32 -33q-515 0 -772 354zM969 1580v53q19 79 315 210q0 -79 105 -79v-52q0 -79 -157 -79q-76 -132 -158 -132q-105 40 -105 79zM1573 1685q17 79 211 79h52l132 -26v-53q0 -58 -237 -105h-52z" />
<glyph unicode="&#xcc;" horiz-adv-x="569" />
<glyph unicode="&#xcd;" horiz-adv-x="569" />
<glyph unicode="&#xce;" horiz-adv-x="569" />
<glyph unicode="&#xcf;" horiz-adv-x="569" />
<glyph unicode="&#xd0;" horiz-adv-x="1479" />
<glyph unicode="&#xd1;" horiz-adv-x="1395" d="M0 65q195 817 519 1253l151 -43l-86 -886q43 -130 86 -130q189 0 497 843q177 389 238 389h65l43 -43v-22q-128 -139 -346 -648q-185 -670 -432 -670h-151q-100 0 -173 367l64 433q-64 0 -259 -649l22 -86q-57 -173 -87 -173h-86zM259 1578v43q183 216 433 216h43 q264 0 432 -130l432 44q116 0 152 -87v-22q0 -43 -65 -43l-216 22l-22 -22v-21l-65 21l-130 -43q-280 0 -324 108l-86 43h-151l-65 -43l-22 22l-194 -152h-108z" />
<glyph unicode="&#xd2;" horiz-adv-x="1593" />
<glyph unicode="&#xd3;" horiz-adv-x="1307" d="M0 394q0 817 567 937h49q370 0 370 -148q247 -98 247 -345v-24q0 -722 -740 -814h-74q-419 67 -419 394zM197 444q0 -229 222 -321q419 0 592 444l49 197v74q0 136 -148 222q0 -79 -148 -246h-98l98 295h-24l-148 25q-337 0 -395 -616v-74zM764 1750l74 99h25 q170 0 197 -247l173 -123v-24l172 24h74l50 -49l-222 -148q-378 86 -493 296z" />
<glyph unicode="&#xd4;" horiz-adv-x="1593" />
<glyph unicode="&#xd5;" horiz-adv-x="1593" />
<glyph unicode="&#xd6;" horiz-adv-x="1402" d="M104 241v24q72 419 168 649h-24l-48 48v48q311 241 577 241q578 -124 578 -289q0 -654 -722 -938l-120 -24q-409 0 -409 241zM272 265q0 -121 217 -121h48q601 226 601 626l48 120q0 168 -240 168q-106 -505 -361 -505h-48l-72 72q168 0 264 361v72q-309 0 -457 -793z M585 1588v48q0 79 385 120l48 48h72l48 -48v-48q-153 -289 -216 -289q-337 105 -337 169zM1138 1636l145 96h24q216 -48 216 -96v-24q-66 -145 -313 -145q-72 88 -72 169z" />
<glyph unicode="&#xd7;" horiz-adv-x="1196" />
<glyph unicode="&#xd8;" horiz-adv-x="1593" d="M52 -533l252 455l68 228l-159 159v160q136 553 250 683q0 46 -114 46l-22 23v45q0 39 341 91h114q144 -159 205 -159q197 355 433 501h137l45 -46v-45q-432 -348 -432 -479q364 -182 364 -341v-23q0 -351 -410 -615q-156 -114 -251 -114v22l-114 -45l-136 45 q-130 0 -228 -250l-92 -136l45 -91q-76 -183 -273 -183l-23 23v46zM372 400l91 -114h23l410 775v46h-45q0 -69 -46 -69q-91 47 -91 114h-23q-175 -120 -319 -661v-91zM577 218l68 -46h228q347 137 479 433l23 91q0 138 -274 319h-45z" />
<glyph unicode="&#xd9;" horiz-adv-x="1479" />
<glyph unicode="&#xda;" horiz-adv-x="1479" />
<glyph unicode="&#xdb;" horiz-adv-x="1479" />
<glyph unicode="&#xdc;" horiz-adv-x="1479" />
<glyph unicode="&#xdd;" horiz-adv-x="1366" />
<glyph unicode="&#xde;" horiz-adv-x="1366" />
<glyph unicode="&#xdf;" horiz-adv-x="1251" />
<glyph unicode="&#xe0;" horiz-adv-x="840" d="M0 586q133 213 237 213q284 -37 284 -118l-71 -71l-24 24h-23q-143 -24 -143 -71v-24h308q-1 53 112 -72q87 71 166 71l47 -118q-47 -166 -189 -166q-182 0 -207 95h-189q-219 0 -308 237zM157 1395v71l142 118h119l71 -71v-24l-48 -71q0 -40 355 -284v-71q0 -47 -71 -47 z" />
<glyph unicode="&#xe1;" />
<glyph unicode="&#xe2;" />
<glyph unicode="&#xe3;" />
<glyph unicode="&#xe4;" horiz-adv-x="851" d="M-33 549q0 190 154 285h153q100 0 198 -88l66 22q131 -22 131 -66v-22l-69 -195h22q156 0 241 65l14 -136q-17 -61 -212 -61v-22q-215 54 -215 130h-22l-132 -132h-263q-66 0 -66 220zM11 1163v22q0 44 132 66q175 -53 175 -88l-66 -88h-44q-197 39 -197 88zM99 527 l22 -66h87q219 145 220 197l-198 66q-109 -41 -109 -197h-22zM669 1010v43l44 44h132q132 -13 132 -66q-36 -87 -154 -87h-22q-114 0 -132 66z" />
<glyph unicode="&#xe5;" horiz-adv-x="900" d="M-22 487v81q139 379 244 379l-55 162v81q176 271 244 271h27q379 0 379 -162l27 -82q-54 -164 -271 -324q7 -88 190 -217q0 -189 54 -189l81 27l54 -82q-103 -157 -162 -162q-217 61 -217 190l-270 -217q-325 0 -325 244zM167 460q218 0 352 216v27q-72 0 -162 81h-27 q-163 -142 -163 -270v-54zM357 1109l27 -27h135l136 135v27l-54 55h-28q-162 0 -216 -190z" />
<glyph unicode="&#xe6;" horiz-adv-x="1821" />
<glyph unicode="&#xe7;" horiz-adv-x="767" d="M-99 -524l252 353h-25l-76 -50h-50l-75 75v25q141 206 352 252q115 -49 126 -101v-75q0 -187 -353 -555h-75zM-24 408v126l353 227h152l50 -50v-76q-227 -165 -227 -227l126 -25l378 151l-1 -25v-126q-154 -176 -402 -176h-202q-118 56 -176 176h-26z" />
<glyph unicode="&#xe8;" horiz-adv-x="710" d="M-49 386l8 136l451 383h90l68 -67v-23q-271 -273 -271 -338l90 -23q68 0 343 91v-23q11 -250 -343 -248q-91 0 -315 113l-98 -23zM308 1364v180l45 45h23q68 -14 68 -180q121 -174 473 -406v-23l-45 -45h-45q-195 0 -519 429z" />
<glyph unicode="&#xe9;" horiz-adv-x="693" d="M-45 494l9 37l30 19h23q97 9 258 371l71 71h95l95 -94v-71q-166 -236 -166 -308h24q77 -74 289 43q71 -15 30 -205l-274 -125l-306 145l-129 -14h-23l-22 43zM39 1182v47q0 37 473 166q247 236 402 236q48 0 48 -71q0 -186 -781 -473h-24q-108 46 -118 95z" />
<glyph unicode="&#xea;" horiz-adv-x="537" d="M-355 1064v22q562 509 708 509h66q97 0 155 -398q110 -6 110 -66v-22l-88 -67q-265 0 -265 354q-75 0 -531 -376l-66 -22zM-45 534q80 282 221 398h132l67 -67l-177 -354v-22q0 -44 66 -44l243 133l45 -44v-111q0 -128 -398 -155l-177 44z" />
<glyph unicode="&#xeb;" horiz-adv-x="654" d="M-99 1071v53q19 79 315 210q0 -79 105 -79v-52q0 -79 -157 -79q-76 -132 -158 -132q-105 40 -105 79zM-39 396v105q0 43 124 176q174 263 315 263h105l53 -53v-105q0 -45 -289 -236l-26 -105l78 -53h53q152 22 263 120l52 38v-79l-17 -69q-11 -108 -324 -194 q-231 0 -387 192zM505 1176q17 79 211 79h52l132 -26v-53q0 -58 -237 -105h-52z" />
<glyph unicode="&#xec;" horiz-adv-x="438" d="M-27 406v116l219 246h70l69 -69v-46l-93 -139v-47l47 -46l159 131l16 -159q-84 -108 -222 -134q-185 23 -185 93l-56 31zM125 1341v180l45 45h23q68 -14 68 -180q121 -174 473 -406v-23l-45 -45h-45q-195 0 -519 429z" />
<glyph unicode="&#xed;" horiz-adv-x="438" d="M-27 406v116l219 246h70l69 -69v-46l-93 -139v-47l47 -46l159 131l16 -159q-84 -108 -222 -134q-185 23 -185 93l-56 31zM58 1081v47q0 37 473 166q247 236 402 236q48 0 48 -71q0 -186 -781 -473h-24q-108 46 -118 95z" />
<glyph unicode="&#xee;" horiz-adv-x="419" d="M-153 963v22q562 509 708 509h66q97 0 155 -398q110 -6 110 -66v-22l-88 -67q-265 0 -265 354q-75 0 -531 -376l-66 -22zM-27 406v116l219 246h70l69 -69v-46l-93 -139v-47l47 -46l159 131l16 -159q-84 -108 -222 -134q-185 23 -185 93l-56 31z" />
<glyph unicode="&#xef;" horiz-adv-x="412" d="M-27 406v116l219 246h70l69 -69v-46l-93 -139v-47l47 -46l159 131l16 -159q-84 -108 -222 -134q-185 23 -185 93l-56 31zM32 1103v53q18 79 315 210q0 -79 105 -79v-52q0 -79 -157 -79q-76 -132 -158 -132q-105 40 -105 79zM636 1208q17 79 210 79h53l131 -26v-53 q0 -58 -236 -105h-53z" />
<glyph unicode="&#xf0;" />
<glyph unicode="&#xf1;" horiz-adv-x="1197" d="M-34 383v171l167 234q195 -24 195 -73l-24 -220q272 247 513 342q165 0 244 -122l-24 -122q5 -98 48 -98q108 52 162 52l3 -146l-24 -24h-25h-24l-140 -53q-134 0 -220 220l24 73l-24 25h-49l-391 -367l-98 -24h-73q-122 62 -122 195l-93 -87zM255 1106v73q40 98 171 98 h147q152 0 439 -123l122 98h98l49 -49q0 -73 -244 -244q-201 20 -318 122q-208 0 -317 -49q-147 32 -147 74z" />
<glyph unicode="&#xf2;" horiz-adv-x="533" d="M-71 1439v22l66 44h110q80 0 154 -308q213 -207 395 -242v-22l-65 -88h-22q-379 0 -638 594zM-49 472v66q0 172 132 242q317 0 396 -198l88 -110v-154q-123 -176 -308 -176q-274 0 -308 330zM149 428q0 -41 110 -132q110 37 110 110q-46 132 -176 132h-22z" />
<glyph unicode="&#xf3;" />
<glyph unicode="&#xf4;" horiz-adv-x="814" d="M-57 506q238 164 386 476q407 0 535 -357q0 -240 -327 -327l-386 89q-152 -89 -208 119zM32 1309v59q175 218 446 327q208 0 208 -238q178 -60 178 -119q-44 -119 -89 -119h-148q-108 0 -238 119l-149 -119h-119zM448 566h89v29l-29 89l-60 -59v-59z" />
<glyph unicode="&#xf5;" />
<glyph unicode="&#xf6;" horiz-adv-x="634" d="M-75 504v20q28 243 223 243q141 0 141 -81h162q222 -27 222 -182v-41q-53 -172 -303 -283l-20 20h-20l-102 -20q-303 101 -303 324zM26 908v61q0 53 142 81v-20l182 40l20 -20v-20q0 -131 -182 -162h-121zM127 443q71 -121 182 -121q182 0 182 202q-81 0 -81 40l-20 -20 l-101 20q-162 -12 -162 -60v-61zM350 787v61q127 141 243 141l40 -61q0 -115 -182 -202q-101 26 -101 61z" />
<glyph unicode="&#xf7;" horiz-adv-x="1124" />
<glyph unicode="&#xf8;" horiz-adv-x="580" d="M-161 -82l166 240h19q-68 105 -92 221q28 444 314 536h110q111 0 111 -74q221 411 296 426l55 18l93 -18v-56q-168 -172 -370 -517v-19l93 -148q0 -191 -314 -425l-93 19q-28 0 -240 -296v19l-18 -19q-130 19 -130 56v37zM98 342l37 -36q166 184 166 277l-129 74 l-74 -111v-204zM283 287h18q81 15 166 166v56q-60 -36 -184 -222zM283 749l73 -18l-55 55l-18 -18v-19z" />
<glyph unicode="&#xf9;" />
<glyph unicode="&#xfa;" />
<glyph unicode="&#xfb;" />
<glyph unicode="&#xfc;" />
<glyph unicode="&#xfd;" horiz-adv-x="1024" />
<glyph unicode="&#xfe;" />
<glyph unicode="&#xff;" horiz-adv-x="1024" />
<glyph unicode="&#x152;" horiz-adv-x="2048" />
<glyph unicode="&#x153;" horiz-adv-x="1448" d="M-11 386q0 359 288 505h216l49 -48l24 24h24l144 -48h24q141 310 480 432q192 -15 192 -72q0 -128 -480 -505q-72 -87 -72 -168l48 -48h48q220 64 445 90l56 1v-151h-48q-138 -15 -429 -108h-120q-216 24 -216 216h-24q-81 -253 -289 -360h-24l-72 24l-24 -24h-24 q-105 0 -216 240zM277 386h24l120 144v120h-24q-35 0 -120 -264z" />
<glyph unicode="&#x178;" horiz-adv-x="1366" />
<glyph unicode="&#x2c6;" horiz-adv-x="682" />
<glyph unicode="&#x2dc;" horiz-adv-x="682" />
<glyph unicode="&#x2000;" horiz-adv-x="930" />
<glyph unicode="&#x2001;" horiz-adv-x="1860" />
<glyph unicode="&#x2002;" horiz-adv-x="930" />
<glyph unicode="&#x2003;" horiz-adv-x="1860" />
<glyph unicode="&#x2004;" horiz-adv-x="620" />
<glyph unicode="&#x2005;" horiz-adv-x="465" />
<glyph unicode="&#x2006;" horiz-adv-x="310" />
<glyph unicode="&#x2007;" horiz-adv-x="310" />
<glyph unicode="&#x2008;" horiz-adv-x="232" />
<glyph unicode="&#x2009;" horiz-adv-x="372" />
<glyph unicode="&#x200a;" horiz-adv-x="103" />
<glyph unicode="&#x2010;" horiz-adv-x="1111" d="M37 669v60l30 29v30q233 -121 446 -68h29h30l56 5h30l312 71h59l60 -60v-59q-149 -9 -190 -49l-78 -11l-193 -71h-30h-30h-59l-85 4l-119 -30q-268 89 -268 149z" />
<glyph unicode="&#x2011;" horiz-adv-x="1111" d="M37 669v60l30 29v30q233 -121 446 -68h29h30l56 5h30l312 71h59l60 -60v-59q-149 -9 -190 -49l-78 -11l-193 -71h-30h-30h-59l-85 4l-119 -30q-268 89 -268 149z" />
<glyph unicode="&#x2012;" horiz-adv-x="1111" d="M37 669v60l30 29v30q233 -121 446 -68h29h30l56 5h30l312 71h59l60 -60v-59q-149 -9 -190 -49l-78 -11l-193 -71h-30h-30h-59l-85 4l-119 -30q-268 89 -268 149z" />
<glyph unicode="&#x2013;" />
<glyph unicode="&#x2014;" horiz-adv-x="2048" />
<glyph unicode="&#x2018;" horiz-adv-x="455" />
<glyph unicode="&#x2019;" horiz-adv-x="455" />
<glyph unicode="&#x201a;" horiz-adv-x="455" />
<glyph unicode="&#x201c;" horiz-adv-x="682" />
<glyph unicode="&#x201d;" horiz-adv-x="682" />
<glyph unicode="&#x201e;" horiz-adv-x="682" />
<glyph unicode="&#x2022;" horiz-adv-x="717" />
<glyph unicode="&#x2026;" horiz-adv-x="2048" d="M0 214v71l107 107h36l35 -36l36 36h71q107 0 107 -143l-107 -178q-285 72 -285 143zM748 107v36l250 213h107l71 -71v-36q-122 -249 -178 -249h-36q-185 0 -214 107zM1532 214v71l72 71h178l178 -249l-107 -71h-36q-193 0 -285 178z" />
<glyph unicode="&#x202f;" horiz-adv-x="372" />
<glyph unicode="&#x2039;" horiz-adv-x="682" />
<glyph unicode="&#x203a;" horiz-adv-x="682" />
<glyph unicode="&#x205f;" horiz-adv-x="465" />
<glyph unicode="&#x20ac;" horiz-adv-x="2402" d="M118 795q0 230 821 230q477 558 952 558q426 -98 426 -230v-164l-131 -131h-66l-65 65v230l-197 66l-33 -33h-33l-33 33h-33q-372 -151 -558 -427q179 0 263 -164l-66 -66h-32l-263 66h-66q-251 -229 -262 -394h394v-66q0 -56 -427 -131q0 -278 656 -360h230l591 130 l33 -32v-33q0 -124 -657 -230l-33 33h-32l-33 -33h-33q-886 154 -886 492q-234 0 -361 99q0 131 295 164l33 -33l230 361v33l-460 -164q-150 64 -164 131z" />
<glyph unicode="&#x2122;" horiz-adv-x="2048" />
<glyph unicode="&#x25fc;" horiz-adv-x="775" d="M0 0v775h775v-775h-775z" />
</font>
</defs>
</svg>
