<?xml version="1.0" standalone="no"?>
<!DOCTYPE svg PUBLIC "-//W3C//DTD SVG 1.1//EN" "http://www.w3.org/Graphics/SVG/1.1/DTD/svg11.dtd" >
<svg xmlns="http://www.w3.org/2000/svg" xmlns:xlink="http://www.w3.org/1999/xlink" version="1.1">
<metadata></metadata>
<defs>
<font id="type-raregular" horiz-adv-x="682" >
<font-face units-per-em="2048" ascent="1638" descent="-410" />
<missing-glyph horiz-adv-x="569" />
<glyph horiz-adv-x="0" />
<glyph unicode="&#xd;" horiz-adv-x="569" />
<glyph unicode=" "  horiz-adv-x="569" />
<glyph unicode="&#x09;" horiz-adv-x="569" />
<glyph unicode="&#xa0;" horiz-adv-x="569" />
<glyph unicode="!" horiz-adv-x="330" d="M-28 166q0 134 88 134q188 -57 188 -154q-25 -120 -63 -135l-50 20l-50 -20h-25q-66 68 -88 155zM-8 1090v19q0 51 110 77q59 0 138 -96v-39l-14 -520q-27 0 -27 -57l-14 -20h-14q-28 0 -28 58h-14q0 -77 -41 -77q-50 0 -83 597z" />
<glyph unicode="&#x22;" horiz-adv-x="442" d="M15 1178q14 42 51 42q64 -31 69 -51l-17 -205h-9q-17 0 -17 51h-9q0 -86 -25 -86l-17 52v128q-26 37 -26 69zM220 1161v17l43 34h26q45 -22 51 -51l-17 -215h-17v43h-8q0 -60 -35 -60l-8 9v154q-35 36 -35 69z" />
<glyph unicode="#" horiz-adv-x="861" d="M-7 469v16q10 46 124 46v-15q92 27 92 108q-123 25 -123 62v15q0 35 170 62q10 108 31 108l-16 16v15q0 170 47 170l-16 16v15l62 62h46q62 -32 62 -77q-62 -217 -93 -217l-15 16h-15l-31 -31l15 -16v-15l-15 -78h15l16 16l61 -31q82 0 109 185l-16 16v15q0 107 124 217 l77 -93l-108 -325l15 -15l16 15q101 0 154 -92l-15 -16h-170q-26 0 -47 -108q143 -31 155 -77q0 -35 -185 -62v-31q-74 -340 -140 -340l-46 15l-31 -31l-46 47v15l108 340l-46 31q-58 0 -109 -402l-61 -31l-47 16l-31 -30q-46 14 -46 92l93 263v77q-124 15 -124 46zM271 516 h16v46h31v-77h15q58 34 108 123v31h-92l-47 -31l-15 16h-16v-108zM565 763h15v62h-15v-62z" />
<glyph unicode="$" horiz-adv-x="742" d="M-751 655v8q0 30 51 30q25 -8 25 -30v-8q0 -26 -30 -26h-16q-30 0 -30 26zM-575 9v13q0 23 22 34h26q39 -7 39 -43q-10 -33 -43 -33q-23 0 -44 29zM-16 102l58 365h15q25 0 87 -190l102 -102h15l14 117l-29 87l15 88l-15 14v15l29 73q-144 0 -262 175v116q79 233 248 233 v73l43 44h59l29 -29v-117l160 -44q22 59 44 59h15l14 -15h15l-15 -248v-43l-29 -29h-44q-44 0 -87 204l-59 43l-14 -14v-15l-15 -321h15q249 0 291 -247v-44q0 -219 -320 -277q0 -73 -44 -73h-44l-14 15h-15l15 73v14l-117 59l-58 14q-35 -102 -58 -102h-15zM115 787 q41 -100 102 -131h44v15l-15 14l15 73v146l14 102q-143 0 -160 -219zM363 161h58q121 0 175 218q-79 160 -204 160l-15 15l-14 -15v-378z" />
<glyph unicode="%" horiz-adv-x="891" d="M-23 695q44 321 230 321h76q107 -79 107 -168q-65 -276 -229 -276q-184 36 -184 123zM38 37l107 122v15l-15 -15h-15l-16 15v16l276 428q40 24 123 276q91 103 183 291h16q61 -23 61 -46v-46l-551 -949q-58 -134 -92 -138h-46zM69 725q21 -76 107 -76q123 82 123 184 q-22 107 -62 107h-15q-153 -119 -153 -215zM375 312q110 291 260 291q169 0 169 -199v-15q0 -142 -138 -215h-46l-46 46q138 65 138 230v31q0 23 -61 45q-108 0 -169 -229l31 -77l-46 -30q-54 0 -92 122z" />
<glyph unicode="&#x26;" horiz-adv-x="1079" d="M7 330v107l215 251q-143 119 -143 197v71q0 199 250 269q251 -65 251 -233v-107q0 -154 -233 -215v-18q0 -128 287 -358q96 300 161 322h53q65 0 144 -71q-22 -144 -72 -144h-54l-89 18q0 -68 -90 -161v-36q0 -59 233 -125v-54l-54 -53q-83 0 -232 143h-36 q0 -67 -269 -125q-322 89 -322 322zM114 312q0 -147 269 -197q157 67 161 107l-197 233l-89 108q-71 0 -144 -251zM186 921q45 -197 90 -197q143 0 197 215v53q0 33 -126 108h-36q-125 -75 -125 -108v-71z" />
<glyph unicode="'" horiz-adv-x="277" d="M15 1147q23 51 84 51q103 -38 111 -62l-28 -248h-14q-28 0 -28 61h-14q0 -103 -41 -103l-28 63v154q-42 44 -42 84z" />
<glyph unicode="(" horiz-adv-x="487" d="M15 667q0 276 356 588h37l56 -53q-318 -245 -318 -535v-53q0 -416 300 -589v-53q0 -35 -57 -35q-374 253 -374 730z" />
<glyph unicode=")" horiz-adv-x="517" d="M-22 1148v53l54 54q304 -277 304 -627q0 -474 -268 -698h-18l-54 54v35q195 112 233 305l36 125l-18 18v18l35 90q-84 501 -214 501q0 27 -72 54z" />
<glyph unicode="*" horiz-adv-x="479" d="M15 1053l35 48h23l58 -36q0 131 58 131q31 0 58 -60l-23 -71h12l58 24q52 -24 58 -48v-36q-17 -48 -93 -48v-12q58 -46 58 -95v-12q0 -18 -47 -36l-93 72q-31 -84 -92 -84l-24 36v48l58 71q-104 28 -104 108z" />
<glyph unicode="+" horiz-adv-x="801" d="M15 445v54l36 36l270 -18l19 18l-37 270l18 18h73l54 -54v-216l-18 -18v-18h18l72 18l18 -18l90 18h54l36 -36v-54l-36 -36h-252l18 -18v-217l-54 -54h-18q-36 0 -73 108l18 109v72h-270z" />
<glyph unicode="," horiz-adv-x="419" d="M7 111v122l99 98h98q148 -100 148 -245q-168 -390 -222 -390l-24 25v49q98 130 98 219v49q-197 15 -197 73z" />
<glyph unicode="-" horiz-adv-x="614" d="M8 364v143l15 23v24l76 -24h394l31 -47v-24q-10 -71 -122 -71h-91z" />
<glyph unicode="." horiz-adv-x="457" d="M15 143v96q54 120 240 120l120 -144q0 -192 -240 -215z" />
<glyph unicode="/" horiz-adv-x="569" d="M-45 49v18q256 515 460 1033h13l-13 18v36q28 71 67 71q62 -34 68 -71q0 -45 -365 -749l-135 -392h-67z" />
<glyph unicode="0" horiz-adv-x="1139" d="M7 453v246q138 490 315 490l71 53h262q186 0 386 -526v-228q0 -115 -158 -315q0 -114 -385 -158q-333 0 -491 438zM270 471q0 -154 175 -298h105q263 189 263 526l18 17q-123 403 -316 403q-245 -250 -245 -368v-280z" />
<glyph unicode="1" horiz-adv-x="981" d="M-7 50q17 136 119 136l169 -51h68l34 34l-17 17v17l33 33q-50 0 -50 34v17l17 17v17l-17 17q-33 5 -51 102h17q34 0 34 101h17l-17 17v17l17 17v17l-17 17h-17l67 135v34l-16 51h33v186l-50 51h-68l-51 -34h-119l-84 85v51l34 34h440q51 0 68 -237l-17 -17q34 0 85 -204 l16 -16q0 -51 34 -51l-17 -17v-34l102 -34v-17l-34 -51q51 0 51 -34q0 -32 -136 -101l-16 -85v-51h-51v-17l17 -17q-17 -67 -68 -67l34 -34h322l50 -51l-101 -101l-51 17l-169 -17h-34l-322 17l-169 -17q-119 23 -119 67z" />
<glyph unicode="2" horiz-adv-x="966" d="M0 65v17q0 316 241 413q0 35 448 224l86 172q-221 190 -276 190l-86 17q-75 0 -206 -138l-52 -17q-69 26 -69 52q140 206 396 206q252 0 379 -310l-35 -34l35 -52q-73 -221 -155 -241q-58 -61 -310 -155l-103 -69l-18 18h-17l-120 -207h706l51 -52v-17q0 -30 -103 -85 l-86 16h-276l-103 -16l-17 16h-17l-121 -16q-172 12 -172 68z" />
<glyph unicode="3" horiz-adv-x="929" d="M-75 -59q123 77 382 90q302 170 309 273l72 91v109q-102 127 -218 127l-236 -73l-73 73v36q201 116 382 382l-164 18q-136 -73 -327 -73l-54 73v73l54 73l255 -37l72 18l346 -18l54 -109q-275 -205 -345 -327q281 0 400 -218v-218q-249 -309 -346 -309l-345 -181h-145 q-73 29 -73 127z" />
<glyph unicode="4" horiz-adv-x="1281" d="M-8 449q231 245 257 587q52 0 52 235l-26 258l103 70h51q103 -47 103 -140q-118 -695 -231 -939h489l-26 23v212l-26 281l129 71h51l52 -47v-540l128 23h103l52 -47v-93l-52 -47h-103l-77 47h-51v-422l-129 -118l-103 141l26 187l-26 24v23l26 141v24h-232 q-59 -54 -386 -71q-106 32 -154 117z" />
<glyph unicode="5" horiz-adv-x="944" d="M-82 -114q0 116 304 162q268 98 406 324l61 203q-71 102 -203 102q-236 0 -345 -81h-40l-61 60l20 142l-20 264v102l40 40l21 -20h20l41 41h547l82 -82v-40q0 -41 -61 -41l-305 21q-223 -21 -263 -61l20 -21v-40l-20 -20v-21q40 0 40 -122l305 21h60q264 -92 264 -325 v-20q0 -284 -548 -588q-195 -81 -324 -81z" />
<glyph unicode="6" horiz-adv-x="876" d="M15 524q0 291 251 586q262 150 335 150q76 -32 84 -67q0 -66 -285 -100q-222 -217 -251 -419v-33q100 67 184 67h84q290 0 335 -352q50 0 50 -33q-101 -285 -285 -285q-32 77 -67 84h-16l-17 -84h-101q-301 132 -301 486zM132 507q0 -94 117 -234q0 -84 101 -84l84 -17 q167 121 167 251q-63 201 -201 201h-33q-141 0 -235 -117zM915 23v19q0 50 69 63h13q81 -22 81 -76v-25q-27 -49 -69 -49h-6q-88 10 -88 68zM1141 -347q10 76 31 76h7l19 -19v-57l-26 -25zM1235 -52q12 23 38 32q31 -10 31 -38q-9 -31 -44 -31h-6l-19 19v18z" />
<glyph unicode="7" horiz-adv-x="815" d="M-53 181v14q0 39 45 48h8q53 -16 53 -57v-20q-18 -38 -45 -38h-4q-57 8 -57 53zM-8 843l17 266q57 117 83 117l483 -17l133 17l33 -266l-166 -333q-198 -216 -217 -317l17 -216l-117 -99h-16q-42 0 -50 66q0 395 266 632q0 48 50 83l-17 17v17q73 60 100 266h-433v-17 q0 -266 -116 -266h-17zM220 -291q19 146 61 146h12l36 -37v-109l-48 -49zM357 79v37q23 44 74 61q60 -20 60 -73q-17 -61 -85 -61h-12zM1052 -120l18 12h43q82 0 174 -57v-7q-8 -19 -52 -19h-69l-114 64v7z" />
<glyph unicode="8" horiz-adv-x="854" d="M-187 -3l50 49h34l33 -33v-33l-50 -50h-17l-50 50v17zM-4 262v117l100 183l133 99q-127 83 -167 167v133q92 249 283 249q258 0 366 -266v-33q-73 -216 -183 -216v-50q233 -81 233 -316v-33q-48 -299 -300 -299l-33 -33h-100q-162 49 -166 82q-133 56 -133 183zM179 229 q49 0 116 -83q67 0 67 -33q136 0 232 183v66q0 147 -232 233q-183 -54 -183 -200v-166zM179 -244l24 8h59q113 0 240 -36v-4q-12 -12 -72 -12h-96l-155 40v4zM229 994q0 -283 149 -283q150 84 150 200v50l-83 99h-200z" />
<glyph unicode="9" horiz-adv-x="921" d="M-37 808q0 260 186 335q96 56 187 56h223l354 -167h75v-38h-56v-37l149 -74q66 0 130 -131h56v-37q-93 0 -93 -149q-154 -5 -373 -242q-147 -289 -540 -447h-149l-93 75v18q0 84 186 93q188 78 354 391v19l-261 -19q-335 0 -335 354zM261 789q0 -120 149 -205h19 q149 125 149 187q0 279 -224 279h-56l-37 -130v-131z" />
<glyph unicode=":" horiz-adv-x="457" d="M8 198q65 163 191 163q86 -31 153 -126v-73q-72 -126 -153 -126q-82 0 -191 162zM16 694q61 141 202 141q92 -33 142 -121v-61q0 -141 -142 -141h-20q-182 26 -182 182z" />
<glyph unicode=";" horiz-adv-x="472" d="M0 258l121 100q126 0 241 -181v-141q0 -39 -101 -39q-51 -221 -120 -221l-61 60l101 161v19q0 61 -121 61q-48 64 -60 181zM0 736q1 54 127 121q97 0 218 -181v-20q0 -141 -127 -141q-218 0 -218 221z" />
<glyph unicode="&#x3c;" horiz-adv-x="524" d="M-8 510q250 225 280 340l99 20q60 0 60 -80l-179 -260v-20h20v40h40v-20l-40 -59v-20q46 0 179 -240v-20l-80 -60zM382 736v34l68 34v-17l-51 -51h-17z" />
<glyph unicode="=" horiz-adv-x="764" d="M-45 663v44l118 23h507l34 -45v-67l-34 -44h-439l-118 -22q-34 111 -68 111zM-8 290v80l36 40h221l91 21v-21l19 21h201q99 0 129 -81v-20l-73 -81h-588z" />
<glyph unicode="&#x3e;" horiz-adv-x="509" d="M-44 183l205 307v82q-90 0 -184 266l61 41q116 0 225 -204q92 0 164 -144v-41l-348 -348h-82z" />
<glyph unicode="?" horiz-adv-x="891" d="M-7 842v78q73 292 292 292l117 20q306 0 390 -293q-94 -311 -234 -311q-78 -67 -97 -234l-98 -20l-39 39v78q0 191 273 273q59 71 59 136q0 105 -176 215h-195l-117 -117v-20q78 0 78 -39q0 -105 -97 -155q-144 0 -156 58zM227 82v98q0 53 195 77h19q83 0 137 -77 q-14 -214 -176 -214h-78z" />
<glyph unicode="@" horiz-adv-x="1288" d="M8 739v32q206 423 520 423l97 16q255 0 455 -228l81 -162h81l49 -49l-16 -16h-16l-82 16v-81l-16 -65l16 -16v-16l-97 -358l-146 -32q-90 8 -228 146q-68 -65 -146 -81q-183 0 -276 276v114q108 260 292 260h49q54 0 114 -49q0 24 65 49q97 -33 97 -65v-49l-16 -163 l16 -97l-16 -49l16 -48h-16l49 -65h16q70 0 97 243q0 372 -471 439q-345 0 -422 -406l16 -17v-16l-16 -114q0 -216 341 -341h163l81 17v-17l16 17h16l130 -17l65 17q130 -20 130 -65v-49l-65 -65q-793 0 -893 244q-130 93 -130 487zM430 609q17 -162 146 -162h65q25 0 49 64 l-16 17l16 113v98l-130 32q-113 0 -113 -32z" />
<glyph unicode="A" horiz-adv-x="1004" d="M0 14v117l17 17v17l150 -34q4 168 34 168l-17 16v34l167 686h17l-17 17v16q0 134 134 134h50q84 0 185 -552l133 -502h118l50 -50l-67 -67h-318l-17 -17h-17l-16 17v67l33 33h101v17q0 167 -118 201h-284l-34 -67l34 -34l-17 -100v-17h101q38 0 50 -83l-50 -34h-134 l-251 -16zM335 433h301l-134 569q-39 0 -67 -268z" />
<glyph unicode="B" horiz-adv-x="1084" d="M-8 1095q48 115 148 115h378q394 -38 394 -295q0 -167 -131 -230l213 -247v-66q0 -189 -230 -328l-82 -33h-49l-50 33h-82l-49 -33h-361l-66 66v16l49 49l148 -16l16 16l-16 132l16 509l-32 296h-33l-50 -33h-49zM321 832l16 -16v-131q411 57 411 115l33 131 q-33 115 -132 115h-197l-49 33h-82v-49l32 -50v-115zM337 142h16l296 -16q164 0 197 214v32q0 156 -279 230h-181l-33 -32v-395l-16 -16v-17zM464 -232q0 27 30 27h49l13 -13v-44q-16 -26 -53 -26h-17q-18 0 -22 56zM621 -236q0 9 26 18l18 -5q8 16 26 22q26 -9 26 -35 q0 -24 -21 -30l-31 13l-13 -13h-13l-18 17v13zM726 -240l13 17h31q0 16 26 22q26 -9 26 -35q-6 -30 -30 -30l-26 8l-14 -13q-26 11 -26 31zM744 -127q7 31 65 61l9 -9l-61 -61h-5z" />
<glyph unicode="C" horiz-adv-x="951" d="M0 572v68q35 261 204 492q51 0 51 51q85 0 85 34h153l101 -17l85 17v-34h-34v-17q0 -25 68 -51q0 70 85 102l68 -34l-34 -390v-34l-34 -34h-34q-55 0 -102 271l-152 119h-85q-176 -91 -289 -407l34 -34l-34 -102l51 -51l-51 -34q163 -374 306 -374q237 0 288 306 q34 0 34 51l17 17h85l34 -34v-68q-115 -357 -272 -357q0 -33 -186 -33q-322 0 -442 577zM136 1183v34h119v-34h-119zM323 1234v34h85v-34h-85z" />
<glyph unicode="D" horiz-adv-x="1116" d="M6 1107v35l68 68h240l17 -17l17 17h256q393 -122 393 -410l34 -51v-240q-133 -512 -359 -512h-615l-34 34q0 92 68 119l154 -17v17l-17 274l34 564l-51 119l-137 -34h-34zM365 1056l17 -85v-821h308l188 257v17l-18 137l18 102q-120 374 -274 427h-51l-69 -17l-68 17z " />
<glyph unicode="E" horiz-adv-x="1094" d="M0 1090v32q0 81 761 81h130q113 -50 113 -324q-24 -64 -49 -64h-48l-49 48v211h-518l16 -17l-32 -194v-162q0 -28 81 -48q194 24 194 64l-16 65q24 65 49 65l81 -97v-324l-49 -49h-16l-49 49v129h-259l16 -16v-405h162l162 17v-17l16 17h162q23 307 81 307q42 0 65 -145 q0 -269 -81 -308h-874l-33 32v33l65 64h32l49 -32h81v32l-16 49l16 81v810h-162z" />
<glyph unicode="F" horiz-adv-x="1109" d="M0 42l17 17v17l-17 53q35 0 35 52l17 18h18l157 -35h52v855l-35 35l-104 -35q-83 0 -105 157l157 35l611 -18l52 18q140 0 140 -88l17 -122v-157q0 -90 -52 -104h-35q-70 0 -70 244l17 17h-17l-454 18h-17v-332h192q13 210 70 210h17l52 -53v-436l-69 -87h-18 q-52 17 -52 104v53l17 17v18l-192 35h-17v-384l209 17l53 -87q-88 -104 -157 -104l-227 34l-105 -34h-52q-91 0 -105 52z" />
<glyph unicode="G" horiz-adv-x="1079" d="M0 483q0 566 348 696l122 17q110 -23 226 -122q0 51 69 87h18l35 -35q-35 -400 -87 -400l-52 52l17 122q0 71 -157 174h-87q-278 0 -365 -522l35 -35v-52l-18 -17l157 -278l122 -70h69q216 97 279 209v87l-18 87h-87q-128 0 -139 52v17q0 52 452 52l18 -17v-35 q0 -48 -139 -69v-35q0 -210 69 -383l-69 -52h-18q-52 0 -52 122h-35q0 -83 -261 -156q-313 0 -452 504z" />
<glyph unicode="H" horiz-adv-x="1116" d="M0 31v35q0 40 88 53l88 -18l18 53l-18 900v36h-17q-65 -53 -124 -53l-35 53v70l35 36h124q318 0 318 -53v-18q-62 -71 -195 -71l18 -17v-389l88 18h53l159 -18l106 36l35 229l-17 124l17 17q-141 0 -141 36v53l35 35h36l300 18l53 -71v-35l-36 -36h-141l18 -847l-18 -88 l18 -18h53l53 36h17l53 -53v-36l-53 -52h-388q-40 0 -53 88l18 17h141l35 177v265h-176l-53 35h-230l18 -18v-459h71q106 -11 106 -53v-17l-36 -35h-406z" />
<glyph unicode="I" horiz-adv-x="966" d="M0 150v34l34 34h35q195 0 257 -68l17 17v17l-17 86l17 68l-17 18l34 274l-17 120l17 309l17 17h-257l-86 86l35 34l-35 34l17 17h18l51 -34h326l240 17q153 0 206 -103q-10 -51 -120 -51l-223 17l-17 -17v-17l17 -69l-17 -188v-18l17 -68l-17 -120v-412l171 17h35 q48 -51 137 -68l17 -86q-17 -51 -103 -51h-635q-92 0 -120 68l52 86h-86z" />
<glyph unicode="J" horiz-adv-x="1049" d="M0 277v174q61 105 175 105q69 -74 69 -140l-104 -69q13 -245 227 -245q226 0 226 297l18 52l-18 18v157l-17 70l17 17v18l-17 52l17 192v122l-192 -17l-69 52v18l52 52h105l349 17q139 -21 139 -69l-52 -53h-244l52 -523v-53q-37 -506 -314 -506l-52 -17q-251 0 -367 279 z" />
<glyph unicode="K" horiz-adv-x="1034" d="M0 74v34l52 52h34l86 -17l17 17v34l-51 69v344q0 289 51 413l-17 51l-120 -17l-35 52v51q28 69 121 69l51 -17l103 17h52l86 -69v-17q0 -34 -138 -51v-35l18 -120l-18 -155v-69l-17 -17l17 -69h18l344 465l-69 68q84 52 344 52q86 -12 86 -52v-34l-52 -52l-138 35 q-275 -347 -275 -396q346 -507 499 -533q162 -69 206 -155v-17q-34 -68 -103 -68v17l-17 -17h-17q-499 55 -499 137v34q0 40 86 52q-206 359 -206 413l-52 51h-34q0 -52 -69 -103l17 -17v-17q0 -52 -69 -52v-189l35 -52l-35 -34l18 -17l86 17h17l120 -120l-103 -35v17 l-17 -17h-86l-52 35l-155 -35q-120 41 -120 69z" />
<glyph unicode="L" horiz-adv-x="1042" d="M-45 97q64 65 193 88l105 -18h35v790q0 63 -52 105l-18 -18h-105q-91 0 -105 53q42 105 105 105l70 -17l88 17q386 -10 386 -87l-70 -53h-211v-53l18 -158l-35 -105h-18v-17h35v-18l-17 -88l35 -35l-18 -17l18 -18v-403l-18 -18v-18h123l263 36l88 -18l-18 18v70l35 105 l-35 88q27 70 53 70h53l35 -35l-18 -88l18 -70l-18 -228v-18l-35 -35h-579l-281 -17q-59 14 -105 105zM920 -118q0 37 53 77h76q54 -25 54 -71q0 -74 -65 -108h-36q-60 0 -82 90h6l-6 6v6z" />
<glyph unicode="M" horiz-adv-x="1154" d="M-238 -111l1 6q16 16 69 175q31 55 69 175l90 153q21 130 39 130h1l15 16l6 -1l-2 -12l-6 1l-1 -6q9 -1 7 -13l11 10l2 -6l-1 -6l4 5h3l11 -8l-4 -6l-1 -6l4 -13l-6 1l-1 -6l6 -26l-4 -5h-3l-15 9l-10 -24l-7 -67q-152 -190 -178 -349q-51 -133 -92 -133h-4zM-109 62 l104 51l16 -17l52 172h52q28 0 51 -120h35l-18 86v706l-17 -17h-51l-52 52l17 17q-107 0 -154 86l223 155h34l52 -35h69l52 35q4 -149 120 -276v-103l-17 -17v-17q58 0 103 -293h18l120 430h-17l-52 -17v86q9 52 138 121q0 51 35 51h223l52 -51v-17l-69 -52l-51 17l17 -17 v-586l-17 -17l17 -17l-17 -172v-121l17 17h51l69 -69q-10 -51 -241 -120l-120 17l-121 -17l-17 17v69h120q0 81 35 120l-17 18h34q0 -52 69 -52v17l17 534v104l-17 120h-17q0 -52 -52 -52v-86l-86 -344l-69 -69h-69q-40 1 -103 241q-65 94 -121 345h-17v-793l17 -17v-17 l17 17h52l35 -34v-69l-18 -18v-17l-86 17h-17q-26 0 -52 -68l-17 17h-17l-223 -34q-104 24 -104 103zM867 -55q18 20 45 20q0 18 30 25q14 0 30 -35q-4 -40 -35 -40l-20 10l-15 -15h-15q-20 8 -20 35zM1202 -60q0 12 35 15q0 18 35 35q30 -10 30 -40q0 -28 -25 -35l-25 5 l-15 -15h-10l-25 25v10zM1322 -60l35 10l-5 5v5q23 27 40 30q14 0 30 -35q-3 -40 -35 -40l-15 5l-15 -15h-15q-13 0 -20 35z" />
<glyph unicode="N" horiz-adv-x="1109" d="M-119 325h124l17 88l-17 71l17 18h36q35 0 35 -53l-17 -53h17l71 -18v760l18 213l-124 -18l-36 53v53l36 35h53q35 -35 159 -35v-18l18 18h53q92 -84 247 -531q76 -77 159 -353l18 -18h18l-18 389v425l-71 -18q-80 34 -88 71q26 30 230 53l18 17h123l71 -88l-53 -53h-88 v-354l-36 -53v-230l36 -53v-353q0 -36 -142 -53l-18 70h-17q0 -88 -53 -88h-53l-36 35l18 18v18l-53 53v35l35 53l-35 35l124 18l-230 495q-133 332 -177 372v-336l35 -53v-478l-35 -53v-71h124l35 -35v-18q0 -70 -407 -70q-141 0 -141 88zM924 123q30 75 52 244 q47 56 73 56q-38 -97 -78 -253l-41 -57zM966 -72q0 9 28 19l5 -5h4l38 24q29 -10 29 -38q0 -27 -24 -33l-33 14q0 -14 -10 -14h-18l-19 19v14zM1079 -77q10 24 29 24l18 -5q0 17 29 24q28 -10 28 -38q-7 -33 -33 -33l-28 9l-14 -14h-5q-24 14 -24 33zM1098 46q8 34 71 66 l9 -9l-66 -66h-4zM1382 348v4q13 12 41 127q23 41 42 127l67 115q0 93 19 93l12 13h7v-9h-7v-4q10 0 10 -8l10 8l3 -4v-4l3 4h3l13 -4l-3 -5v-4l6 -8h-6v-5l9 -17l-3 -4h-3l-16 4l-6 -17l3 -46q-125 -147 -125 -259q-32 -101 -76 -101zM1458 -96q0 17 61 43l14 9 q29 -10 29 -38q0 -26 -24 -33l-28 10q0 -19 -19 -19q-22 8 -33 28zM1576 -86q17 19 42 19q0 17 29 23q12 0 28 -33q-3 -38 -33 -38l-19 10l-14 -14h-14q-19 7 -19 33z" />
<glyph unicode="O" horiz-adv-x="1109" d="M28 521q5 31 21 229q33 0 66 181q207 238 363 263h66q269 0 395 -296q0 -83 66 -83v-82l33 -115l-16 -17l-24 -169h17v-17l-17 -16l33 -66l-16 -17l-26 34l131 4q-87 -48 -87 -50q0 -1 38 17q-3 -7 33 -7v-17l-98 -189q52 107 52 128q0 5 -3 5q-10 0 -52 -54l-51 -134 l-119 -44l-83 -30l-167 -42q-375 36 -501 351q-33 0 -54 233zM231 667q27 -99 66 -99v-33l-17 -16v-17q38 0 66 -66l-16 -16v-16l65 -83v-16l-54 -53q0 17 2 17q3 0 12 -60l-40 69l163 142v33h16l-167 -165q91 -162 192 -162q117 0 248 215l49 154l18 126v17q6 73 6 128 l-33 33l17 82q0 161 -264 198q-329 -54 -329 -412z" />
<glyph unicode="P" horiz-adv-x="1166" d="M0 11v69l155 103l17 17l52 -34l-17 86l34 69l17 -17h35v241l17 172q-52 11 -52 138v17l52 190l-172 -18h-17l-35 35q0 155 103 155q100 -10 155 -52h35l52 35h292l242 -86l120 -224v-173q-125 -241 -327 -241l-327 17l17 -17v-327l-17 -17v-17l172 17h69l51 -52 q-59 -103 -189 -103l-207 17l-310 -17zM448 597h155q24 34 275 51l18 121q-9 159 -52 207l34 34q-103 69 -189 69h-189l-18 17h-17v-34z" />
<glyph unicode="Q" horiz-adv-x="1071" d="M0 526v167q95 305 284 517l16 -17l17 17h17l16 -17l67 17q500 -50 500 -434l34 -100v-167q-93 -304 -267 -467v-99q0 -128 67 -150h66v33l-16 17v16q83 0 83 84l50 50l67 -67q0 -167 -150 -267h-100q-100 36 -184 234v66l17 17v17q-382 0 -484 266zM117 509 q0 -71 66 -217l151 134h116q115 0 250 -217q117 235 117 334v133q0 241 -200 384q0 28 -117 33h-116q-121 0 -267 -484v-100zM267 159l100 -67h133l50 50q0 139 -150 184q-76 -55 -133 -167z" />
<glyph unicode="R" horiz-adv-x="1078" d="M-160 1652v18l35 34l17 -17v-17l-17 -18h-35zM-75 1v68l155 104l17 17l51 -35l-17 86l35 69l17 -17h34v241l18 172q-52 11 -52 138v17l52 189l-173 -17h-17l-34 34q0 155 103 155q100 -10 155 -51h34l52 34h292l241 -86l121 -224v-172q-125 -241 -327 -241l-327 18 l17 -18v-327l-17 -17v-17l172 17h69l51 -51q-59 -103 -189 -103l-206 17l-309 -17zM372 586h155q24 34 275 51l18 121q-9 159 -52 206l34 35q-103 68 -189 68h-189l-17 18h-18v-35zM569 258l17 17h17l17 -17q12 9 9 52l17 17v18q-25 25 -25 56q0 82 180 202l17 -17v-18 q0 -51 -106 -58l106 -200v-120h34l86 17l69 -120q-40 -103 -69 -103h-51q-206 0 -250 153q-51 0 -51 35v17h34v35q-51 0 -51 34z" />
<glyph unicode="S" horiz-adv-x="974" d="M0 37q52 447 118 455q51 0 51 -151q164 -220 303 -220l17 -17h84q122 50 169 152q0 185 -270 219q-371 58 -371 287q49 455 321 455q263 -74 303 -118q33 77 68 85q67 -26 67 -51l-51 -202v-118l-50 -51q-45 0 -203 236l-84 17q-253 -33 -253 -169q67 -185 270 -185 q388 -18 388 -253q34 0 34 -84q-72 -253 -186 -253q0 -59 -185 -84h-34q-126 8 -304 151q-73 -113 -168 -151zM253 627q0 -50 67 -50h34v17l-84 33h-17zM489 1066h67v17h-67v-17z" />
<glyph unicode="T" horiz-adv-x="1086" d="M0 650l32 580h16q33 -32 145 -32v-16l17 16l80 -16h97l48 48l-16 16l16 16h81q32 0 32 -80h339q64 -26 64 -113v-210l-16 -16v-16l32 -32v-32q0 -124 -64 -146q-97 0 -97 242h16l-16 16v33l16 16v16l-32 32v81l16 16v16h-274l16 -113l-32 -48v-194l32 -48v-306l-32 -49 v-145l64 -81h210l48 -48v-16l-48 -48h-629l-64 64v16l32 32h226l48 49l-32 209l16 113v33h-16l16 112v436l16 16v16h-274l16 -16v-210q-32 -32 -48 -209l-16 -16h-49l-16 16h-16z" />
<glyph unicode="U" horiz-adv-x="1087" d="M0 1137v16q0 66 311 66h99q32 0 32 -50q99 0 99 -32v-17q0 -24 -66 -49l-98 17h-16v-361l32 -49v-49l-32 -49v-246l65 -181h66q229 0 229 148h16l-49 672v82l-147 147l16 17h377q33 0 33 -50h82l33 -32l-50 -66l-81 17h-50v-738q-48 -360 -295 -360q-381 0 -426 344v606 l17 115h-17l-82 -17q-36 89 -98 99z" />
<glyph unicode="V" horiz-adv-x="1079" d="M0 1148l55 74l203 -19l55 56h37q74 -30 74 -129q-81 -56 -148 -56v-18l74 -92v-166q166 -482 166 -590h18q31 277 74 277l-18 18l129 571h-19q-80 0 -110 74v37l36 55l93 -18h221l55 37l37 -37v-92l-74 -74l-110 18q-169 -1086 -332 -1086q-181 0 -313 957q-25 0 -37 129 h-37v19l-18 -19h-37z" />
<glyph unicode="W" horiz-adv-x="1101" d="M0 1124v34l52 52h86l154 -52v-17l-86 -69l35 -137l-17 -103l86 -104v-51l-18 -17l35 -121l-17 -69l17 -69l-35 -34l69 -52q41 517 138 517h17l258 -138l52 310v86q-69 0 -103 68l68 52h35q206 -39 206 -69q-34 -69 -103 -69l17 -86h-17l52 -172v-34l-18 -17l35 -86 l-17 -52q137 -138 137 -224l-17 -17h34l-34 -34l-69 34l-69 -69l18 -51h-18q-86 -43 -86 -172q-41 0 -137 -103l-17 17h-18l-51 -17q-69 254 -86 464h-35l-51 -69h34v-51h-51v-35l17 -120l-17 -17h-18l-17 17q-47 -172 -86 -172h-17q-155 106 -155 395l-17 18l-52 671 q-103 0 -103 34z" />
<glyph unicode="X" horiz-adv-x="1124" d="M-67 1231l54 53l17 -89l-17 -18h-18zM4 61v89l53 53l124 -18l248 443q-119 285 -230 443l-124 -35l-53 71v70l53 54h159l53 -36l54 36l35 -36l53 18l36 -53v-18q-11 -53 -124 -53q159 -201 159 -337q30 0 89 213l70 124q-80 34 -88 71l88 71h89l159 17q89 -22 89 -53 v-106l-35 -36h-18l-53 36h-89l18 -18v-18l-213 -460q55 -34 124 -195l53 -124q124 -13 124 -71l18 18h36l88 -89v-53l-88 -71h-213q-35 35 -142 35l-141 142l88 89l-35 159h-18l-177 -265v-18h35l18 18h18l53 -71q0 -45 -390 -106z" />
<glyph unicode="Y" horiz-adv-x="1086" d="M0 1164l18 54l-18 18l18 18h72v-36h36v36h161v-36h107l36 -36v-18q0 -36 -107 -36q121 -412 161 -412l179 412q-89 0 -89 36q0 54 107 54v36h-89v18q0 36 54 36l89 -18l162 18h35l36 -36v-18l-89 -18v18l-36 36q0 -54 -72 -54l-18 -18v-18l179 18h54l36 -36v-18 q0 -54 -233 -71q0 -140 -143 -359h-18l18 -18l-90 -269v-179q0 -108 90 -108l53 18v-18l18 18h18l108 -90v-35q-18 -54 -108 -54h-394l-72 18l-54 -18l-54 143q251 30 251 108v197l-233 646v17h-143q-36 0 -36 54z" />
<glyph unicode="Z" horiz-adv-x="1056" d="M0 849v17l18 71l-18 18l36 36v35l-36 54v124l71 71l53 -18l196 18q0 -36 124 -53l36 -36l213 18h160l35 -36v-17q0 -48 -391 -640l-284 -391h36q246 0 337 54l142 -36l53 36l18 195l-18 71l18 18h18l-18 18v35q18 53 107 53l53 -53l-18 -142l18 -142q-52 -230 -106 -230 h-746l-71 70l426 622l231 355l17 18l-71 35h-17l-71 -35q-338 0 -338 -54v-53l36 -53v-107l-89 -106h-18l-89 89l36 35l-36 53z" />
<glyph unicode="[" horiz-adv-x="405" d="M-4 -18l12 126v1117l12 18l-12 18v72q0 72 165 72l88 -10q32 19 -13 -161l-47 -36l12 -18v-36h-35l-19 172v-36l101 -26l-124 -10v-36l124 10l-12 -18h-47l-59 18l2 -1144l17 801l-17 -761l29 -18v-18l53 17q54 -35 59 -72v-23q-81 -126 -35 -82l-77 10l-106 -18 q-47 0 -71 72z" />
<glyph unicode="\" horiz-adv-x="637" d="M8 1131v36l66 73h27q45 -10 93 -219q159 -297 159 -365l132 -274q17 -114 159 -347q-18 -91 -93 -91h-26q-53 48 -225 548l-40 54l13 19q-265 472 -265 566z" />
<glyph unicode="]" horiz-adv-x="427" d="M-203 -218l19 18q247 -32 127 -73v-18h-36q0 -55 -37 -55h-73v73l19 18v19zM3 1330q71 37 65 37h201l67 18l18 -55l19 -1257l18 -91q-73 -36 -73 -109h-18l-19 18h-18l-36 -36h-91l65 36h-55l-54 -36h7q0 36 -54 36l-19 18v109q0 47 33 -6l133 19l22 625l36 55v236 q-36 37 -47 290h-73l-55 -36h8q-59 0 -80 129zM391 -309l36 36l18 -18v-55h-18zM445 547v36l55 -18v-37z" />
<glyph unicode="^" horiz-adv-x="494" d="M0 905v33l223 283h13q40 -21 79 -150q119 -72 119 -183v-17l-40 -66l-158 183h-26l-171 -183q-26 0 -39 100zM446 971v108l34 18l22 -36v-18l-11 -18h-11l-11 18v-36l11 -18h-11l-11 -18h-12z" />
<glyph unicode="_" horiz-adv-x="831" d="M-15 -33l26 23h79l13 -11l13 11h66l40 -11l65 11h408l39 -34v-46l-13 -11v-11l-394 -12h-105l-145 -22h-53q-39 7 -39 91v22z" />
<glyph unicode="`" horiz-adv-x="442" d="M22 1096v46l108 65l232 -235v-15l-78 -77q-220 216 -262 216z" />
<glyph unicode="a" horiz-adv-x="944" d="M-23 180v153q89 168 363 168h140l126 42q0 168 -140 168h-112l-97 -14l14 -70q-52 -42 -98 -42q-154 0 -154 126q123 140 321 140q364 0 364 -224l14 -84v-42l-28 -335q28 -28 112 -28l98 -14l14 -42q-29 -84 -112 -84h-42q-140 0 -140 140h-14q-161 -140 -461 -140 q-106 55 -168 182zM89 250q0 -136 140 -154q168 20 363 196v41l-42 70l-168 -28l-139 14q-154 -18 -154 -139z" />
<glyph unicode="b" horiz-adv-x="974" d="M0 1195l222 30q103 0 118 -133l-15 -104v-207h15q124 118 267 118q156 0 266 -266l15 -178q-57 -458 -281 -458q-252 20 -252 133h-44q-30 0 -45 -118h-14q-60 19 -60 133v177l-14 281l14 15l-14 59l14 370h-88q-104 66 -104 148zM311 455q97 -251 162 -251q70 0 104 -30 h30q148 73 148 341v14q0 193 -163 193q-200 0 -281 -237v-30z" />
<glyph unicode="c" horiz-adv-x="817" d="M-60 839l41 41l41 -41l-41 -41zM8 402v55q0 272 273 382l178 27q29 -27 150 -27l109 -150q0 -106 -68 -137h-96q-68 25 -68 151l-14 -14h-13l-123 14q-150 -60 -150 -192l13 -68h-13l13 -13v-14l-13 -14q41 -204 150 -204l136 41l41 -14q93 177 164 177h14q40 0 40 -177 q-69 -151 -177 -191l-136 -41h-41q-191 0 -369 409z" />
<glyph unicode="d" horiz-adv-x="951" d="M0 484q69 383 339 383q154 0 251 -147v354l-30 29h-162q-34 0 -44 74q47 44 310 44l73 -88l-15 -605v-88l15 -133l-15 -15v-14l15 -15v-15l-15 -118h163l29 -29v-15q0 -36 -177 -74h-59q-59 16 -59 148h-14q0 -62 -163 -162h-29l-59 14l-59 -14q-280 111 -280 398z M103 469l118 -324l103 -30q158 0 192 118q0 89 59 89l30 44l-15 103v104q-151 165 -236 206q-133 -118 -192 -118v-88q0 -45 -59 -45v-59z" />
<glyph unicode="e" horiz-adv-x="831" d="M15 420v27q86 433 314 433q287 0 406 -297v-109q0 -40 -52 -40l-118 27h-66l-78 -27l-131 13q-118 0 -118 -54q77 -164 157 -189h92q103 42 209 162q66 -19 66 -95q0 -82 -144 -243q0 -27 -66 -27h-13q-366 136 -366 243q-92 73 -92 176zM198 569h157l223 14 q0 67 -183 149q-66 0 -197 -149v-14zM1028 -45q18 67 76 67q50 -26 50 -84v-25l-33 -51h-66l-27 42v51z" />
<glyph unicode="f" horiz-adv-x="944" d="M0 767v16l62 62h47l15 -15l16 15h171l-16 155v16q0 135 280 186q295 -46 295 -264l-62 -46h-94l-46 46v16l15 109l-77 15h-47q-171 0 -171 -217v-31l16 -16h15l171 16l47 -63v-31l-47 -46l-155 46l-16 -15v-357l-15 -233h233l31 -31v-78l-31 -31h-16l-155 31l-249 -31 q-201 11 -201 62q9 93 46 93l124 -15l125 31l-16 124l16 419l-78 16l-186 -16z" />
<glyph unicode="g" horiz-adv-x="1064" d="M-10 -40q0 111 77 123l123 -16q0 31 46 31l-62 92v31q0 83 92 199q-46 0 -46 31v107q0 234 307 261h46l108 -30q158 76 230 76h31q153 -96 153 -184q0 -84 -138 -138q-92 32 -92 123v15l15 16v15h-92l-15 -15h-15q70 -106 76 -200q0 -165 -199 -230l-92 -31l-62 15 l-61 -15h-16q-30 0 -30 46h-31q-38 0 -46 -61l15 -46l384 30q323 -48 323 -276v-15l-62 -92h-15l-16 15h-15v-138h-31v46h-30v-46l15 -15v-15q-114 -77 -307 -77q-127 0 -368 107l-46 -15q-154 80 -154 230v46zM328 -40q138 -57 138 -153l-15 -16l15 -15h184l230 46v92 q0 138 -322 138h-46q-184 0 -184 -92zM358 512q0 -134 200 -153q138 36 138 169q0 97 -153 153q-185 -20 -185 -138v-31z" />
<glyph unicode="h" horiz-adv-x="1109" d="M0 1149q9 35 120 90q196 0 196 -75l-30 -391l15 -91q65 0 181 121q98 75 150 75q0 -51 106 -60v45h45q65 0 75 -241l-15 -466h30v-16l166 31l15 -15v-16l-15 -15v-15l15 -60l-45 -30l-377 -15l-30 45v45q75 61 166 61v45l-15 135l15 151q0 260 -106 301q-200 0 -346 -301 v-331h121l60 -91q-15 -45 -91 -45h-180l-181 -30l-15 15v75l75 91l91 -31l15 16v210q0 76 -30 76l15 75v226q4 105 30 105l-15 75l15 166l-45 15l-136 -15z" />
<glyph unicode="i" horiz-adv-x="921" d="M0 100l64 89l143 -30l143 30l-16 15v310l16 178l-16 15h-15l-160 -30l-16 15v15l16 15v15h-16l-111 -30l-32 44v30l64 59h382l64 -89q63 0 63 -29v-296l-32 -252l16 -15l112 15h111q48 0 48 -89q64 0 64 -44q-24 -59 -48 -59h-557q-287 81 -287 118zM255 1092 q32 85 111 118h96q175 -127 175 -192q-72 -59 -111 -59q-210 60 -271 133z" />
<glyph unicode="j" horiz-adv-x="697" d="M-40 -164q54 194 113 194h49l48 -48v-32l-16 -17l16 -16v-32l-16 -81l129 -32h16q120 0 130 48v81l-16 501l16 242h-162l-97 -16q-129 24 -129 113q121 113 178 113h16q339 0 339 -113v-259l16 -80l-16 -97v-469l-16 -16l16 -16v-16q-145 -210 -323 -210l-258 81l-33 48 v129zM288 1143h9v2h-9v-2zM332 984v80q107 146 194 146h32q36 0 65 -113q-69 -181 -113 -194h-81zM370 1143h4l19 2v2h-9l-14 -2v-2zM463 332h81v16h-81v-16zM473 459l4 5l3 -3v-7h-3zM520 915v2q0 28 30 28q31 -7 31 -30q0 -22 -31 -26q-30 7 -30 26zM585 699q0 23 26 23 q21 -4 21 -19q-6 -23 -23 -23q-24 0 -24 19zM589 -338q0 12 12 18h14q21 -4 21 -23q-5 -19 -23 -19q-12 0 -24 16v8zM593 114v5h30q0 11 5 11q2 -12 9 -18v-5l-5 -5h-16v-7q-12 0 -14 7v12h-9zM607 774v9q0 18 7 19h4l7 -7v-19l-9 -9zM639 880v7l10 9h9l7 -9q-3 -10 -11 -15 q-13 0 -15 8zM670 360v3q0 29 19 61h2l5 -5v-4l-5 -8h5v-4h-5v-3l3 -2v-2l-10 -14h-2l2 -3v-2q-10 -17 -14 -17zM676 -24q0 21 26 21h7l14 -14v-16q0 -9 -25 -14q-14 5 -22 16v7zM684 100v12h7l5 -5v-3l-5 -4h-7zM698 -134q0 19 28 19q14 -5 14 -19v-5q0 -16 -17 -16h-9 q-16 0 -16 16v5zM738 638l2 -7h8l-3 2v2h3l2 -2l2 2h3l9 -4v4l-16 14l-3 3v2h-2v-5h2q-3 -11 -7 -11zM858 375v4h5l7 -7v-2h-7zM874 865v5l5 5h5l4 -5v-5l-4 -4h-5zM903 314v4h4l5 -4v-3h-2zM924 830l7 5h7q44 -10 44 -19l-32 -7q-15 7 -26 21zM1025 436l23 18l5 -14v-4 l-10 -10h-9zM1081 515v8h5l4 -5v-3l-4 -4z" />
<glyph unicode="k" horiz-adv-x="1106" d="M8 30q54 143 175 143v206l-32 270l32 80l-32 95v16l16 270q-159 16 -159 48v16q0 27 79 47q0 48 64 48v16l159 -32l-16 -111v-79l16 -159h-48v-48h48v-16q0 -32 -48 -32v-47h32l16 16h16l16 -16v-16l-16 -64l16 -47q-24 0 -48 -64h16l-16 -16v-16l32 -32h16l47 80v32 l-16 16l48 63h16q48 -9 48 -111h63v95h-32v32h80v-32q111 0 111 64q0 32 48 32v47h-32l-16 -16h-16v48q48 0 48 32l16 -16h47l16 63l16 -15h16l16 15h16l127 -31v-48h-48v-32l32 -47l-48 -32l-143 16l-143 -143h-15v31h-48v-47h32q0 -111 -64 -111l48 -128h47v48h16 q159 -170 159 -286h-16v-48h16l159 16l32 -47l-16 -16v-16l-48 16l-302 -32q-63 24 -63 48v16l79 15v112q-143 258 -270 270q-127 -111 -127 -175l-16 -127h175l-16 -48l16 -79l-48 -16l-349 -31zM246 77h112v48h-112v-48z" />
<glyph unicode="l" horiz-adv-x="899" d="M0 55v15q86 179 154 179q69 -45 183 -45h42v283l14 283l-14 223h-28l-98 -15v15l-14 -15h-14q-183 0 -183 119v15q0 30 84 30q7 60 42 60h351q71 0 225 -164q42 -15 42 -89q0 -30 -56 -30l-14 -15v-15l14 -15h14l-14 -45h-98q0 -44 -42 -74q-43 -61 -43 -372v-30 l-28 -119l14 -15h239q84 0 84 -59q-42 -164 -112 -164h-28v15l-141 -15h-56l-266 15l-155 -15q-98 20 -98 59z" />
<glyph unicode="m" horiz-adv-x="1101" d="M0 66v31q0 26 109 47v16l-15 156l15 391h-15q-94 32 -94 63v62l47 47q33 -31 172 -31l16 -16v-31l-16 -16v-15h16l171 140h63q109 -78 109 -125h16l141 125h31q83 0 188 -109l-32 -422v-203q0 -26 110 -47v-78q0 -47 -235 -63q-71 30 -78 63v31l94 94v437l-31 47v125h-16 l-156 -140l15 -16v-16q-47 -54 -47 -187v-250q94 -81 94 -125l-62 -47h-188l-47 47v46q0 32 63 32l15 265v282l-15 109h-32q-187 -115 -187 -406l-16 -94l32 -109v-47q93 0 93 -32v-31q0 -67 -250 -78z" />
<glyph unicode="n" horiz-adv-x="1071" d="M0 98h14l-14 14v42l43 57l70 -14h57v525l-85 -29q-58 20 -85 71q0 51 57 113l99 -14h14l57 14q58 -19 85 -70v-29l-14 -71q163 156 269 156l71 14q57 0 170 -127v-581l71 14q99 -14 99 -43v-71q-8 -34 -99 -70l-298 14q-42 14 -42 85v42l28 29h142l-28 42v355 q0 170 -57 170h-14q-280 0 -312 -355v-14l14 -57l-28 -113q31 -32 156 -43l14 -14v-99q-14 -42 -85 -42h-241q-83 0 -128 99z" />
<glyph unicode="o" horiz-adv-x="914" d="M0 485q80 275 212 353l141 57q344 0 494 -325l15 -113v-85q0 -281 -382 -367h-14q-267 57 -367 198q-99 138 -99 282zM254 400q10 -197 85 -197h169q142 87 142 268v56q0 137 -226 156q-90 0 -170 -113v-170z" />
<glyph unicode="p" horiz-adv-x="1019" d="M-30 -192q12 43 101 72l87 -14h44v797h-87l-102 58l-14 72v15q9 87 43 87q290 0 290 -87v-15h29q121 87 203 87q198 0 319 -246q44 -141 44 -247q-41 -391 -334 -391l-217 116h-15v-246h145q44 -18 87 -131v-29q-14 -43 -87 -43l-188 29h-29l-131 -15q-116 29 -188 116 v15zM376 358l145 -188q32 32 159 43q64 78 87 247q0 97 -101 174q-15 58 -87 58q-189 -127 -189 -261z" />
<glyph unicode="q" horiz-adv-x="817" d="M-412 795q7 74 21 74q24 0 49 19h7v-118l-14 -13h-56v31zM-299 644l10 10l47 -10h47v-9q-9 -28 -56 -28h-19q-14 0 -29 37zM-225 205v40h26l27 -27v-13h-53zM2 368v67q0 265 229 363l67 54h107q148 -18 148 -81l107 67h27l27 -27v-134q0 -27 -81 -27v-13l27 -41h-40v-13 l13 -13q81 -41 81 -94l-27 -564l13 -40h121q72 0 94 -54q-50 -121 -94 -121v-94l-13 -13v-13l-228 13h-108v27h67l41 27h67v53h-27l-134 -13q-88 0 -121 81q106 107 147 107q27 0 27 67l27 27v174q-102 -121 -282 -121q-218 0 -282 349zM96 -332l27 27h14v-13l-14 -67h-27 v53zM163 473q0 -208 108 -282q201 0 201 81l54 54v27l-14 40h14l40 -14v41q-27 27 -27 121q-24 0 -107 120l-121 14q-148 0 -148 -175v-27zM660 -291v-14h67v14h-67zM1038 575v12h90q0 29 14 29q7 -31 28 -47v-12l-14 -12h-49v-17q-36 0 -41 17v30h-28z" />
<glyph unicode="r" horiz-adv-x="966" d="M-16 34v90q0 30 165 45q0 30 90 30v494l15 15v15h-45l-120 -30h-30q-60 31 -60 75q0 90 285 90l15 15h15q75 -101 75 -150q165 135 254 135h75q102 0 195 -165v-105l-60 -60h-90q-34 0 -75 135q15 60 60 60v15h-60q-57 0 -135 -75l15 -75v-90h-45l15 -15v-15l-30 -90 q60 0 90 -59v-30l-75 -90l45 -30h60l45 30l90 -120l-30 -30h-75q0 -60 -60 -60l-209 -15l-135 15l-60 -15l-15 15h-15l-90 -15h-30zM908 2q27 65 113 65q73 -25 73 -80v-24l-48 -49h-97l-41 40v48z" />
<glyph unicode="s" horiz-adv-x="944" d="M0 20v16l62 217l-46 124l15 16h47q62 0 77 -202q123 -109 202 -109h109q279 0 279 248v16q0 76 -574 124q-109 72 -109 202q0 144 295 186l310 -62h16l62 62q78 0 78 -186v-47l-31 -31h-16q-126 156 -372 156h-47q-129 0 -202 -109q0 -49 140 -124q574 -31 574 -233 q-48 -279 -279 -279l-249 -16q-65 0 -170 93l-124 -93h-16z" />
<glyph unicode="t" horiz-adv-x="929" d="M0 826q65 61 123 61h124l15 -15h16v15l-16 263q22 108 62 108h16l77 -62v-46l-47 -247l47 -31l324 15l62 -77l-62 -77l-108 15h-62q-154 0 -154 -46l-31 -123v-232l-16 -62q0 -122 109 -185q136 0 231 201l108 31l62 -93l-247 -247h-154q-217 71 -217 185l-30 46l30 510 l-108 15h-46l-77 -15zM432 440l31 30l16 -15l30 31h16l15 -62q-19 -77 -46 -77h-15l-31 31v15h46v16q-62 0 -62 31zM895 301l16 15h46l31 -31l-31 -31h-15z" />
<glyph unicode="u" horiz-adv-x="1034" d="M8 733v41q14 42 83 42h68l97 -14v-14l-28 -41h14l41 14v-14l-27 -28l14 -13v-14l-28 -42l28 -27l-28 -41l28 -28v-372l27 -27h14v399l28 28h13l14 -14h14l-28 -97q28 0 28 -41l-14 -275l41 -14q175 0 276 303v234q0 25 -97 83h-13v-28h-14l-41 14v27q8 42 110 42h137 q0 -69 69 -69l42 -41v-83l-42 -468q83 0 83 -97l69 14h14v-41q0 -25 -124 -41l-234 68l-138 -55h-69q-262 34 -262 207v496q0 27 -41 27l-110 -14zM531 72h14q110 0 110 96h-13zM752 237q82 88 82 193v179q0 72 -41 83h-28l14 -97l-27 -261v-97z" />
<glyph unicode="v" horiz-adv-x="951" d="M0 765v28q14 42 84 42h237q56 -23 56 -98q0 -28 -84 -41v-28l140 -475h28q83 325 153 489l-97 97v14l41 42h280l55 -56l-27 -28l14 -14v-28q-167 0 -196 -223q-140 -502 -195 -502q-130 0 -168 265q-144 433 -167 433l-42 -14z" />
<glyph unicode="w" horiz-adv-x="1184" d="M-233 -60q10 47 29 72q77 -39 77 -67v-7q0 -22 -37 -36q-27 0 -66 31h-3v7zM8 764q83 72 171 72l42 -15v15q200 -15 200 -72l-71 -85v-14l28 -57l-14 -15v-14q57 -126 57 -256v-57l42 -43q33 413 143 413h28q53 0 129 -327q42 0 42 57h29v71l42 213v29q-56 60 -56 114 q0 24 227 57l57 -57v-43q0 -28 -85 -57l-14 -100v-113q-57 0 -57 -171v-72l28 -42v-43l-14 -14q-57 -33 -57 -86l-43 -28h-128q-43 0 -43 156q-42 0 -42 171l-43 43q0 -77 -57 -171l28 -28l-28 -29l28 -85v-14q-63 -85 -156 -85q-84 0 -100 284q-37 413 -142 413 q-150 0 -171 85zM16 -91v-2h9v2h-9zM89 212v7q0 16 16 38q8 0 21 -10l5 5l33 -17q10 0 23 12h3q8 0 14 -33q0 -29 -49 -49h-12q-37 0 -54 47zM98 -91v-2h5l19 2v3h-10zM169 1073l2 -7h7l-2 2v2h2l2 -2l3 2h2l9 -4v4l-16 14l-2 3v2h-3v-5h3q-3 -11 -7 -11zM354 1265l7 5h7 q45 -10 45 -19l-33 -7q-15 7 -26 21zM455 871l24 18l4 -14v-4l-9 -10h-10zM511 950v8h5l5 -5v-3l-5 -4zM744 1066v25h25l37 -37v-13h-37zM986 920v7q0 13 12 19h14q21 -4 21 -24q-6 -18 -24 -18q-12 0 -23 16zM1073 1235v7q0 21 26 21h7l14 -14v-17q0 -8 -26 -14 q-14 6 -21 17zM1119 850v28h28l29 -28v-14h-15z" />
<glyph unicode="x" horiz-adv-x="1056" d="M-316 400v41q22 50 95 50l28 -80v-11l-37 -40h-19q-51 0 -67 40zM6 39v15l44 44q102 -11 102 -30q64 30 292 351v44l-190 204h-117v29h73l-29 29h-58l-73 -14l-30 44q0 34 278 58l131 -29v-29h-87v-15l131 -204l58 -44l176 219v14q-103 15 -103 44l44 44l29 -29h292 l30 -29q0 -30 -176 -44l-14 -15v-29h58v-15q-6 -58 -248 -277q0 -77 219 -307l58 -14l88 14l15 -14v-30l-30 -43l-73 15h-58q0 -29 44 -29v-30h-88l-102 -14q-88 88 -88 145l88 30v14q-78 129 -102 132h-29q-53 0 -176 -176l44 -72q-61 -59 -146 -59h-175zM137 -4v-15h117 v15h-117zM222 -300l26 27h35l26 -27v-27q-8 -27 -52 -27l-35 36v18zM356 141h15l58 73h-14zM575 404h29q152 127 190 219h-14l-205 -190v-29zM955 -48l44 15l14 -15v-15l-14 -14h-44v29z" />
<glyph unicode="y" horiz-adv-x="1064" d="M-338 294v15l22 25q26 0 31 -40l-13 -20l-5 -5h-13zM-255 594v30q14 40 61 40q39 -16 39 -50v-15l-26 -30h-52zM-121 -180h13v-10h-13v10zM-6 797l45 31h355l62 -62l-46 -77h-31v31h-46l-31 -31v-15q170 -377 246 -417q0 137 108 324l16 93q-85 25 -124 77v46l31 31h355 q46 -16 46 -93v-31q0 -30 -46 -30l-139 30h-15q-34 -225 -77 -324l15 -46l-15 -15l31 -31l-16 -15l93 -124v-15l-16 -16l16 -15v-31h-93q-170 -127 -170 -231q0 -137 -185 -231h-169q-170 0 -170 293l62 62h15q84 0 124 -78v-15l-47 -108l93 -31q113 0 185 324l15 15v31 q-120 165 -246 555l-78 62l-123 -31zM826 380q10 93 46 93v-15l-15 -78h-31z" />
<glyph unicode="z" horiz-adv-x="899" d="M-60 81q166 148 431 460l187 173l-14 14h-187q-201 -34 -201 -72v-129l-43 -43l-29 28l-15 -14h-14l-71 14l14 173v86l57 58h130l431 14q101 0 101 -86q57 0 57 -29l-604 -618l15 -15v-14l14 14h316l58 -14q115 0 115 288l14 14h29l86 -101q-11 -301 -86 -301h-518 q-196 0 -273 100zM156 153l518 518v28h-15q-201 -182 -503 -532v-14zM730 1076v37q21 45 91 45l28 -73v-9l-37 -36h-18q-49 0 -64 36zM749 648v19l27 27h36l28 -27v-28q-9 -27 -55 -27z" />
<glyph unicode="{" horiz-adv-x="508" d="M-240 -162l7 7h6q87 -69 116 -69h26q43 0 83 49q57 0 57 56q0 110 -160 144q-20 0 -20 14v7q11 28 45 28q71 0 161 -137q0 -98 26 -118q-104 -160 -166 -161l-26 -7q-40 0 -103 97q-51 34 -52 90zM-188 863h41v-32h-13zM-63 736v48l14 16v16l41 -16v-16l-41 -48h-14z M6 608v31q0 25 64 63l-1 433q29 106 118 172h73l37 -61v-16q-46 -78 -110 -78l2 -449l-37 -47l-9 -16v-15q48 0 56 -325l9 -47l-18 -155q78 1 110 -92v-15q0 -31 -91 -62q-128 -1 -129 308v263z" />
<glyph unicode="|" horiz-adv-x="285" d="M-7 2l48 727l-16 453l81 80q81 -37 81 -80q0 -1198 -97 -1228h-32z" />
<glyph unicode="}" horiz-adv-x="449" d="M-121 873l2 77h33q24 -47 75 -48l-1 -31zM-19 -9l1 15q1 50 125 59v16q-50 1 -49 32l62 14l1 31l10 417v15q-37 1 3 139l-12 16l14 77l8 324q-136 30 -135 65l1 30q1 47 124 45l113 59q-1 -38 -50 -45l-13 -15l-1 -31q112 -2 108 -172l-8 -355q-2 -88 84 -110v-15 q-88 -45 -90 -122l-8 -356q-5 -200 -227 -196q-56 31 -61 63z" />
<glyph unicode="~" horiz-adv-x="947" d="M-6 504v73q0 78 243 146l412 -97l122 72l72 -72q-104 -195 -267 -195q-258 73 -436 73h-25l-72 -48z" />
<glyph unicode="&#xa1;" horiz-adv-x="345" d="M-1 759q44 161 110 159l11 -20v-20l12 20l59 -2q82 -91 79 -203q-11 -69 -73 -120l-24 1q-161 100 -174 185zM15 -210q30 665 84 664l22 -81h12q2 80 38 80q35 -1 32 -162l8 -182l23 -41l-1 -40l6 -303l-97 -79q-118 75 -127 144z" />
<glyph unicode="&#xa2;" horiz-adv-x="794" d="M-9 415v27q0 297 286 395l95 13h54q245 -40 245 -149l13 -14v-27q0 -74 -68 -109h-68l-81 82v68h-82l-54 13q-177 -68 -177 -231v-13l14 -68l-14 -14q27 0 41 -122q70 -68 122 -68h28l122 40l27 -27l95 177l68 14h14q34 0 41 -164q-86 -231 -340 -231l-14 -13 q-185 0 -367 421zM15 -2v14q128 173 525 887l-15 45l61 45h60l45 -45v-15q-53 -139 -361 -586l-210 -391h-60z" />
<glyph unicode="&#xa3;" horiz-adv-x="906" d="M-209 344q18 52 104 52l52 -52v-69l-35 -34q-78 28 -121 103zM-2 120v155q72 121 103 121h52l138 -35v35l-18 86l-17 -17q-207 17 -207 51q0 121 138 121v35l-138 68v52l87 69q0 204 241 379h103q241 -78 241 -224v-69q0 -120 -103 -120l-69 51v155l-34 35h-138 q-71 0 -121 -190l17 -17h121q132 0 155 -69v-17q-35 -69 -86 -69l-172 17v-17l51 -86l18 17h137l69 -69q-33 -78 -69 -86h-86v-207q0 -82 104 -138h51q121 94 121 190l-17 86q26 69 51 69h18l86 -86q0 -331 -190 -430h-155q-120 80 -120 120h-18q-84 -86 -224 -86 q-47 0 -120 120zM118 172h87l34 34l-17 18h-104v-52z" />
<glyph unicode="&#xa4;" horiz-adv-x="951" d="M30 974v14l82 82l165 -164q82 55 151 55h55q71 0 123 -42h14l137 151h14l69 -68v-14l-124 -151l41 -165l-55 -219l151 -165l-68 -55l-14 14h-14l-27 -27q-99 178 -151 178l-82 -27l-179 27l-110 -165q-90 0 -151 96l165 165q-41 46 -69 192l42 110v14zM318 727 q22 -233 82 -233h124q82 49 82 165v41q0 123 -164 137h-55q-69 -35 -69 -110z" />
<glyph unicode="&#xa5;" horiz-adv-x="1042" d="M7 1146q0 58 247 71q141 -18 141 -53v-18q0 -35 -70 -35q106 -290 106 -371h106l123 336v35q-53 0 -53 35v18q0 42 142 53v-35l176 17h18l35 -35v-35q0 -36 -194 -53l-106 -336h124l35 -35v-53l-35 -36h-159l-71 -88v-53l177 18q70 0 106 -71v-17l-71 -71h-230v-18 l18 -282l-53 -35h-35q-71 0 -71 335h-194l-35 35v71l35 35h194q-32 141 -70 141l-124 -17q-35 88 -71 88v35l124 18h35v35q-123 244 -123 318h-124z" />
<glyph unicode="&#xa6;" horiz-adv-x="532" />
<glyph unicode="&#xa7;" horiz-adv-x="809" d="M0 679v70l138 193l-34 123q86 175 259 175h69q140 0 294 -175v-71q0 -35 -190 -52q-52 49 -52 193l-104 35h-52q-107 0 -155 -158q0 -75 173 -88l311 -193l52 -70v-105q0 -187 -121 -210h-18v-53q52 0 52 -35v-18q-34 -27 -34 -192l-104 -53h-69l-17 18l-18 -18h-103 q-117 35 -208 175v53l69 70h18q127 0 138 -53l-52 -140l121 -17q0 35 86 35q42 70 87 70v52q-84 176 -225 176q-311 168 -311 263zM104 661l17 18h17q0 -70 121 -70l294 -193l52 70v123q-137 136 -432 245q-69 -114 -69 -193z" />
<glyph unicode="&#xa8;" />
<glyph unicode="&#xa9;" horiz-adv-x="1378" d="M-5 426v314l189 370q123 122 355 167h118q639 0 639 -851q-279 -481 -568 -481h-189q-290 0 -544 481zM66 521q163 -397 412 -493h248q255 0 439 431h28l-28 20v83l55 61v41q-155 513 -467 513h-247q-351 0 -440 -656zM150 1059l45 45l46 -45l-46 -46zM218 564v56 q0 278 303 390l197 27q32 -27 166 -27l121 -153q0 -109 -76 -140h-106q-75 25 -75 154l-16 -14h-14l-136 14q-167 -61 -167 -196l15 -70h-15l15 -13v-14l-15 -14q46 -209 167 -209l150 42l46 -14q103 181 181 181h16q44 0 44 -181q-76 -155 -196 -195l-151 -42h-45 q-212 0 -409 418z" />
<glyph unicode="&#xaa;" horiz-adv-x="758" />
<glyph unicode="&#xab;" horiz-adv-x="1139" />
<glyph unicode="&#xac;" horiz-adv-x="1196" />
<glyph unicode="&#xad;" horiz-adv-x="614" d="M8 364v143l15 23v24l76 -24h394l31 -47v-24q-10 -71 -122 -71h-91z" />
<glyph unicode="&#xae;" horiz-adv-x="1333" d="M-28 441v314l189 370q123 122 355 167h118q639 0 639 -851q-279 -481 -568 -481h-189q-290 0 -544 481zM43 536q163 -397 412 -493h248q255 0 439 431h28l-28 20v83l55 61v41q-155 513 -467 513h-247q-351 0 -440 -656zM191 1340v12l23 23l12 -12v-11l-12 -12h-23z M248 241v45l103 69l11 12l34 -24l-11 57l23 46l11 -11h23v161l12 114q-35 7 -35 92v11l35 126l-115 -11h-12l-22 22q0 104 68 104q67 -7 104 -34h22l35 22h194l161 -57l80 -149v-115q-83 -160 -217 -160l-218 12l11 -12v-218l-11 -11v-11l114 11h46l34 -34q-39 -69 -126 -69 l-137 12l-205 -12zM545 630h103q16 23 183 34l12 81q-6 106 -34 137l22 23q-68 45 -125 45h-126l-12 12h-12v-23zM676 412l12 11h11l11 -11q8 6 6 34l12 12v12q-62 61 103 172l11 -12v-12q0 -34 -70 -38l70 -134v-79h23l57 11l46 -80q-27 -69 -46 -69h-34q-137 0 -166 102 q-34 0 -34 24v11h22v23q-34 0 -34 23z" />
<glyph unicode="&#xaf;" horiz-adv-x="1131" />
<glyph unicode="&#xb0;" horiz-adv-x="819" />
<glyph unicode="&#xb1;" horiz-adv-x="1124" />
<glyph unicode="&#xb2;" />
<glyph unicode="&#xb3;" />
<glyph unicode="&#xb4;" />
<glyph unicode="&#xb5;" horiz-adv-x="1180" />
<glyph unicode="&#xb6;" horiz-adv-x="4397" d="M53 815l6 6v6l-6 24l6 6v6l-6 6q0 224 114 427q0 39 144 192q0 10 49 36q13 49 216 151q180 78 349 78v6q239 0 450 -84q0 -16 85 -54q138 -103 192 -187q0 -13 102 -126q126 -225 126 -331q12 0 12 -180v-6l-6 -96l6 -24q0 -171 -186 -445q-11 0 -102 -114 q-37 -37 -223 -168q-186 -72 -288 -72h-144l-67 -6q-115 0 -330 108q-242 148 -331 342q-115 159 -150 427zM95 869l36 -174q40 -114 205 -307h12v6q-56 98 -139 205q-84 132 -84 270q24 248 138 409q26 77 265 277l138 66q110 37 295 60q231 -8 420 -96q196 -163 265 -277 q111 -160 156 -421v-132q-36 -270 -66 -270q-73 -202 -228 -349q-161 -155 -355 -180l-36 -6v6q-30 -12 -108 -12h-66q-191 29 -313 78q-148 59 -307 222h-6q238 -324 614 -324l90 6l66 -6q232 34 367 138q133 92 264 288q107 172 120 295l-6 18q12 59 12 174v72 q0 270 -354 638q-210 133 -349 144q0 11 -60 12h-36q-374 0 -547 -132q-78 -34 -223 -199q-94 -109 -126 -240q-54 -170 -54 -259zM167 521q0 -98 313 -361q207 -132 306 -132q0 -12 145 -36q245 12 336 42q89 15 168 108q140 126 193 234q120 190 120 367v156 q0 239 -228 499q-218 205 -349 205l-156 24q-339 0 -517 -163q-34 0 -205 -222q-108 -196 -108 -289l-6 -24q0 -255 72 -306v6q-42 90 -42 186q0 304 223 565q277 199 450 199l61 6q298 0 474 -151q38 -37 97 -66q162 -220 162 -288q16 -12 42 -163v-186q-33 -223 -108 -325 q-156 -247 -289 -282q-63 -54 -270 -96h-48l-24 6l-24 -6h-60q-218 36 -331 120q-257 186 -373 355l-24 24v-6zM251 803q47 -234 97 -306q66 -149 210 -295l138 -72q141 -60 241 -60l90 12l18 -6q201 15 403 186q198 247 198 343q18 0 30 198q0 211 -114 433 q-159 186 -265 222q-173 78 -312 78l-163 -18v6q-310 -101 -426 -264q-82 -93 -133 -313l-12 -90v-54zM1982 515q0 86 73 246l-6 24q37 247 114 247q156 0 156 -97l-6 -24q19 0 60 -264l18 -12l-6 -30l30 -108q-43 -30 -66 -30h-12q-96 0 -96 66l-54 18q-44 0 -60 -66 l-42 -12l-42 12l-24 -6h-12q-12 0 -25 36zM2019 1356v54q24 30 54 30q78 -8 78 -30v-6l-6 -36q14 -42 24 -42l30 36l-6 72v42l6 36l-6 6v6l6 73l-6 54q24 24 120 24q18 -22 18 -42v-12l-24 -36l24 -85q0 -216 -60 -246l-42 -18h-48q-162 0 -162 120zM2079 1158v6l18 18h186 l18 -18v-6q-6 -18 -36 -18h-36l-78 -6q-72 6 -72 24zM2157 725q6 -72 66 -72l-6 24l12 78l-12 72q-29 0 -48 -96l-6 -6h-6zM2169 899h24l-12 12h-12v-12zM2367 1404l6 151h6l-6 6v6l6 126v6l12 12h42q18 0 18 -108l-6 -73l6 -102l-6 -96l54 -90q139 0 139 126l6 6l-6 54 l6 30l-6 42l6 193l6 6h54l12 -12l6 -144q-11 -157 -18 -157l12 -54q-25 -107 -84 -144q-44 -24 -97 -24q-115 0 -162 144v6l12 12zM2421 503l12 294h-12v12h12l6 181v6l30 30h79q56 0 90 -175l6 -24l30 -18v6l-6 18l12 54l-12 109q36 24 54 24h6l6 -6h6l12 12h6 q42 -22 42 -43l-6 -72l6 -42l-6 -174l6 -198q-29 -26 -66 -30q-69 0 -114 144q-36 52 -36 84l6 6l-24 12l-6 -42l6 -132q-18 -54 -31 -54h-36q-48 0 -78 18zM2752 1194l12 294h-12v12h12l6 181v6l30 30h78q57 0 90 -174l6 -25l30 -18v6l-6 18l12 55l-12 108q36 24 54 24h6 l6 -6h6l12 12h6q43 -22 43 -42l-6 -72l6 -103l-6 -6h66l6 193v78l30 30h54q18 0 54 -24l-12 -72l18 -84h6q0 75 90 174h24q78 -4 78 -24v-18q-102 -178 -102 -198l12 -55h114v79q28 144 181 144h42q123 0 144 -181v-78l6 -30q-12 0 -24 -120q-46 -132 -126 -132h-48 q-147 0 -175 132v120h-84v-6q60 -114 60 -132v-18q0 -22 -84 -30q-48 0 -120 186h-6l6 -6v-6l-18 -18l6 -90v-18l-36 -36h-24q-42 0 -84 36l18 198l-18 -12h-54v-78l6 -210q-23 -24 -67 -30q-63 0 -108 126q-42 73 -42 102l6 6l-24 12l-6 -42l6 -132q-18 -54 -30 -54h-36 q-49 0 -78 18zM2848 533l12 84l-6 30l6 48l-6 54l18 78l-6 42l6 66l-6 55l36 12h84q30 -25 30 -73v-30q0 -12 -18 -12q16 -66 30 -66h30q15 0 24 54l-18 90q45 37 91 37h30q36 -22 36 -55v-114l-18 -174l18 -60q-15 -108 -36 -108h-91l-30 30v162l-30 6h-24l-18 -36l24 -30 l-18 -30l12 -12l-12 -18l12 -18q-22 -53 -36 -54h-66q-33 0 -60 42zM3052 160l24 24q-12 0 -12 18q0 91 133 132q150 -40 150 -120v-18l-6 -6v-6l6 -6h6q-9 -102 -150 -288v-6h6l150 6l12 -12q-11 -66 -24 -66h-12l-18 18l-210 -24l-25 18v6q193 267 193 324v12h-24v12h30 v30q-12 28 -54 54q-88 0 -102 -90h36v-18h-6l-79 -12q-24 9 -24 18zM3185 172l6 6h24l12 -12l-6 -6h-24zM3245 400v12h354v-12h-102l-18 -12v12h-12v-12h-78v12h-60q0 -18 -54 -18v12h36v6h-66zM3245 437v12h300l30 -6v-6l-6 -7v-6l-222 -6h-78l-12 12l6 7h-18zM3245 473v12 h6l192 -6v-18h-54l-132 -6l-6 6v6l6 6h-12zM3257 947l60 30l84 -6l24 12l36 -6l54 6q25 -8 36 -30v-6q0 -51 -36 -72l-18 6l-18 -6l-66 6h-6q0 -33 -30 -66l66 -6l66 6l18 -24v-60q0 -24 -90 -24h-42l12 -18l-12 -18q0 -42 24 -42q24 -1 24 -12l42 6h60l18 -18v-48 q0 -31 -18 -36h-102l-84 6q-24 -12 -66 -12q-24 30 -24 78l6 90h-6l12 36zM3395 4q2 42 12 42q-12 31 -12 138q0 96 96 126h6q96 0 126 -72l18 -168l-12 -90l12 -42q-39 -120 -102 -120h-30q-114 0 -114 168v18zM3419 653v12h84v-12h-84zM3461 461v18h84l12 -12v-6h-96z M3461 1464h102v12h-102v-12zM3473 -56q23 -52 36 -54h12q21 6 42 66l-12 120l12 90q-24 66 -36 66h-36l-18 -90l6 -102zM3473 1440h90v6h-90v-6zM3473 1585l6 6h6l42 -12l-12 -12h-6q-31 0 -36 18zM3581 629l6 54h-6l6 6v78l-6 241q11 60 24 60h121q126 0 126 -109l18 -18 v-18q0 -49 -42 -198l42 -198q-11 -27 -42 -48h-12q-46 0 -84 234l-6 6v6l-42 -6v-24l6 -180l-6 -6h-85q-12 0 -12 18zM3605 497l6 6h49l12 -12l-6 -6h-49zM3672 4q1 42 12 42q-12 31 -12 138q0 94 96 126h6q95 0 126 -72l18 -168l-12 -90l12 -42q-40 -120 -102 -120h-30 q-114 0 -114 168v18zM3684 881l6 -42h42q36 22 36 72q0 30 -36 72h-24q-24 0 -24 -72v-30zM3702 1356q9 -66 24 -66h42l6 42v96h-66zM3702 1500l12 -12v-6l-6 -6v-6l6 -6h60v12l-42 -6l-6 6v6l48 12v49h-30l-12 12l6 6h36v36l-30 6h-12q-22 -4 -30 -103zM3714 1440h60v6h-60 v-6zM3750 -56q22 -52 36 -54h12q20 0 42 72l-12 114l12 90q-24 66 -36 66h-36l-18 -90l6 -102zM3918 617v264q29 145 180 145h42q124 0 145 -181v-36q0 -324 -145 -324h-48q-148 0 -174 132zM3930 208v18h6q96 0 96 -18l-6 -6h-6zM3960 1224l12 84l-6 30l6 48l-6 54l18 78 l-6 43l6 66l-6 48l24 18h96q30 -25 30 -72v-30q0 -12 -18 -12q16 -67 30 -67h30q15 0 24 55l-18 90q45 36 91 36h30q36 -21 36 -54v-115l-18 -174l18 -60q-15 -108 -36 -108h-90l-31 30v162l-30 6h-24l-18 -36l24 -30l-18 -30l12 -12l-12 -18l12 -18q-16 -47 -36 -54h-66 q-33 0 -60 42zM3990 34q25 82 204 294h43q30 -1 30 -12l-79 -108l12 -12v-6q-48 -6 -48 -24q64 -4 139 -60l-6 -6v-6q18 0 30 -144q-26 0 -36 -60l-54 -54h-12l-6 6h-7q0 -18 -12 -18h-60l-6 6l-6 -6h-12l-54 36l-6 -6q-54 79 -54 180zM4008 -260q0 12 18 12l6 18l18 -6 l187 -6l6 -6v-12h-12l6 -30l-6 -6v-6l-121 6h-54q-44 0 -48 18v18zM4044 208v6h30l12 -12v-6h-30zM4056 665q9 -66 24 -66h42l6 42v264l-30 6h-12q-18 0 -30 -90l12 -60zM4068 4q0 -102 84 -102l6 -6h6l73 36v6q-18 0 -18 12v6l24 36q-11 102 -97 102q-58 0 -78 -90z M4068 -380l6 6l72 -6h157v-12h-223zM4086 -92v-24h6v24h-6zM4291 -74h30l42 -6v-12h-60l-12 12v6zM4315 184l6 6l36 -6v-18h-24zM4333 -236l6 6h6q66 -5 66 -18l-6 -6q-72 4 -72 18zM4483 298v12h54v-12h-54zM4579 -374l6 6h6l6 -6v-6l-6 -6h-6l-6 6v6z" />
<glyph unicode="&#xb7;" horiz-adv-x="569" />
<glyph unicode="&#xb8;" />
<glyph unicode="&#xb9;" />
<glyph unicode="&#xba;" horiz-adv-x="748" />
<glyph unicode="&#xbb;" horiz-adv-x="1139" />
<glyph unicode="&#xbc;" horiz-adv-x="921" d="M-31 602v32l16 16v16l356 -16h307l81 16l32 -32h81v-32l-32 -33h-809zM172 136q86 91 96 219q19 0 19 88l-9 96l38 26h19q39 -18 39 -52q-44 -260 -87 -351h183l-10 9v79l-10 105l49 26h19l19 -17v-202l48 9h38l20 -18v-34l-20 -18h-38l-29 18h-19v-157l-48 -45l-39 53 l10 69l-10 9v9l10 53v9h-86q-22 -21 -145 -27q-39 12 -57 44zM179 1006v16q0 29 259 210l64 -65v-242h-32v-210l-48 -49l-33 33v291l16 16v16l-48 16l-97 -64h-49z" />
<glyph unicode="&#xbd;" horiz-adv-x="958" d="M6 602v32l16 16v16l356 -16h307l81 16l32 -32h81v-32l-32 -33h-809zM216 20v113q23 82 275 194v97l-32 32l-114 -16l-16 16l-64 -97h-17l-32 33q0 96 146 161q226 0 226 -81l-16 -48l32 -32q-34 -117 -275 -243l-32 -48v-17h81q258 0 258 -48v-48h-388zM216 1006v16 q0 29 259 210l64 -65v-242h-32v-210l-48 -49l-33 33v291l16 16v16l-48 16l-97 -64h-49z" />
<glyph unicode="&#xbe;" horiz-adv-x="952" d="M-8 602v32l16 16v16l356 -16h307l81 16l32 -32h81v-32l-32 -33h-809zM195 136q86 91 96 219q19 0 19 88l-9 96l38 26h19q39 -18 39 -52q-44 -260 -87 -351h183l-10 9v79l-10 105l49 26h19l19 -17v-202l48 9h38l20 -18v-34l-20 -18h-38l-29 18h-19v-157l-48 -45l-39 53 l10 69l-10 9v9l10 53v9h-86q-22 -21 -145 -27q-39 12 -57 44zM247 708q53 33 164 38q130 74 133 118l31 39v47q-44 55 -93 55l-102 -32l-31 32v15q86 50 164 164l-71 8q-58 -31 -140 -31l-24 31v32l24 31l109 -16l31 8l149 -8l24 -47q-119 -88 -149 -140q121 0 172 -94v-94 q-107 -133 -149 -133l-148 -78h-63q-31 12 -31 55z" />
<glyph unicode="&#xbf;" horiz-adv-x="899" d="M16 -85q-8 222 239 357q38 40 33 176l115 43l40 -37l1 -39q9 -233 -279 -340l-34 -117q7 -191 318 -221q72 2 170 141l-1 20q-78 -3 -79 36q-4 105 91 158q156 -7 157 -53l3 -77q-61 -254 -185 -259q2 -32 -134 -43l-174 -7q-274 71 -281 262zM199 775q44 118 150 121 l78 3q58 2 103 -171l1 -39q2 -53 -191 -84l-58 -2l-80 75z" />
<glyph unicode="&#xc0;" horiz-adv-x="1086" d="M0 23v120l17 17v17l154 -34q4 171 35 171l-18 17v35l172 702h17l-17 17v17q0 137 137 137h51q86 0 189 -565l137 -514h120l51 -51l-69 -69h-325l-17 -17h-17l-17 17v69l34 34h103v17q0 171 -120 206h-292l-34 -69l34 -34l-17 -103v-17h103q39 0 51 -86l-51 -34h-137 l-257 -17zM322 1575v17l90 67l195 -238v-17l-60 -69h-15zM343 451h308l-137 583q-40 0 -69 -274z" />
<glyph unicode="&#xc1;" horiz-adv-x="1071" d="M0 23v119l17 17v17l153 -34q3 170 34 170l-17 17v34l170 696h17l-17 17v17q0 136 135 136h51q85 0 187 -561l136 -509h119l51 -51l-68 -68h-323l-17 -17h-17l-17 17v68l34 34h102v17q0 170 -119 204h-288l-34 -68l34 -34l-17 -102v-17h102q38 0 51 -85l-51 -34h-136 l-255 -17zM306 1399v17l205 213l117 -44l-22 -77l-215 -177h-17zM340 448h305l-136 577q-39 0 -67 -272z" />
<glyph unicode="&#xc2;" horiz-adv-x="1146" d="M0 -5v126l18 18v18l162 -36v18q0 182 72 252l-18 108q72 144 90 342q42 47 90 288q58 90 144 90q163 0 163 -378v-36q72 0 72 -288l54 -90v-36l-36 -54q69 0 108 -198h126l54 -54l-72 -72h-343l-18 -18h-18l-18 18v72l36 36h109v18l-18 162h-379q-54 0 -54 -180h108 q41 0 54 -90l-54 -36h-144l-270 -18zM337 1398v13q0 90 116 148q38 105 77 122h12q64 -99 154 -162l65 -95q-13 -80 -39 -80l-167 148h-25l-154 -148zM414 427h270v36q-90 125 -90 252l18 18v18q-54 113 -54 234h-18z" />
<glyph unicode="&#xc3;" horiz-adv-x="1109" d="M8 16v120l17 17v17l155 -34v34q34 258 69 258l-17 18v51q34 38 86 361q85 361 154 361h86q93 0 207 -670l120 -396h120l52 -51l-69 -69h-327l-17 -17h-17l-17 17v69l34 34h103v17q0 158 -120 189h-292l-17 -206h103q39 0 51 -86l-51 -34h-138l-258 -17zM220 1437 q48 110 154 110l265 -42l42 28h14l28 -28v-27q-68 -96 -154 -96l-251 41l-84 -27zM352 428h327l-52 155v138q-56 0 -103 292q-40 0 -69 -275z" />
<glyph unicode="&#xc4;" horiz-adv-x="1071" d="M0 138l33 33l99 -33l17 16v17l-33 116q83 138 265 893l66 50h33q166 -109 166 -232l148 -612v-17l-16 -16v-17q41 0 50 -198q71 0 99 -50q66 0 66 -33q0 -66 -265 -66q-116 48 -116 149h17q66 0 66 33v16q0 133 -99 133h-265l-50 -182l100 -100l-50 -33h-248 q-83 43 -83 133zM166 1544q22 69 82 100h33q100 -67 133 -182q-23 -69 -83 -100h-50q-73 32 -115 182zM364 452l116 -16l99 16h33v83q-49 48 -99 463h-16q-34 -281 -133 -546zM546 1544v17q32 76 66 83h34q132 -99 132 -182q-23 -69 -83 -100q-115 0 -149 182z" />
<glyph unicode="&#xc5;" horiz-adv-x="1116" d="M-604 1387v8q5 11 22 11l7 -17v-2l-9 -9h-4q-12 0 -16 9zM10 4v123l18 18v17l158 -35l18 264v17q62 93 140 387l141 387q-98 0 -211 175l18 18v18l-18 52q28 159 193 299h18l141 -53l70 18l123 -123v-18q0 -279 -193 -386q105 -66 105 -352v-35q70 0 70 -281l53 -88v-35 l-35 -53q57 0 88 -193h123l52 -53l-70 -70h-334l-17 -18h-18l-17 18v70l35 35h105v18l-17 140h-36l-105 18l-18 -18l-87 18h-36q-140 0 -140 -123v-53h105q40 0 53 -88l-53 -35h-140l-264 -17zM432 426h194q-36 39 -53 193l17 53l-17 53l17 17q-35 0 -35 71h-35zM450 1463 l88 -88q127 0 158 88q-95 70 -176 70q0 -35 -53 -35l-17 -18v-17zM833 -95l39 40h52l39 -40v-40q-13 -40 -78 -40l-52 53v27zM995 -49q27 69 53 69h18l35 -34v-35l-35 -36h-36z" />
<glyph unicode="&#xc6;" horiz-adv-x="1131" d="M-15 30q0 48 154 231l-15 15v77q65 83 200 740l-16 15l124 77h15l16 -15h15v30h31l15 -15h16l46 62l15 -16l77 16h16l46 -31l15 15v16l16 -16h15l15 16h16q0 -52 231 -108v-46l-31 -47v-15l15 15h16l31 -30q0 -31 -47 -31l16 -139q-11 -77 -46 -77h-31q-62 27 -62 62h-15 l-31 -77v-31q31 0 31 46h31v-46q0 -46 -62 -46v-262l-46 -46h-16q-46 15 -46 92v62h-15q-77 0 -77 -31l61 -339h185q31 293 77 293t62 -124q0 -262 -77 -292h-93l-369 -31l-31 46v31l62 61l15 -15h15v108q0 80 -46 92h-262l-15 -46l15 -15v-16l-31 -108h16q113 0 123 -46 v-46l-31 -31h-246zM278 399h246l16 77l-62 278h-15l-124 -170zM771 908l46 30q77 -55 77 -92h15v46l-92 108q0 -31 -46 -31v-61z" />
<glyph unicode="&#xc7;" horiz-adv-x="939" d="M-29 568v117q33 44 67 235q146 251 251 251l17 17v16h151l100 -16l84 16v-33h-34v-17l67 -50q0 69 84 100l67 -33l-33 -385v-34l-34 -33h-33q-55 0 -101 268l-151 117h-83q-120 -44 -285 -368l17 -84l-17 -84l50 -50l-50 -34q155 -368 301 -368q235 0 285 301q34 0 34 51 l16 16h84l34 -33v-67q-103 -335 -252 -335q0 -50 -217 -50v-61l60 10h50q117 -75 88 -161q2 -127 -170 -192l-117 -33l-33 50q0 40 160 93l69 70q0 67 -54 81l-120 -19l-17 51l17 50q0 88 -134 145q-201 254 -201 435zM122 1171v33h100v-33h-100zM272 1221v34h101v-34h-101z " />
<glyph unicode="&#xc8;" horiz-adv-x="1146" d="M0 1149v34q0 51 272 51h680q102 -44 102 -306l-51 -68h-51l-51 51v187l17 17v17h-561l-17 -255v-17l-17 -17q29 -170 68 -170h153l102 51l-17 17v102l34 34l85 -102v-323l-51 -51h-17l-51 51v102l17 17v17h-187l-17 17l-85 -17l17 -17v-408l-17 -17v-17h510q44 0 68 255 l17 17q0 51 34 51h17q40 0 51 -119q0 -282 -85 -323h-918l-34 34v17q7 35 85 68l136 -34h17v51l-17 51l17 85v850h-170zM412 1566q0 68 106 83l136 -190l-15 -46l-51 -68z" />
<glyph unicode="&#xc9;" horiz-adv-x="1154" d="M0 1135v34q0 52 274 52h684q102 -45 102 -308l-51 -69h-51l-52 52v188l18 17v17h-565l-17 -256v-18l-17 -17q29 -171 68 -171h154l103 52l-17 17v102l34 35l86 -103v-325l-52 -51h-17l-51 51v103l17 17v17h-188l-17 17l-86 -17l17 -17v-411l-17 -17v-17h513q45 0 69 257 l17 17q0 51 34 51h17q40 0 51 -120q0 -284 -85 -324h-924l-34 33v18q8 35 86 68l136 -34h18v51l-18 51l18 86v855h-171zM462 1409v17l205 274q103 -69 103 -137l-240 -223z" />
<glyph unicode="&#xca;" horiz-adv-x="1079" d="M-382 813q35 106 86 119h85l85 -85v-34l-34 -34l-17 17l-170 -51zM-24 1136v34q0 51 221 51h731q102 -44 102 -306l-51 -68h-51l-51 51v221h-544l17 -17l-34 -204v-170l51 -51h136l119 34l-34 102v17l34 34h17l85 -85v-340l-68 -69l-51 69v102l17 17v17h-289l17 -17v-409 l-17 -17v-17h510q40 0 68 255l17 17q0 52 34 52h17q40 0 51 -120q0 -282 -85 -322h-919l-33 33v17l67 68l137 -34h34v51l-17 51l17 85v851h-171zM404 1470q0 30 141 172q4 62 36 62l211 -234q-12 -74 -35 -74q-118 135 -176 135l-130 -123h-11q-27 0 -36 62z" />
<glyph unicode="&#xcb;" horiz-adv-x="1124" d="M0 928v34q0 67 287 67h556q202 0 202 -320q-25 -68 -50 -68h-51q-67 28 -67 118v152h-523l-17 -287v-101l51 -50h50q186 25 186 67l-34 101l17 17h50l85 -84v-337l-68 -68l-67 85v118h-253l17 -17v-404l-17 -17v-17h489q27 0 84 320l17 17h34q67 -23 67 -152 q-8 -202 -50 -202l-17 17h-17q0 -53 -101 -118l-17 17l-17 -17h-775l-34 34v16l67 68h51l50 -34h34l17 17h17l-17 168v843h-152zM219 1265v84q69 101 169 101q67 -27 67 -118q-38 -151 -135 -151q-69 23 -101 84zM624 1299v17q0 92 118 134h50q35 -7 68 -84 q0 -100 -135 -185q-101 0 -101 118z" />
<glyph unicode="&#xcc;" horiz-adv-x="906" d="M-22 59q34 80 70 88h53l263 -18v70l-18 88l18 70l-18 631l18 105h-316l-70 71q0 35 140 35l35 35h491q32 -35 175 -35l35 -53q-10 -53 -122 -53l-228 18l-18 -18v-17l18 -70l-18 -193v-18l18 -70l-18 -122v-474l333 18l35 -105q-17 -52 -105 -52h-648q-95 0 -123 69z M238 1612l3 18l80 58l17 -3l204 -284l-83 -73l-17 3z" />
<glyph unicode="&#xcd;" horiz-adv-x="869" d="M7 56q31 78 65 86h49l243 -17v68l-16 85l16 68l-16 615l16 102h-292l-65 69q0 34 130 34l32 34h455q29 -34 163 -34l32 -51q-10 -52 -114 -52l-211 17l-16 -17v-17l16 -68l-16 -188v-17l16 -68l-16 -120v-460l309 17l32 -103q-16 -50 -97 -50h-601q-88 0 -114 67z M251 1353v18l211 213l97 -43v-17l-227 -239h-16z" />
<glyph unicode="&#xce;" horiz-adv-x="906" d="M-22 79q33 78 68 85h51l256 -17v68l-17 86l17 68l-17 631l17 85h-290l-85 85l171 52h477q31 -34 171 -34l34 -52q-10 -51 -120 -51l-221 17l-17 -17v-17l17 -68l-17 -188v-17l17 -68l-17 -119v-461l324 17l34 -102l-68 -51h-666q-91 0 -119 68zM210 1439q1 32 136 155 q0 48 49 72l222 -227q-12 -72 -37 -72q-123 132 -185 132l-148 -132z" />
<glyph unicode="&#xcf;" horiz-adv-x="929" d="M-15 51q34 79 70 87h52l261 -18v70l-17 87l17 70l-17 627l17 105h-313q-36 7 -70 87l174 52h488q31 -35 174 -35l35 -52q-10 -52 -122 -52l-226 17l-18 -17v-18l18 -69l-18 -192v-17l18 -70l-18 -122v-471l331 18l35 -105q-17 -51 -104 -51h-645q-94 0 -122 69zM107 1427 v87q0 32 122 105h52q87 -49 87 -140q-92 -139 -156 -139q-72 24 -105 87zM525 1462v17q0 96 122 140h52l87 -105q-86 -154 -156 -174q-105 0 -105 122z" />
<glyph unicode="&#xd0;" horiz-adv-x="1479" />
<glyph unicode="&#xd1;" horiz-adv-x="1146" d="M-142 1640v18l71 70q53 -17 53 -105h-35zM-1 73q34 80 70 88h18l18 -18h17l35 53v229l18 546l-18 18v17l36 53l-18 53l-158 -18v18q21 123 88 123q45 -35 176 -35v-18l17 18h36q51 0 317 -616q35 0 52 -194l18 -18h35l18 18h17l-35 634l18 17v18l-18 53h-88l-35 35v35 l299 53q110 -35 124 -88l-88 -70l-53 -71v-246l-36 -53v-212l36 -140v-282l-141 -105h-35q-52 0 -229 563q-74 53 -212 405h-17v-35l35 -476l-35 -317h123l35 -35l-88 -71l-123 18h-194q-35 0 -35 53zM210 1482v53q0 56 176 105l300 -70l88 53l53 -53q-76 -141 -194 -141 q-188 53 -317 53h-18l-53 -36zM492 636l70 -141h36q-53 119 -106 159v-18zM598 390l70 -159h18v36q-40 0 -71 176h-17v-53z" />
<glyph unicode="&#xd2;" horiz-adv-x="1019" d="M-7 440v286q139 421 236 421l151 67h84q455 0 455 -774q-198 -438 -404 -438h-135q-206 0 -387 438zM111 541q100 -325 252 -404h152q157 0 269 353h17l-17 17l34 185q-112 404 -320 404l-17 -16h-33l-17 16q-277 0 -320 -555zM322 1491v12l91 75h31q0 -37 167 -200v-12 l-61 -50h-15z" />
<glyph unicode="&#xd3;" horiz-adv-x="1011" d="M-38 416v292q142 429 240 429l155 69h86q463 0 463 -790q-202 -445 -412 -445h-137q-211 0 -395 445zM82 519q102 -331 258 -412h154q160 0 275 361h17l-17 17l34 189q-114 412 -326 412l-17 -17h-35l-17 17q-282 0 -326 -567zM271 1345v13q186 171 186 211h34l101 -79 v-13l-237 -185h-16z" />
<glyph unicode="&#xd4;" horiz-adv-x="1056" d="M0 415v296l139 348q91 115 262 157h87q471 0 471 -801q-206 -453 -419 -453h-139q-214 0 -401 453zM122 519q103 -336 261 -418h157q162 0 279 366h18l-18 17v70l35 52v35q-99 436 -296 436h-157q-223 0 -279 -558zM287 1396v11q0 49 138 156q0 45 50 67 q226 -182 226 -212q-12 -67 -37 -67l-163 123h-26l-150 -123z" />
<glyph unicode="&#xd5;" horiz-adv-x="1041" d="M8 436v288l135 338q88 111 254 153h85q457 0 457 -779q-200 -440 -406 -440h-136q-207 0 -389 440zM126 538q142 -407 288 -407h119q157 0 270 356h17l-17 17v67l34 51v34q-96 423 -287 423h-153q-216 0 -271 -541zM373 1416q58 105 160 93l251 -70l44 23l13 -2l24 -30 l-3 -28q-76 -88 -158 -79l-238 69l-84 -19z" />
<glyph unicode="&#xd6;" horiz-adv-x="1041" d="M0 570v70q0 447 367 577h53q420 0 490 -630l17 -174l-35 -175l35 -88q-65 -61 -350 -174h-17q-501 0 -560 594zM122 535q0 -152 228 -385h52q286 0 333 245l70 315q-94 367 -350 367q-271 0 -333 -490v-52zM140 1585v17l87 88q123 -60 123 -193q-29 -87 -105 -87 q-92 0 -105 175zM525 1637l70 53h35q73 -47 122 -158v-17q-68 -105 -122 -105q-105 0 -105 227z" />
<glyph unicode="&#xd7;" horiz-adv-x="1196" />
<glyph unicode="&#xd8;" horiz-adv-x="1296" d="M0 461v158q0 303 280 508l211 70h87l211 -35l70 70q94 0 122 -88l-17 -87q245 -229 245 -543v-106l-35 -105l18 -17q-43 -15 -141 -193q-172 -140 -455 -140l-263 70l-53 -52h-70l-52 52v17l52 53q-185 232 -210 368zM158 478q0 -104 140 -210q203 294 333 578l123 193 l-88 18h-35q-314 0 -438 -281l-35 -157v-141zM403 146l18 -18h227q316 29 316 263q66 0 87 350q-30 0 -105 193l-17 18h-35q-415 -533 -491 -806z" />
<glyph unicode="&#xd9;" horiz-adv-x="1108" d="M-2 1192q17 50 100 50h333l33 -33l-50 -50q84 0 84 -33v-17q0 -25 -67 -50l-100 17h-17v-367l34 -50v-50l-34 -49v-250l67 -134h67q250 0 250 150l16 17v17l17 466l-33 33l16 184h-16q-74 0 -134 99q0 39 167 67q0 33 83 33l17 50l66 -16l84 16q66 -100 66 -183l-50 -50 l-83 17h-50v-750q-49 -366 -300 -366q-319 0 -383 266l-33 150q17 575 50 700h-17q-71 -50 -133 -50l-33 50v50l16 16v17zM131 1159h67v17h-67v-17zM281 1159h67v17h-67v-17zM355 1578l81 95l255 -175l10 -32l-39 -78l-302 174z" />
<glyph unicode="&#xda;" horiz-adv-x="1281" d="M-52 -225q0 26 39 37q12 -1 26 -29q-21 -37 -39 -41q-26 8 -26 16v17zM-13 1183v17q18 51 107 51h142q184 0 250 -51h107l-18 17v17l18 17l125 -17h285q32 -34 178 -34l18 -17v-17l-54 -68l-89 17h-53v-765q-53 -374 -321 -374q-416 50 -463 221q-36 0 -54 782l18 85 q-89 0 -89 102l-18 -17h-53zM272 571h18v85h-18v-85zM272 758h18l18 357h-36v-357zM415 333l71 -187h35q250 0 250 187v459l-36 51v272l-53 51h-71q0 -68 -72 -68l-107 17h-17v-374l35 -51v-51l-35 -51v-255zM415 1438v34l231 255l107 -102v-17l-267 -238zM789 129 q31 4 107 153v476h-36v-357q0 -159 -71 -255v-17z" />
<glyph unicode="&#xdb;" horiz-adv-x="1116" d="M0 1141v33l33 32h362l115 -65v-17q0 -28 -82 -49l-66 16h-33v-362l33 -49v-49l-33 -50v-263q71 -181 99 -181q280 0 280 164l16 17v461l-33 49v247q-86 0 -148 115l16 16v17l83 -17h279l132 -65l-49 -66l-83 16h-49v-740q-49 -362 -296 -362q-411 0 -411 444v444l16 198 h-16l-99 -33zM307 1415q0 29 144 163q4 58 36 58l217 -221q-12 -70 -36 -70q-120 128 -181 128l-132 -116h-12q-27 0 -36 58z" />
<glyph unicode="&#xdc;" horiz-adv-x="1116" d="M0 1168l49 33h346l99 -66q0 -49 -66 -49v-16l-82 16h-33v-362l33 -50v-49l-33 -50v-247q48 -149 99 -197h66q164 0 214 82l33 82v445l-33 132v198q-122 0 -149 131l17 17l82 -17h280l116 -66l-50 -65l-82 16h-50v-741q-48 -362 -296 -362q-395 0 -395 428v395l16 280 l-99 -49h-16q-50 0 -66 131zM198 1432v82q67 99 164 99q66 -27 66 -115q-37 -149 -132 -149q-67 23 -98 83zM593 1465v16q0 91 115 132h50q34 -7 65 -82q0 -98 -131 -182q-99 0 -99 116z" />
<glyph unicode="&#xdd;" horiz-adv-x="1366" />
<glyph unicode="&#xde;" horiz-adv-x="1366" />
<glyph unicode="&#xdf;" horiz-adv-x="9460" d="M15 999v23h45l-34 204l12 11h34q56 0 56 -181l34 34l-11 11q17 136 45 136q79 0 79 -147l11 -11v-12h12q19 159 56 159h34l12 -12h11l22 23h23q57 0 57 -181l34 34l-12 11q18 136 46 136q79 0 79 -147l11 -11v-12h11q19 159 57 159h34l11 -12h11l23 23h23q56 0 56 -181 l34 34l-11 11q17 136 45 136q79 0 79 -147l12 -11v-12h11q19 159 56 159h34l23 -23q-57 -328 -90 -328h-46q-45 0 -45 136q-31 0 -57 -125l-11 -11h-56q-29 0 -46 102l12 11l-91 23q-11 -136 -45 -136h-45q-46 0 -46 136q-30 0 -56 -125l-11 -11h-57q-29 0 -45 102l11 11 l-90 23q-12 -136 -46 -136h-45q-45 0 -45 136q-31 0 -57 -125l-11 -11h-57q-28 0 -45 102l12 11zM377 1022h68l-23 147q-22 0 -45 -147zM762 1022h67l-22 147q-23 0 -45 -147zM1169 852q17 125 56 125h34q68 -7 68 -34v-79l-45 -57q-83 0 -113 45zM1372 965h12l-12 12v22 q0 88 57 113h11q125 0 125 -90l-12 -11h-11l11 -57h23l34 34v23l-12 11l34 147l-11 34l11 113l-11 68q48 34 158 34q34 -41 34 -79q-34 -12 -34 -68v-23l23 -22q0 -374 -124 -374l-23 -22h-11l-12 11l-11 -11h-56q-193 39 -193 135zM1825 1067v340l34 33q83 -8 113 -33 l-12 -170v-170q5 -23 57 -45l23 90v23l-12 45l12 34l-12 12l12 56v113l34 34h79l34 -34v-45q0 -396 -68 -396q-54 -34 -102 -34q-192 0 -192 147zM2232 898l11 260h-11l11 11v181l34 34h91q35 0 90 -204h23v170q0 23 90 34l34 -45v-12l-11 -56l11 -68v-34h57l11 271l34 23 h23q67 -7 67 -34v-124h23q0 71 91 147h56q34 0 34 -45q-90 -156 -90 -193v-45h113v45q0 170 181 170h45q106 0 136 -147v-125q0 -260 -136 -260h-57q-169 18 -169 159v90h-80l57 -136v-11l-34 -34h-56q-24 3 -114 159l-11 -12v-11l11 -79l-34 -45h-67l-46 33l12 136v45h-68 v-11l11 -271l-34 -23h-68q-42 19 -124 238h-11v-57l11 -102q-23 -68 -45 -68h-68q-28 0 -34 46zM2922 1135h102v11h-102v-11zM3171 988l22 -23h34l12 57v79h-68v-113zM3171 1158h11l57 11v11l-12 46l12 34l-12 11h-22q-34 -11 -34 -68v-45zM3420 909l11 79l-11 11l22 204 l-11 34l11 68l-11 34l34 22h79q45 -15 45 -101l-11 -12h-11l22 -68h45l12 57l-12 90q44 34 102 34h12l33 -34v-101l-11 -204l11 -113q-21 -52 -45 -57h-68l-34 34v159l-56 11l-11 -45l11 -12h11q-8 -67 -22 -67l11 -12v-11q-22 -52 -45 -57h-34q-79 0 -79 57zM3804 886 q82 343 136 487l11 11h79q113 0 113 -102h-11q34 -87 91 -396h11l11 272h-11l11 11v181l34 34h91q37 0 90 -204h23v170q0 23 90 34l34 -45v-12l-11 -56l11 -45l-11 -159l11 -203l-34 -23h-68q-42 19 -124 238h-11v-57l11 -102q-23 -68 -45 -68h-34l-79 12q0 -26 -57 -34 q-86 0 -124 79l-34 11l-79 -79h-12l-45 11l-45 -11zM3985 1045l57 -23v79l11 11l-11 68h-23zM4652 909l12 79l-12 11l23 204l-11 34l11 68l-11 34l34 22h79q45 -15 45 -101l-11 -12h-12l23 -68h45l12 57l-12 90q44 34 102 34h11l34 -34v-192l-11 -79h11l-11 -11l11 -113 q0 -61 -45 -80h-68l-34 34v159l-56 11v-23h-12l12 -56v-34l-12 -11l12 -12v-11q-22 -52 -46 -57h-33q-80 0 -80 57zM5037 818q23 0 23 34h282l34 -34h12v-22h-102v-12h45v-22h-23l-11 11h-11l-23 -22h-79v22h-45v-22h-23q0 22 -56 22zM5060 1305l56 34l45 -12l125 12h34 l22 -23v-45l-34 -34h-101l-12 -68h34l79 11l23 -34v-34q0 -45 -136 -45l12 -11v-11l-12 -12q17 -45 34 -45h113l23 -23v-11l-11 -11l11 -11v-12l-34 -34h-147l-11 12l-79 -23l-23 68v45l11 91zM5116 818h215v12h-215v-12zM5241 1011v22h45v-22h-45zM5365 1045l11 11v305 q7 68 34 68h68q181 0 181 -158q0 -57 -45 -181q45 -134 45 -215l-45 -34q-48 0 -102 249h-11l-23 -23v-181l-34 -34h-22l-46 46v135zM5478 1203h45q34 11 34 68l-22 68h-46l-11 -57v-79zM5670 683v22h46v-22h-46zM5693 1011v203q0 170 181 170h45q107 0 136 -147v-125 q0 -141 -79 -260h-113q-170 18 -170 159zM5840 988l23 -23h34l11 57v226l-23 23h-11q-34 -11 -34 -68v-34l11 -34l-11 -56v-91zM6066 852q18 125 57 125h34q68 -7 68 -34v-79l-46 -57q-82 0 -113 45zM6179 1146v23h68q33 0 57 192q98 68 169 68h23q215 -11 215 -136l11 -11 l12 -34l-12 -11v-11l12 -46l-12 -34l-124 -11q-34 0 -68 102l11 11v12l-11 33h-34l-45 -45h11l-11 -11v-68l11 -11l-11 -12v-90h305l-11 11l11 12v56l-11 11l11 12v68l-11 11v11q22 0 34 68q79 68 158 68h45q116 0 136 -158v-114q0 -260 -136 -260h-56q-170 18 -170 159v22 h-45l11 -11v-23q0 -199 -147 -237h-158q-135 0 -158 226v11l11 34h-79v23h79v68l-23 22h-68zM6439 943l57 -57q37 42 57 147h-114v-90zM6485 1146v23h56v-23h-56zM6855 38l27 10l7 -12l-5 -4h-1q-3 -1 -5 6l-17 -6q-4 0 -6 6zM6877 -40q0 2 4 5l1 -1l1 -6l2 -6l-2 -1l-4 4z M6879 12l1 1l2 1q3 1 4 -2l14 5q3 1 2 10h1l5 -3l6 2h-2v3l2 6l2 1l1 -4l-1 -1q1 -4 15 -12v-2h-2l-3 1l-1 -1l1 -2l-2 1l-3 -2q-10 -4 -13 2l-15 -6l2 -5h-1l-7 3q-6 -2 -8 4zM6880 -95l4 2l4 -2v-1h-1l-6 -2zM6890 -17l6 2v2q15 4 16 1q1 -4 6 -7l1 -1l-23 -8l-2 2z M6891 53q0 4 5 6h2l2 -5h-2l-4 1l-1 -3l-1 -1zM6903 988l23 -23h34l11 57v226l-23 23h-11q-34 -11 -34 -68v-34l12 -45l-12 -34q0 -34 45 -34v-23h-45v-45zM6911 37q-2 5 13 12q7 2 10 -6l5 -13l-2 -5l-12 -4q-9 2 -12 11zM6915 42l1 2h2l3 -1l-1 -1l-2 -1zM6921 -48l4 1v-2 l-1 -3l-1 -1zM6933 -4q1 7 6 9l5 -4l1 -1l-1 -5q3 1 9 -3l1 -3q-1 -7 -7 -9l-8 3l-2 4l2 6zM6934 110q-3 7 1 11l7 3q9 -2 11 -8l1 -3q1 -3 -6 -7q-11 1 -14 4zM6942 -31q1 6 7 8l5 -3l1 -3q1 -2 -3 -3l1 -1q6 2 10 -2l1 -4q1 -3 -7 -9q-1 2 -6 2l-2 1l-2 4l2 6v1 q-5 -1 -6 2zM6943 84q0 8 2 9l5 2q8 3 15 -7q1 -3 -6 -10q-13 2 -16 6zM6954 227l2 1l11 -11q3 -17 1 -26h-2l-6 18zM6974 -128q0 6 6 9q4 0 6 -6v-2v-1q4 1 9 -3l1 -3q-1 -6 -7 -9q-4 -1 -10 4l1 8zM6978 -19l1 3q10 1 23 -12l-1 -3l-22 11zM6984 -155q0 5 6 8l4 -3l2 -6 q7 3 10 -6q0 -5 -6 -7q-5 -2 -9 2l-1 3l1 5l-1 1q-5 -2 -6 2v1zM7020 -41l1 2q12 -4 35 -1q11 -8 13 -14q-15 4 -38 6zM7054 266q-6 18 30 45l-4 12l-8 -3l-4 2l3 3l8 4l2 -5l7 2l5 -14q13 5 27 -18q8 -22 -22 -52l-6 -4q-27 -2 -35 21zM7073 272l4 -2l3 4l-4 4h-1 q1 -4 -2 -5v-1zM7079 -61l1 2l1 1q2 -5 35 -2q20 -5 47 -3l39 -13l6 1l8 3l5 -2q-5 -2 -8 -15q-3 -1 -2 -4h-1l-2 1l-1 -1l-1 -1v-1l2 -1l-2 -1q-59 29 -88 18q-33 2 -39 18zM7088 62q1 32 21 39q8 3 11 9q32 -9 37 -18l3 -6q4 -9 -9 -26q-3 -11 -11 -14l-3 1l6 22l-4 11 q-2 5 -13 10q-4 10 -13 7l-3 -1q-16 -6 -11 -39l-1 -3h-2q-3 -1 -8 8zM7094 334h2l1 -3l-1 -3zM7141 1237q11 136 34 136h68l45 -12l68 23h45q66 0 136 -57q0 34 101 57h57q75 0 147 -136l-11 -79v-23l11 -79l-11 -102v-90l-23 -23h-79l-23 23v305q0 91 -90 91h-12 q-56 -47 -56 -147l11 -113q-11 -147 -45 -147h-68l-22 22v136l11 11l-11 12v101l11 46q0 68 -91 79q-79 0 -79 -215l11 -11v-12l-11 -11v-11l11 -125q-7 -34 -90 -34h-11l-23 23v158zM7296 -44l1 1l1 1l10 -3l4 -12l-1 -1l-2 1h-1l-1 -2l2 -7q1 -2 6 -1l5 -13l-5 -1l1 -1 l5 -11l-1 -2l-2 -1v1l-11 25l-1 7zM7361 312q-2 7 4 15l4 1q6 3 11 -2l3 -7q2 -12 -8 -15q-11 -1 -14 8zM7392 89q-4 18 3 25l1 1q10 10 30 -1l7 -7q4 -16 -4 -24q-10 -11 -29 -1zM7407 343q2 14 11 17l4 2q32 -19 36 -18l1 -2l-12 -5l-28 -11q-4 0 -12 17zM7439 132 q-9 9 1 26l1 -1v2l1 1q5 5 19 4l12 -12q4 -12 -3 -18q-11 -11 -25 -7zM7470 230l57 -26h3l-1 1q-21 11 -58 26zM7470 417l12 5l-3 -10zM7483 300q-3 8 5 10l3 1q9 4 14 -10q0 -8 -7 -10l-2 -1q-8 -3 -11 5zM7514 381q-7 22 18 43l13 4h1l1 1l2 1l27 -2q7 0 19 -12l3 -9 q6 -17 -15 -35l-8 -5h2l1 -2l-21 -8q-32 -1 -39 19zM7520 121l3 6l2 1l5 -2l2 -5l-2 -4l-4 -2q-4 0 -6 6zM7524 385q5 -15 46 -11q25 17 18 34q-3 10 -36 7q-31 -11 -28 -30zM7534 327q0 8 4 14l4 1q10 4 15 -9l1 -3l-4 -10l-8 -3q-5 -1 -12 10zM7576 140q-2 6 1 10l5 2 q7 -1 10 -10l-8 -7h-1l-6 3zM7598 131l5 9l5 1q2 1 9 -7q0 -9 -8 -12q-5 0 -9 4zM7636 145q2 9 6 11q4 1 11 -6v-2q0 -8 -6 -11l-3 -1q-5 0 -7 7zM7767 718q0 10 12 10v41q9 9 16 41v3h-4v-10h-4v13l16 27v4h-4v-7h-8v3l4 11l4 -4h4v27l-4 17l17 4v17q0 40 44 105l16 27h8 l29 24q0 17 20 17l8 7v3q-37 4 -37 24l-12 54l61 24q-7 51 -16 51l4 3v3l-16 65q8 0 32 27l-53 177h4q-28 86 -28 118q0 67 158 109q0 15 307 47q0 14 267 14q109 -18 109 -54q11 0 20 -61h-4l57 -218q51 0 81 -129h12l12 7l64 -27l9 -30h-5l-4 -14h-8v7h-4q-16 -61 -40 -61 q-80 -47 -158 -68q-24 -4 -24 -10l85 23l32 -6q43 0 85 44q10 10 20 10l-4 3v4l33 10q39 -15 68 -44q11 0 29 -21q8 0 56 -47q0 -10 12 -10q0 -16 12 -24q0 -11 13 -20q0 -14 8 -14q5 0 8 -31h4l-4 -3v-7l4 4h8v-34q-8 0 -8 27h-4v-17q0 -19 20 -75h4v7h8v-10h-8v-4 q20 -6 20 -37l4 4h4l12 -24l-4 -4v-3h4l4 3l5 -3l4 3q11 -30 24 -30l36 13q77 -41 77 -81l-4 -3h-4l4 -17v-4h-8v-34q-12 0 -12 -6v-17l-16 -75l8 -7q-27 -77 -118 -224q-39 -173 -52 -173q-16 -24 -16 -64q-45 -143 -97 -183q-5 -27 -210 -194q-169 -91 -194 -91 q0 -19 -118 -44q0 -11 -97 -17q-72 0 -214 34q-49 19 -93 54q-35 13 -57 30q-34 14 -101 62q-48 27 -84 81q-57 73 -57 152l4 4v3l-4 37v4l4 13l-4 4v3l4 3l-8 51l4 11l-4 3l4 3h-4l24 106v10q-11 88 -24 88l-8 20v4l16 -4l-4 -3v-3h8l-4 -4v-3l4 -4h4l8 14l-36 64 q-10 0 -12 14l4 3l-4 4h-4l4 3v4q-25 45 -25 64h-4v-10h-4v51q8 0 8 -21h4v11l-20 61v47l-20 4v6zM7779 633v20l4 4l-4 3v10h8v-44zM7791 592l4 10h4v-16zM7856 328v13h4v-13h-4zM7864 1122v10l16 -14l-8 -6zM7872 1162v4l8 7l8 -7l-4 -4h-12zM7892 1061v3l12 14v-4l-4 -13 h-8zM7900 725q29 12 29 47h-4l8 31h-4q-29 -49 -29 -78zM7904 569l9 -7v3l-9 7v-3zM7917 460q1 -27 36 -61h4v-17q0 -31 16 -44l-12 -10l8 -48q-8 0 -8 -10l24 -54l12 6h13v-6h4v10h4l4 -4l4 4h12v-10q-12 0 -12 -7h4l20 10q0 -14 20 -14v-10q-17 0 -28 -23q-16 0 -16 -21 q-16 0 -16 -17v-7h8l-4 4v3l8 7q8 -2 16 -17l-33 -24v-3h-4q-8 0 -8 20l-16 21h-4q-28 -15 -28 -38v-3l8 -7l12 10h4v-3q0 -25 -20 -34q0 -16 -8 -24l4 -13l-8 -17l4 -10l4 3l4 -3h4q24 19 36 61l4 3v10h-8v3l69 55l-4 10h4l12 -3l61 37l36 17h8q1 -14 8 -14q18 0 37 21h4 l-4 3v3l12 21l-8 7l4 3q-9 0 -16 10l4 4v3l-4 10q-15 -10 -29 -10l-12 7h-4q-19 0 -61 -27v3l9 10h-4l-17 -10l4 -10h-12v7l-12 -7l-16 3v7q9 0 77 41q116 40 149 40q11 0 21 14q32 0 32 31h8l8 -7v-7l-24 -20v-7l16 -7q7 0 24 24l-8 20v4q24 0 24 13l21 82l-4 3v3l12 17 l-4 11h-8q-25 -35 -53 -41l-4 3v4l4 17l-24 -7h-20q0 -24 -17 -24h-8v7q-28 0 -28 -14q-28 0 -28 -20h-4l-16 3q-15 -1 -33 -30l-12 3l-61 -7q-8 41 -28 41q0 24 65 24q0 5 28 13l4 -3l-4 -3v-7q36 29 36 37h-8v10l41 14l4 -4l12 4v3h12v-3q-8 -20 -32 -20v6h-4l-20 -6v-4 q17 0 28 -13q38 13 48 30v7q-20 0 -20 17l-8 7l-4 -4v4l-40 -7v10q29 17 64 17l20 20l-56 34h-4l-4 -10l4 -3v-4q0 -27 -57 -44l-4 -3h-8q-22 0 -69 27q-8 0 -12 -20l4 -11l-4 -3h4l8 7l33 -14v-7h-29q0 -13 -20 -13q0 -11 -36 -27h-12l-49 10l-12 -3l-16 20h-28v-10l4 -14z M7973 677l4 -3h8l12 7q22 -17 33 -17l77 23h4q0 7 -49 27h-40l-4 4l-37 -14l4 -3v-3zM7973 989l12 -10l29 4v-4q19 10 60 10h12l4 4l4 -4l49 7h24l4 4l4 -4h33q133 0 177 -105l9 -27h-9q0 22 -32 41l-28 -4h-4q-112 48 -138 48h-20q-91 0 -158 -61q0 -11 17 -11l4 -3v-7 l-12 -27q0 -21 93 -64q0 -16 72 -38q6 -16 57 -27q0 -11 44 -30q39 -39 61 -45q0 -14 40 -27q85 -52 85 -142h-4l8 -34l-12 -48l8 -20v-3q0 -16 -16 -31l8 -10l-4 -10h-8v10h-8l-24 -41l8 -17q-41 -14 -53 -51l-4 -3l12 -4v-6l-4 -4q0 -29 77 -37l41 -10v10h4l16 -3l16 6 l-4 14l4 10h20q30 0 32 10q-5 16 -36 34q0 18 -12 21q0 16 16 23l4 -3h4l4 3h4l-8 17q37 35 37 55v3l-8 75l4 23l-4 4l8 57l-4 28l4 10l-8 27v10q4 25 16 27q16 -15 16 -23h4q35 29 65 37q76 33 80 41q0 25 81 54l41 17q0 8 76 30l45 31h4q0 -10 20 -10l33 17v13 q0 16 -73 99l4 20l4 -3h4v3q-79 48 -105 48h-4v-7l-4 3l-29 -7l-109 17h-24q-26 0 -65 -17v4q-57 0 -105 -99v-6h-8l4 17h-4q20 67 33 78h-5l-12 -4l4 4v6l-4 -3h-4v17q52 54 166 54q0 6 81 7v3l4 -3l20 3q102 -39 194 -98h8q0 9 24 24l5 3v4q-11 27 -29 40l-4 4v3l4 3l-8 7 l4 4v3q0 34 -44 34q0 6 -45 24q-5 10 -24 10v3l4 4v3h-4l-28 -7l-4 11h-8v-7q-41 0 -45 13h-8v4h12v3l-40 3v4l44 3v4l-48 6h-4v-6h-25l-4 -4h-4l-4 4l-12 -11h-8l-20 4v3h8v4h-4l-32 -11l4 -3v-3h-4l-4 3q-67 -20 -178 -37v3q-168 -30 -227 -30l-4 3l-20 -3q-93 0 -133 6 l-12 -3l-65 10l-4 -3l-4 10l-24 -3v-4l8 -10q-10 -3 -25 -44q-11 0 -20 -44v-4zM7981 87v6l8 7v-7zM8050 239l8 7l4 -3v-4h-12zM8062 1281q0 -19 117 -41h41l20 -13h16q16 7 16 17q14 0 29 -10l4 3v-3l20 6q97 0 97 -27l4 -3v-3l-4 -4l4 -3v-4q-3 -10 -32 -10v4l-45 -11 l-36 4q-44 0 -85 -21v4l-101 -21v-3q0 -6 28 -10l4 3h4l105 -6l97 10l12 -4q121 2 372 92v7h-4q-141 -27 -190 -27h-12l-4 13l4 20l-4 11q17 27 166 71q85 36 85 71q12 0 12 7l-4 3h-12q-180 -47 -227 -47h-8v-4l-4 4q-106 -9 -145 -24l-300 -41q0 -5 -40 -10zM8074 596h8 l4 10h-4l-8 -7v-3zM8163 589l8 7l-8 6v-13zM8204 -15v-6h8q0 10 16 26v4zM8216 -245v-4l12 -10h12v7l-8 7h-16zM8220 277l4 -4h4l12 4v10h-4zM8232 73q93 -20 133 -20h49q8 0 8 10l4 3h4l4 -17h4l8 7l-12 10v4h20l8 6l20 -3h33l8 -7v-3q0 -7 -12 -7v-3l8 -7h4l4 3h4l4 -3v3 q12 0 12 -10h12l4 4q9 -6 61 -11l16 4q9 -6 61 -10l8 -14h4l4 3h4l4 -3v-3q35 0 57 27l28 13l4 -3v-41q12 0 12 17h4v-20l-16 -6l4 -4v-10l-16 -14q0 -24 -24 -34h-5l-4 4q-17 0 -28 -37q-60 -21 -60 -38v-3h-13v10h-8q-32 -14 -97 -14q0 -11 -125 -23l-85 -17v-7h-8l-12 7 h-4q-7 0 -12 -17q12 0 20 -14v-3h-4l-28 3l-17 -13q-8 0 -8 10l-4 3h-12v-3q21 -47 41 -55l4 11q16 0 44 -17l36 6l21 -6l20 3h4v-3h-12v-11q43 0 52 28q33 27 69 27q30 0 61 37q19 0 36 17l28 10h4l13 -10v-3l-57 -51h8q73 30 73 47l-4 4v3q5 20 12 20h8v-23h-8l4 -4v-3 l-4 -10h8l57 13q66 33 129 85q53 68 81 82v23h12v3l-4 4v3l8 7v7h-8v6q12 17 40 31q25 23 25 81q16 0 16 14l-8 20q8 7 8 31h4l-8 61q12 17 12 34l-24 27v3l60 31h8l4 -3h4q13 56 33 71v10l-8 7v-7h-4l-21 48q12 0 12 -14l4 -3h21l8 6v55q-34 91 -41 91h-4q0 -16 -28 -24 q0 -13 -16 -13v-3l-4 3h-4l-4 -3h-4l4 -17l-4 -14l-4 3h-4l-13 -10v-7l5 -3q-12 -54 -41 -54l4 -4v-3l-40 -17l-12 3l-21 -3l-4 3l-20 -3h-28l-4 3h-4l20 21v3q-16 0 -20 17q0 16 44 20q0 11 33 11q20 37 40 37v3l-45 27h-16v-23q-26 -31 -64 -31q-41 0 -65 34v27l8 10v7 q-60 -18 -77 -40v-4q8 0 8 -17q42 -19 45 -27l-20 -3q-29 2 -29 6l-4 -3h-28v-7q20 -2 20 -10l-4 -10h8q0 17 12 17l12 -4q0 -27 -28 -27l-4 10h-8l4 -3v-10l-4 -3v-4l109 -58q49 -13 73 -13l12 10l12 -7l28 21q49 -19 49 -24v-4l-40 -3h-21q-18 -8 -44 -37h-4l-16 10l8 7 l-4 3l4 3l-16 7l-29 -3q-68 35 -68 41l-57 30h-8l4 -17h-4l-12 -3l-12 3v-3l-4 -4l-12 4v-4l-9 -10v-3l4 -17h-4l-4 3h-4v-3q29 -12 29 -17v-7l-4 3h-4v-3l12 -17l-25 -37q11 0 25 -17q40 -9 40 -58v-20q0 -34 -20 -44l-57 -24v-3l16 -4l9 7q0 -10 24 -10l-8 -7l-16 3 l-41 -20l-28 -3l-4 10l4 10q-110 -27 -134 -27l-4 3l-20 -3h-32l-4 3l-4 -3h-20q-24 17 -41 17h-16q0 -14 -16 -14l-12 4q-4 -11 -25 -11h-16q0 -14 -24 -20l4 -17h-4q-16 0 -16 -7l4 -3v-4zM8244 -116v-4q0 -7 28 -7l8 -6q12 6 49 10l4 -4v-3q0 -7 -12 -7v-3q26 0 44 -14 h29q33 0 101 17v7h-17l-60 -7v4q0 6 32 10l8 7l4 -4h4l16 4l9 -7h4q1 17 12 17l28 -4l4 4v3l-32 10l-4 -3l-4 3h-13l-64 -6l-4 3v3l16 10l-57 7l-28 -7h-40q-22 0 -37 -20h-16v-3q20 0 20 -7l-4 -3h-16l-4 3h-4zM8280 209l8 -14l13 4v6l-9 7h-4l-4 -3h-4zM8297 602 q0 -6 40 -23h8q0 5 -40 23h-8zM8317 531h8l24 17v4h-8zM8345 246l16 17v4h-4l-12 -17v-4zM8377 22h17l-9 7zM8377 528h4q21 10 21 20v4h-4q0 -11 -13 -11zM8418 226v7h16v-7h-16zM8442 -42v-3h12l4 3v4h-4zM8442 636h40l9 -6q-21 -15 -21 -24h-4q-10 0 -24 30zM8482 -38 l29 -11l8 11l-4 3l-12 3v4q-21 -5 -21 -10zM8503 -215l4 14h12v-7q20 0 20 -17h-32zM8547 -18q3 -34 12 -34h12l8 24v10l-28 3zM8551 816v14l8 -7v-13zM8571 647l25 3l-12 -14zM8592 -1v-7q12 0 12 -10l-8 -20h12q7 0 12 20q-10 23 -16 23h-4zM8604 277l8 -10l-4 -11l4 -3 h12l8 7l-8 7l4 17l-12 13l-12 -10v-10zM8659 84v3l3 5l6 -1q-1 -7 -4 -7h-5zM8660 562q12 0 12 -10h-4q6 -14 21 -21v4l4 -4h12v4l-4 17q20 0 32 17l-8 6q-25 0 -32 -20l-4 -3q-19 6 -21 13v7q0 5 37 14q12 8 12 20h-4q-33 -10 -53 -37v-7zM8693 1142v3h16v-3h-16zM8704 -97 v-1h6v1h-6zM8709 86l3 3l1 -2v-3h-1zM8713 -147h8v-10h-8v10zM8713 -250l3 2l26 -10v4q0 19 50 19q5 4 5 6q0 15 -19 15h-2l-6 -1l1 -6l-15 -5q-7 0 -10 9q8 12 26 12h5q30 0 30 -16l-1 -1h-1l5 -19l-3 -25q3 -3 16 -5l2 -2v-1l-4 -3h-12q-9 0 -10 11h-2q0 -5 -26 -10 q34 -38 57 -48q22 -24 23 -31h-16q-49 59 -88 82zM8729 148v7h12v-7h-12zM8734 329v1q0 15 16 15q16 -5 16 -16q0 -12 -16 -14q-16 4 -16 14zM8756 80v5q0 3 11 6l21 -5l6 4l2 -2v-3q0 -4 -12 -7l-21 4h-2l-4 -2h-1zM8765 491l17 10l12 -4v-10q0 -7 -12 -7zM8769 214 q0 12 14 12q11 -2 11 -10q-3 -12 -13 -12q-12 0 -12 10zM8769 294v10q11 17 33 17q0 -7 12 -7l4 -3v-4l-12 -3v-7l4 3h8v-3q0 -7 -12 -7l-4 -3v-3q29 0 56 -65q16 0 21 -27l-4 -4v-3l4 -3l-17 -4q-39 50 -60 99q-12 0 -12 10zM8773 -95h16q0 7 2 7q2 -7 5 -10v-3l-2 -2h-9 v-4q-6 0 -7 4v6h-5v2zM8777 308l4 2h4q24 -5 24 -10l-18 -4q-8 4 -14 12zM8780 -33q0 9 9 20q4 0 11 -5l2 2l18 -8q6 0 13 6h1q4 0 7 -18q0 -16 -26 -26h-6q-20 0 -29 25v4zM8780 -206q5 25 15 39q42 -21 42 -36v-4q0 -11 -20 -19q-15 0 -36 16h-1v4zM8780 253v5q0 10 4 10 h2l4 -3v-10l-5 -5zM8798 310v4l5 5h5l4 -5q-2 -6 -7 -8q-6 0 -7 4zM8810 215q3 0 10 20q12 11 22 11h12v2q-6 9 -6 13q9 22 21 22v-2l2 2q33 0 42 -25v-23l-4 -4h-25l-8 2l5 -10l-2 -8l2 -11l-8 -9l1 -6q-17 -13 -31 -13q-29 7 -29 25q-2 0 -4 14zM8810 640l52 10 q70 -3 85 -10l12 3q-12 17 -28 17q-60 0 -121 -13v-7zM8812 -145h2l2 -3l-1 -1h-3v4zM8814 34v1q0 15 10 32h1l3 -2v-3l-3 -3h3v-3h-3v-1l2 -1v-1l-5 -8h-2l2 -1v-2q-6 -8 -8 -8zM8820 -236q0 7 5 9h2l2 -3v-65l-2 -2h-4l-3 2v59zM8822 -98h3l3 -3v-1l-3 -3h-3v7zM8825 269 v4l7 6q7 0 8 -10l-3 -5l-2 -1h-3zM8826 487v10l16 21l20 -4l25 7v-10h4q-5 -17 -12 -17l-17 3v-17q17 -1 17 -10v-7h-13zM8827 204q4 -18 16 -18h7q16 0 19 26q0 21 -26 23h-4q-12 -2 -12 -12v-19zM8831 97l13 10l2 -7v-3l-5 -5h-5zM8849 344v7q4 10 18 10q11 -4 11 -12v-4 l-7 -8h-15zM8850 181l1 -4h4l-1 2v1h1l1 -1l2 1h1l5 -3v3l-9 7l-1 2v1h-1v-3h1q-2 -6 -4 -6zM8861 140v4h3l2 -3v-1l-2 -2zM8868 -104h2q2 0 2 5l-1 1l3 4l-1 1l1 1h-1q4 6 5 32q2 0 8 16q8 9 19 12h3q34 0 34 -57q-8 -26 -18 -26l-5 -5q-51 5 -51 16zM8879 592h8v10h-8v-10 zM8885 -74v-9q14 -21 16 -21l4 -1q24 10 24 17q2 0 6 19v1l-8 18q-7 10 -17 10q-20 0 -25 -34zM8888 148v2h4v-2h-4zM8889 -292q4 8 12 8h7l8 -7v-4l-3 -2h-21l-3 2v3zM8899 684q50 0 109 -24q18 0 32 -10l33 7l4 -4v-3l-4 -3v-4q39 0 60 17v27q-17 58 -28 58h-8 q-48 0 -109 -27q-27 0 -89 -34zM8911 3h15l21 1q0 6 -17 14q-6 0 -19 -14v-1zM8914 41v3h2l4 -4v-1h-4zM8919 -141l2 2h3l2 -2v-2l-2 -2h-3l-2 2v2zM8924 80q0 10 8 13q6 -3 6 -10q0 -3 -9 -8zM8936 -123l3 3h8v6h20l1 5l-1 5l1 1h4q3 0 3 -3q6 0 6 -4l-1 -4l1 -7 q-12 0 -14 -10l-1 -2h-9q0 -3 -2 -3h-5q-3 0 -3 5l-11 3v5zM8938 8v3h2l3 -3v-1h-2zM8939 46v2q0 26 24 45l10 3h9q17 0 26 -23l8 -28l6 -11l-4 -4q3 -7 6 -7v-2l-6 -7q4 0 4 -3q0 -5 -34 -7v1l-1 -1q-44 7 -44 29zM8949 -295q8 22 9 43q2 0 6 14l5 1l6 -9q-12 -27 -17 -50 l-1 -1h-5zM8953 45q10 -2 10 -5l-1 -1v-1q1 -5 5 -5l-2 -2v-3h2l6 5q4 0 5 7h7q1 5 4 5h8l7 20q-1 0 -6 15q-8 10 -20 10q-21 0 -25 -37l2 -5zM8954 80q0 13 9 13l5 -8q-4 -9 -11 -9q-3 0 -3 4zM8956 272l2 62l-1 20h1l-1 1v3q1 7 4 7h4l4 -3v-38l-3 -5l-2 -48v-1l-3 -3z " />
<glyph unicode="&#xe0;" horiz-adv-x="1079" d="M0 194v118q91 176 558 176q103 20 103 44q-34 176 -118 176l-73 15l-103 -15l29 -88l-117 -44q-197 0 -250 103v15q113 161 441 161q382 0 382 -191l14 -14v-353l-29 -44v-88q0 -59 235 -88v-29q-29 -67 -59 -73h-205q-118 18 -118 87q-181 -87 -411 -87h-29 q-177 0 -250 219zM206 238q0 -102 117 -176q111 9 279 162q44 0 44 44l-29 103l-147 -15h-44l-88 15q-132 0 -132 -133zM222 1127v15l84 88h28q0 -44 154 -235v-15l-56 -58h-14z" />
<glyph unicode="&#xe1;" horiz-adv-x="1064" d="M0 214v112q87 168 532 168q98 19 98 43q-32 168 -112 168l-70 14l-98 -14l28 -84l-112 -42q-187 0 -238 98v14q108 154 420 154q365 0 365 -182l14 -14v-337l-28 -42v-84q0 -56 224 -84v-28q-27 -64 -56 -70h-196q-113 17 -113 84q-173 -84 -392 -84h-28q-168 0 -238 210 zM196 256q0 -98 112 -168q106 8 266 154q42 0 42 42l-28 98l-140 -14h-42l-84 14q-126 0 -126 -126zM294 971v14q154 182 154 224h28l84 -84v-14l-196 -196h-14z" />
<glyph unicode="&#xe2;" horiz-adv-x="1049" d="M0 179v102q111 189 422 189q233 0 233 44q0 204 -117 204l-87 14l-87 -14h-29l29 -88l-102 -43q-218 19 -218 87q131 160 392 160q379 0 379 -189l14 -15v-320l-29 -43v-117q0 -58 233 -87q-28 -66 -58 -72h-175q-116 0 -116 116q-154 -116 -437 -116h-87 q-96 55 -160 188zM73 179h14v117h-14v-117zM175 238q0 -141 131 -190q133 0 305 160h29v117l-29 87q-51 -44 -175 -44v15l-43 -15l-73 15q-145 0 -145 -145zM204 996q0 33 160 162q0 49 58 74q260 -210 262 -236q-15 -75 -44 -75l-189 137h-29l-175 -137zM698 223h15l14 73 l-29 -29v-44zM698 645l29 -29v58h-29v-29zM713 543l29 -29v29l-29 29v-29z" />
<glyph unicode="&#xe3;" horiz-adv-x="1056" d="M0 200v87q90 188 536 188h86l29 29v43q-43 141 -72 145l-174 29h-87l29 -87l-101 -43q-203 14 -203 72q143 174 377 174q376 0 376 -189l15 -14v-318l-29 -44v-116q0 -58 231 -87q-28 -66 -58 -71h-159q-130 0 -130 115q-153 -115 -434 -115h-87q-145 94 -145 202z M159 243q0 -139 131 -188q135 0 347 188l-29 174h-14q-51 -44 -174 -44v15l-15 -15h-14l-87 15q-145 0 -145 -145zM217 1068q50 116 159 116l275 -43l44 29h14q29 0 29 -44q-58 -116 -159 -116l-261 44l-86 -29zM666 692l14 -58h29v29l-29 29h-14z" />
<glyph unicode="&#xe4;" horiz-adv-x="1079" d="M-315 342l188 -61l141 -41q0 201 194 266l329 15h45l90 60q0 164 -120 164l-164 15l-15 -15v-15l15 -60l-210 -59q-119 47 -119 134q111 150 329 150q418 0 418 -195l30 -254v-314q147 0 210 -60q-29 -68 -60 -74h-165q-91 0 -134 119q-182 -104 -362 -131q22 -98 17 -51 q9 55 29 58q-88 -2 -173 3q-188 49 -187 223zM148 1119q60 90 120 90q75 -87 75 -165l-75 -60q-120 0 -120 135zM193 252q0 -117 90 -150q203 0 374 210l-15 119q-81 -30 -209 -30l-135 15q-105 -30 -105 -119v-45zM507 1119q39 90 105 90l60 -45v-120q-31 -60 -75 -60 q-71 0 -90 135z" />
<glyph unicode="&#xe5;" horiz-adv-x="1011" d="M0 211q0 283 354 283q269 14 269 71q0 142 -184 142h-184l28 -85v-29l-42 -42h-71q-99 45 -99 127v29q92 113 212 113h227q254 -71 254 -198l-14 -467h14q57 -4 57 -29l57 29q64 -28 70 -57v-57l-99 -70h-14q-89 0 -226 155q-135 -141 -383 -141h-28q-198 113 -198 226z M142 197q0 -42 141 -71h43q297 85 297 283l-184 -42l-156 14q0 -28 -85 -28l-56 -85v-71zM198 1160v42q46 226 212 226q197 0 255 -268v-15q-59 -198 -184 -198q-283 75 -283 213zM326 1103l84 -28h71l57 70v15q-70 141 -99 141h-14q-53 -32 -99 -113v-85z" />
<glyph unicode="&#xe6;" horiz-adv-x="1386" d="M-8 247q0 255 511 255h57l43 142q0 86 -256 86q-99 0 -99 -86l14 -14l-114 -42q-58 19 -85 71q0 184 355 184q179 -17 256 -85h14q68 60 228 100q397 -117 397 -327v-57l-42 -57l-142 14h-57q-100 -4 -100 -28l-71 14h-113q-86 -9 -86 -42v-100q57 -170 242 -170 q103 0 284 170l43 -43q-84 -227 -341 -227q-171 0 -284 156q-135 -156 -469 -156q-139 0 -185 242zM106 261q0 -171 156 -171q160 10 327 185v71l-71 57l-15 -14h-198q-199 0 -199 -128zM702 502h242l227 29v28q0 139 -213 171h-28q-228 -50 -228 -199v-29z" />
<glyph unicode="&#xe7;" horiz-adv-x="817" d="M0 425q0 282 283 397l185 28q30 -28 155 -28l114 -156q0 -108 -57 -127h-57q-85 53 -85 141l-56 43h-43q-311 0 -311 -298q80 -297 297 -297q109 0 198 226l71 15h14l29 -29v-127q-139 -162 -340 -213h-85v-44l93 -23l71 -85v-85q-63 -141 -222 -141h-28v42q0 29 70 29 q91 0 117 114l-16 45l-37 19l-91 -14l-28 42l14 43q0 114 -156 228q-99 157 -99 255z" />
<glyph unicode="&#xe8;" horiz-adv-x="848" d="M0 325v44q39 257 190 408l131 59q373 0 452 -365v-29l-29 -44l-117 15l-467 -15l-14 -73q58 -174 175 -219h102q96 0 263 161l43 -59q-119 -204 -262 -204h-175q-156 68 -292 321zM175 486h15l437 29v14q0 119 -248 175q-52 0 -204 -160v-58zM195 1055q0 58 84 117 l170 -234v-14l-56 -59q-171 190 -198 190z" />
<glyph unicode="&#xe9;" horiz-adv-x="899" d="M0 314v45q40 260 192 413l133 59q378 0 458 -369v-30l-30 -44l-118 15l-473 -15l-14 -74q59 -177 177 -221h103q97 0 266 162l45 -59q-121 -206 -266 -206h-178q-157 68 -295 324zM177 477h15l443 29v15q0 120 -251 177q-53 0 -207 -162v-59zM281 935v14l177 237 q89 -59 89 -118q-29 0 -207 -192z" />
<glyph unicode="&#xea;" horiz-adv-x="891" d="M0 364v15q0 244 255 465l90 15q339 0 449 -345v-60l-29 -45l-120 15l-480 -15l-15 -75q60 -179 180 -225h135q125 54 225 165h15l45 -60q-118 -224 -360 -224q-235 0 -390 374zM120 1058q0 32 180 183q4 66 45 66l270 -249q-15 -79 -45 -79q-150 144 -225 144l-165 -131 h-15q-34 0 -45 66zM180 514h240l225 15v15q0 122 -255 180q-54 0 -210 -165v-45z" />
<glyph unicode="&#xeb;" horiz-adv-x="891" d="M-15 358v15q0 236 260 450l92 15q346 0 459 -334v-59l-31 -43l-122 14l-490 -14l-15 -73q61 -173 184 -217h137q128 51 230 159h15l46 -58q-120 -217 -367 -217q-236 0 -398 362zM92 983v72q62 87 153 87q61 -23 61 -101q-35 -131 -122 -131q-63 20 -92 73zM169 504h214 l260 14v15q0 117 -260 174q-55 0 -214 -160v-43zM459 1012v14q0 80 107 116h46q61 -23 61 -101q-69 -122 -122 -131q-92 0 -92 102z" />
<glyph unicode="&#xec;" horiz-adv-x="839" d="M6 54v30l60 90l150 -15h120v30l-30 45v165l15 15l-15 15v45l30 45v195h-150q-63 -45 -150 -45l-30 75q30 94 75 105h360q60 -20 60 -135v-45l-15 -120l15 -75l-30 -315h75l225 15l46 -90q-36 -90 -61 -90h-660zM232 1127v15l85 91l169 -226v-30l-56 -60z" />
<glyph unicode="&#xed;" horiz-adv-x="876" d="M0 47v30l60 91l151 -15h121v30l-30 45v167l15 15l-15 15v45l30 45v197h-151q-63 -46 -151 -46l-30 76q30 94 76 106h362q60 -21 60 -136v-46l-15 -120l15 -76l-30 -317h76l226 15l46 -91q-36 -90 -61 -90h-664zM227 999v30l181 226l90 -90v-15l-211 -212z" />
<glyph unicode="&#xee;" horiz-adv-x="846" d="M7 54l61 92l76 -15h199v61l-31 45v214l31 46v229h-138l-167 -46l-16 15v76l61 61h336q61 -16 61 -152l-15 -137l15 -107l-31 -305h153l153 15l45 -61q-35 -91 -61 -91h-640zM158 1028q0 30 174 169q4 61 43 61l261 -230q-14 -73 -43 -73q-145 133 -218 133l-159 -121h-15 q-33 0 -43 61z" />
<glyph unicode="&#xef;" horiz-adv-x="831" d="M0 62l61 91l75 -15h198v15l-31 122v182l31 45v227h-137l-167 -45l-15 15v76l61 61h333q61 -16 61 -152l-15 -136l15 -107l-30 -303h151l152 15l45 -60q-35 -91 -60 -91h-637zM118 1005v76q62 91 152 91q76 -42 76 -121q-80 -122 -137 -122q-62 21 -91 76zM482 1036v15 q0 83 107 121h45q61 -25 61 -106q-70 -128 -122 -137q-91 0 -91 107z" />
<glyph unicode="&#xf0;" horiz-adv-x="1139" />
<glyph unicode="&#xf1;" horiz-adv-x="1056" d="M0 127l110 83l54 -14v411l14 96l-123 -28l-41 14v55l96 110l96 -14h13l55 14q57 -19 82 -69l-13 -96q157 151 260 151l68 14q55 0 165 -124v-562l68 14q96 -14 96 -41v-55q0 -45 -164 -68l-288 13l-14 14v55q31 68 137 68h14l-14 14v356q0 179 -95 179h-14 q-219 -66 -219 -302v-55l13 -54l-27 -110q178 -50 178 -82q0 -96 -178 -96l-219 -14q-85 0 -110 123zM233 1087v41q0 44 137 82l233 -55l68 41l42 -41q-60 -110 -151 -110q-146 42 -247 42h-14l-41 -28zM591 -45l13 14h28q507 -224 575 -315h-27q-533 223 -589 301z" />
<glyph unicode="&#xf2;" horiz-adv-x="936" d="M7 443v15l103 249q82 82 205 146h248q125 -47 249 -205q12 -128 44 -161v-88l-58 -190q-155 -205 -381 -205h-44q-210 47 -307 190q-59 161 -59 249zM197 443q0 -205 161 -293h176q147 101 147 293v15q0 234 -352 234q-107 0 -132 -175v-74zM290 1108v15l87 87h29 q0 -43 159 -234v-14l-58 -59h-15z" />
<glyph unicode="&#xf3;" horiz-adv-x="959" d="M0 427q0 63 62 94l-15 15v16q0 172 343 296h31q260 0 406 -249q15 -118 47 -156v-63l-63 -202q-165 -218 -405 -218h-16q-224 49 -328 202q-62 172 -62 265zM172 396q0 -218 171 -312h219q156 112 156 296q0 312 -359 312h-16q-156 0 -171 -187v-109zM312 973v16 q172 203 172 249h31l93 -93v-16l-218 -218h-16z" />
<glyph unicode="&#xf4;" horiz-adv-x="929" d="M7 439l59 117q0 187 338 280q245 0 382 -235q15 -112 45 -147v-59l-59 -191q-156 -206 -383 -206h-14q-212 46 -309 191q-59 162 -59 250zM169 409q0 -205 162 -294h205q147 101 147 294v45q0 235 -338 235h-14q-148 0 -162 -177v-103zM177 934v12q0 51 146 164 q0 46 53 70q239 -192 239 -223q-14 -70 -40 -70l-172 129h-27l-159 -129z" />
<glyph unicode="&#xf5;" horiz-adv-x="936" d="M0 424v15q0 78 75 105q0 212 346 301q251 0 391 -241q15 -113 46 -150v-60l-61 -196q-159 -210 -391 -210h-15q-216 47 -316 195l-60 105zM181 409q0 -211 165 -301h211q150 103 150 301v45q0 241 -346 241h-15q-150 0 -165 -181v-105zM299 1026q52 120 166 120l286 -45 l45 30h15l30 -30v-30q-74 -105 -166 -105l-270 45l-91 -30z" />
<glyph unicode="&#xf6;" horiz-adv-x="906" d="M0 434v14l100 244q80 80 200 143h244q121 -47 243 -201q11 -125 43 -157v-86l-58 -186q-151 -200 -371 -200h-43q-206 46 -301 186q-57 157 -57 243zM129 992v86q30 60 128 100q86 -29 86 -114q-54 -109 -100 -129q-78 0 -114 57zM186 434q0 -200 157 -286h172 q143 98 143 286v14q0 229 -343 229q-105 0 -129 -171v-72zM472 992v57q0 93 129 129q38 0 86 -100q-71 -127 -129 -143q-86 29 -86 57z" />
<glyph unicode="&#xf7;" horiz-adv-x="906" d="M0 507v29l29 30h44l59 -15l58 15h30l44 -15l73 15h454l44 -44v-59l-15 -15v-14l-439 -15h-132l-117 -29h-88q-44 9 -44 117zM293 243q49 132 147 132q65 -25 117 -102v-59q-55 -102 -117 -102q-64 0 -147 131zM293 727q44 102 147 102q66 -24 102 -87v-44 q0 -103 -102 -103h-15q-132 19 -132 132z" />
<glyph unicode="&#xf8;" horiz-adv-x="884" d="M-15 489q32 0 115 230q174 129 244 129h29q102 0 158 -29l15 15v14l-15 43l58 43h57l44 -43v-14q0 -48 -44 -101v-29q130 -147 130 -230v-201q0 -129 -288 -288l-115 -14l-158 58v-15q-49 -114 -72 -114h-57l-43 43v14l100 143q-92 0 -158 346zM129 374q0 -65 72 -144 l143 259l101 186l14 44l-14 14h-14q-274 -30 -302 -187v-172zM273 143l100 -14h58q162 0 215 259v144q0 68 -86 115q-287 -413 -287 -504z" />
<glyph unicode="&#xf9;" horiz-adv-x="1086" d="M0 782l58 58h44q247 0 247 -73v-611l44 -44h87q150 66 218 248l15 58v320h-73l-102 58l44 44h29l247 -15l29 -58v-247l-29 -44v-145l-14 -219h160l29 -29v-29q-24 -57 -102 -57h-58q-175 0 -175 115q-142 -115 -276 -115q-165 0 -233 174v29l-14 538l-73 -15zM361 1138 v15l82 50l154 -196v-14l-50 -58h-12z" />
<glyph unicode="&#xfa;" horiz-adv-x="1124" d="M7 806l60 59h45q255 0 255 -74v-630l45 -45h90q154 68 225 255l15 60v330h-75l-105 60l45 44h30l254 -15l30 -59v-255l-30 -45v-150l-15 -225h165l30 -30v-30q-24 -59 -105 -59h-60q-179 0 -179 119q-147 -119 -285 -119q-171 0 -240 179v30l-15 555l-75 -15zM352 1030 v15l188 218l97 -68v-15l-210 -210h-15zM801 386h15v150h-15v-150z" />
<glyph unicode="&#xfb;" horiz-adv-x="1071" d="M0 795l60 60h194q59 -24 59 -105v-597l45 -44h120q156 67 223 238l30 45v358h-119l-60 60l45 45h90q179 0 179 -105v-224l-30 -44v-150l-15 -223h30v-15l74 15h60l30 -30v-30q-24 -59 -105 -59h-74q-135 0 -135 133q-175 -133 -328 -133q-194 0 -194 372v388h-15 l-119 -15zM284 1015v12q0 81 111 133q37 94 74 109q222 -193 222 -230q-13 -73 -37 -73l-161 133h-24l-148 -133z" />
<glyph unicode="&#xfc;" horiz-adv-x="1139" d="M0 237v15l29 44l-14 14v44l14 14l-14 15v73q43 0 87 87l-44 15q86 87 175 87v102l-102 -15q0 30 -58 30l-15 14v15l59 58h101q175 0 175 -102v-262q0 -73 -29 -73l15 -15v-14l-15 -15l29 -72h-14l14 -15v-15l-14 -14q14 -117 43 -117l190 29q0 44 -44 44l-15 15v14l44 15 l44 -15v15q0 73 87 73l15 14v15l-44 14q0 44 58 44l15 15v320h-87l-88 58l44 44h44q247 0 247 -73v-247l-29 -44v-146l-15 -218l73 14q117 -14 117 -43v-30q-24 -58 -102 -58h-73q-146 27 -146 117h-14q-139 -117 -291 -117q-70 0 -146 73h-15l-43 -29h-15q0 58 -44 58 l-14 -14v-15q-34 5 -102 87q-58 0 -58 30v14l14 15v14h-29zM262 1024v87q31 61 131 102q88 -30 88 -116q-56 -111 -102 -131q-79 0 -117 58zM612 1024v58q0 94 131 131q39 0 87 -102q-72 -129 -131 -145q-87 29 -87 58z" />
<glyph unicode="&#xfd;" horiz-adv-x="1024" />
<glyph unicode="&#xfe;" horiz-adv-x="1139" />
<glyph unicode="&#xff;" horiz-adv-x="1063" d="M8 766q15 46 90 46h314l120 -61v-15q0 -30 -75 -30l15 -15v-16l-15 -75h-15q-58 75 -119 75v-15q59 -75 164 -348l75 -46q0 89 105 334v30q0 30 -90 45l-30 76l45 61h330q74 -44 74 -91q-14 -91 -44 -91h-30q-67 45 -135 45l-45 -303l60 -136l-15 -15v-15l60 -106 q-15 -61 -75 -61l-15 15v-45h-15l-15 15h-15l-30 -75h45v-31l-75 16q0 -31 60 -31v-30h-45l-45 15v-15q-60 -30 -75 -151l-165 -137h-164q-135 0 -165 212v106l45 61q113 0 165 -91v-15l-60 -106l90 -30q89 0 104 136l90 196v31q-98 101 -254 545l-45 45l-105 -15h-15 q-60 25 -60 106zM344 1024v31q0 115 150 136q25 0 60 -91q-41 -102 -90 -136h-60zM698 1005v31q0 115 150 136l60 -91q-41 -102 -90 -136h-60zM802 388q26 0 75 121h30q0 -119 -75 -182h-15zM1011 675q23 0 45 61l15 15h15l45 -45v-46l-30 -30q-90 15 -90 45z" />
<glyph unicode="&#x152;" horiz-adv-x="1453" d="M15 419v287l135 337q87 111 253 152h860q101 -44 101 -304l-51 -67h-50l-51 50v220h-438v-17l168 -354l102 -17l-34 101v17l34 33h17l84 -84v-337q0 -63 -186 -84l17 -17v-17l-34 -84l186 -135h51q50 0 50 219v34h-84v50h34l84 -17l34 34h16q40 0 51 -118 q0 -287 -84 -320h-203q0 -50 -33 -50h-236l-85 -17l-17 17v16l-16 -16h-17l-135 50h-186q-202 89 -337 438zM133 520q141 -405 287 -405l-34 51v17h51l-17 17v34h67v16l-17 85h34l17 -17h17v17l-17 50l17 51l-17 17l34 33h-17q43 119 168 119l-33 50l17 17l-34 34l135 84 q-77 270 -236 270h-152q-215 0 -270 -540z" />
<glyph unicode="&#x153;" horiz-adv-x="1558" d="M-15 427v15q51 61 91 196q52 93 227 182h227q112 -52 227 -166h15q108 196 227 196q317 0 454 -287l16 -121l-31 -46l-121 15l-484 -15l-15 -75q60 -182 181 -228h137q119 54 242 167l45 -61q-124 -211 -272 -211h-182q-96 32 -212 181h-15q0 -126 -379 -196 q-378 96 -378 454zM152 396q0 -219 166 -303h212q91 44 151 197l-15 15v16l15 181q-74 182 -348 182h-15q-166 -30 -166 -152v-136zM848 487l469 30v15q0 123 -257 182q-55 0 -212 -166v-61z" />
<glyph unicode="&#x178;" horiz-adv-x="1079" d="M0 1155l35 89h18v-35h107v35h88l178 -53v-36q0 -35 -107 -35q120 -408 160 -408l177 408q-89 0 -89 35q0 40 125 71v18h-107v18l36 35q212 -13 212 -53q-88 -23 -88 -53l177 18h53l36 -36v-18q0 -53 -231 -70q0 -138 -142 -355h-17l17 -18l-88 -266v-177q0 -107 142 -107 q117 0 141 -71v-35q-17 -53 -106 -53h-390l-71 17l-53 -17l-36 53v71q0 35 195 53l36 106v160l-231 639v17h-142q-35 0 -35 53zM162 1532v18q83 124 177 124l71 -106q0 -94 -124 -178q-106 0 -124 142zM587 1479v36q0 135 178 159q29 0 71 -106q-49 -120 -107 -160h-71z M869 1280v17h53l36 -35v-18h-54z" />
<glyph unicode="&#x2c6;" />
<glyph unicode="&#x2dc;" />
<glyph unicode="&#x2000;" horiz-adv-x="907" />
<glyph unicode="&#x2001;" horiz-adv-x="1814" />
<glyph unicode="&#x2002;" horiz-adv-x="907" />
<glyph unicode="&#x2003;" horiz-adv-x="1814" />
<glyph unicode="&#x2004;" horiz-adv-x="604" />
<glyph unicode="&#x2005;" horiz-adv-x="453" />
<glyph unicode="&#x2006;" horiz-adv-x="302" />
<glyph unicode="&#x2007;" horiz-adv-x="302" />
<glyph unicode="&#x2008;" horiz-adv-x="226" />
<glyph unicode="&#x2009;" horiz-adv-x="362" />
<glyph unicode="&#x200a;" horiz-adv-x="100" />
<glyph unicode="&#x2010;" horiz-adv-x="614" d="M8 364v143l15 23v24l76 -24h394l31 -47v-24q-10 -71 -122 -71h-91z" />
<glyph unicode="&#x2011;" horiz-adv-x="614" d="M8 364v143l15 23v24l76 -24h394l31 -47v-24q-10 -71 -122 -71h-91z" />
<glyph unicode="&#x2012;" horiz-adv-x="614" d="M8 364v143l15 23v24l76 -24h394l31 -47v-24q-10 -71 -122 -71h-91z" />
<glyph unicode="&#x2013;" horiz-adv-x="1139" />
<glyph unicode="&#x2014;" horiz-adv-x="2048" />
<glyph unicode="&#x2018;" horiz-adv-x="455" />
<glyph unicode="&#x2019;" horiz-adv-x="455" />
<glyph unicode="&#x201a;" horiz-adv-x="455" />
<glyph unicode="&#x201c;" />
<glyph unicode="&#x201d;" />
<glyph unicode="&#x201e;" />
<glyph unicode="&#x2022;" horiz-adv-x="717" d="M23 601l46 91q0 145 262 217q190 0 296 -182q12 -87 35 -114v-46l-46 -148q-121 -160 -297 -160h-11q-164 36 -239 148q-46 126 -46 194zM233 587q0 -93 73 -133h92q67 45 67 133v20q0 106 -153 106h-6q-67 0 -73 -80v-46z" />
<glyph unicode="&#x2026;" horiz-adv-x="2048" />
<glyph unicode="&#x202f;" horiz-adv-x="362" />
<glyph unicode="&#x2039;" />
<glyph unicode="&#x203a;" />
<glyph unicode="&#x205f;" horiz-adv-x="453" />
<glyph unicode="&#x20ac;" horiz-adv-x="1094" d="M-27 501q-9 88 111 61l6 80q0 31 -95 63l-9 40q-31 78 134 71q33 206 238 347l206 32q269 0 379 -253l48 -63q0 -111 -111 -111h-79q0 -79 -142 -79l-281 -11l-31 -121l392 12q35 0 15 -85h15l111 79h16q110 -74 70 -190l-15 -47h15l-15 -16v-16l15 -47l-15 -47h-32 l24 -1q-72 -30 -79 -63l48 -47h15v-32h-15l-48 32q-24 -18 -210 -58l-43 26l-15 -16h-16q-65 48 -206 48q-80 51 -253 316q-141 0 -141 47zM392 379q46 0 79 -63l-16 -16q50 -101 77 -101l32 -12q163 -32 207 143l-8 97l-186 19l-79 -5l-79 -16zM438 990q-78 -183 5 -161h16 l158 16l31 -32l133 10q-27 163 -217 261h-16q-95 0 -95 -94h-15z" />
<glyph unicode="&#x2122;" horiz-adv-x="876" d="M8 1036l10 179h5q17 -15 88 -15h20l16 15l-5 5l5 6h25q11 0 11 -26h108q20 0 20 -98v-5l-5 -5v-5l10 -10v-11q0 -39 -20 -46q-31 0 -31 67l5 15l-5 16l5 5l-10 10v26l5 5v5h-87v-15l5 -26l-11 -10v-62l11 -15v-98l-11 -15v-47l11 -25h77l15 -16v-5l-15 -15h-201l-20 20v5 l10 11h72l15 15l-5 26v262l5 5v5h-87l5 -5v-67q-11 -11 -15 -67l-5 -5h-11zM345 825l34 17l6 -6l17 17l-6 6v5l6 6l-6 6v5l11 12h12q9 0 17 -40h11l-6 28v233l-5 -6h-17l-17 17l5 6q-35 0 -51 28l74 51h11l17 -11h23l17 11q1 -49 40 -91v-34l-6 -5v-6q19 0 34 -96h6l39 141 h-5l-17 -5v28q9 28 39 28q8 29 17 29h74q13 0 17 -29l-23 -11l-17 6l6 -6v-68l-6 -79l6 -6v-6l-6 -51v-90l6 5h17l23 -22q-4 -17 -80 -40l-39 6l-34 -6l-12 17l12 11h28q0 34 23 34l17 -5v5l5 176v34l-5 40h-6q0 -17 -17 -17v-29q-11 -16 -28 -113l-23 -23h-23q-13 1 -34 80 q-21 31 -39 113h-6v-261l11 -11l23 6l6 -6v-28l-6 -6v-6l-28 6h-6l-17 -17l-85 -11q-34 8 -34 34z" />
<glyph unicode="&#x25fc;" horiz-adv-x="815" d="M0 0v815h815v-815h-815z" />
</font>
</defs>
</svg>
