<?xml version="1.0" encoding="UTF-8" standalone="no"?>
<!-- Created with Inkscape (http://www.inkscape.org/) -->

<svg
   xmlns:dc="http://purl.org/dc/elements/1.1/"
   xmlns:cc="http://creativecommons.org/ns#"
   xmlns:rdf="http://www.w3.org/1999/02/22-rdf-syntax-ns#"
   xmlns:svg="http://www.w3.org/2000/svg"
   xmlns="http://www.w3.org/2000/svg"
   xmlns:sodipodi="http://sodipodi.sourceforge.net/DTD/sodipodi-0.dtd"
   xmlns:inkscape="http://www.inkscape.org/namespaces/inkscape"
   width="21.43125mm"
   height="21.43125mm"
   viewBox="0 0 21.43125 21.43125"
   version="1.1"
   id="svg8"
   inkscape:version="0.92.1 r15371"
   sodipodi:docname="section1-4.svg">
  <defs
     id="defs2" />
  <sodipodi:namedview
     id="base"
     pagecolor="#ffffff"
     bordercolor="#666666"
     borderopacity="1.0"
     inkscape:pageopacity="0.0"
     inkscape:pageshadow="2"
     inkscape:zoom="3.959798"
     inkscape:cx="157.7958"
     inkscape:cy="45.046805"
     inkscape:document-units="mm"
     inkscape:current-layer="layer1"
     showgrid="false"
     fit-margin-top="0"
     fit-margin-left="0"
     fit-margin-right="0"
     fit-margin-bottom="0"
     inkscape:window-width="1920"
     inkscape:window-height="1016"
     inkscape:window-x="-8"
     inkscape:window-y="-8"
     inkscape:window-maximized="1" />
  <metadata
     id="metadata5">
    <rdf:RDF>
      <cc:Work
         rdf:about="">
        <dc:format>image/svg+xml</dc:format>
        <dc:type
           rdf:resource="http://purl.org/dc/dcmitype/StillImage" />
        <dc:title></dc:title>
      </cc:Work>
    </rdf:RDF>
  </metadata>
  <g
     inkscape:label="Layer 1"
     inkscape:groupmode="layer"
     id="layer1"
     transform="translate(-19.826342,-24.840581)">
    <g
       id="g377"
       transform="translate(0.20045252,-0.53453905)">
      <path
         style="fill:#fdfdfd;stroke-width:0.26458332"
         d="M 19.625889,36.090745 V 25.37512 H 30.341514 41.057139 V 36.090745 46.80637 H 30.341514 19.625889 Z"
         id="path393"
         inkscape:connector-curvature="0" />
      <path
         style="fill:#f3f4f6;stroke-width:0.26458332"
         d="m 28.621722,46.637952 c -3.520115,-0.681306 -6.477043,-3.052189 -8.004958,-6.418422 -0.652986,-1.438629 -0.798976,-2.121691 -0.82589,-3.864202 -0.04964,-3.213649 0.848035,-5.432096 3.115581,-7.699642 2.267546,-2.267546 4.485993,-3.165218 7.699642,-3.115581 1.742511,0.02691 2.425573,0.172904 3.864202,0.82589 2.825418,1.282441 4.839291,3.414534 5.93667,6.285167 0.592808,1.550724 0.709647,5.734898 0.175069,6.269476 -0.175257,0.175257 -0.318649,0.539494 -0.318649,0.809416 0,0.570223 -1.769032,3.24771 -2.682506,4.06006 -1.142385,1.015919 -3.09469,2.222506 -3.596103,2.222506 -0.272098,0 -0.610431,0.115706 -0.751849,0.257125 -0.294453,0.294452 -3.620194,0.560014 -4.611209,0.368207 z M 26.769639,34.51886 c 0,-0.279261 -0.507765,-0.396587 -0.658791,-0.152223 -0.0914,0.147895 0.01943,0.2689 0.246301,0.2689 0.226869,0 0.41249,-0.0525 0.41249,-0.116677 z M 24.36884,31.616384 c 0.238707,-0.287625 0.23096,-0.418832 -0.03375,-0.571587 -0.188967,-0.109046 -0.255313,-0.100835 -0.147435,0.01825 0.107878,0.119082 0.06353,0.376296 -0.09854,0.571586 -0.162076,0.195291 -0.235153,0.355074 -0.162393,0.355074 0.07276,0 0.271715,-0.167994 0.44212,-0.373319 z m 11.960491,0.01825 c -0.162076,-0.19529 -0.20642,-0.452504 -0.09854,-0.571586 0.107878,-0.119082 0.04153,-0.127293 -0.147435,-0.01825 -0.26471,0.152755 -0.272457,0.283962 -0.03375,0.571587 0.170405,0.205325 0.369359,0.373319 0.442119,0.373319 0.07276,0 -3.17e-4,-0.159783 -0.162393,-0.355073 z"
         id="path391"
         inkscape:connector-curvature="0" />
      <path
         style="fill:#eaf6fa;stroke-width:0.26458332"
         d="m 28.621722,43.932644 c 0,-0.125342 0.297657,-0.170993 0.661459,-0.101448 0.363802,0.06954 0.661458,0.172097 0.661458,0.227893 0,0.0558 -0.297656,0.101448 -0.661458,0.101448 -0.363802,0 -0.661459,-0.102552 -0.661459,-0.227893 z m 1.852084,0.126445 c 0,-0.0558 0.297656,-0.158348 0.661458,-0.227893 0.363802,-0.06954 0.661458,-0.02389 0.661458,0.101448 0,0.125341 -0.297656,0.227893 -0.661458,0.227893 -0.363802,0 -0.661458,-0.04565 -0.661458,-0.101448 z m -0.595313,-0.867531 c 0.181901,-0.0734 0.479557,-0.0734 0.661458,0 0.181902,0.0734 0.03307,0.133452 -0.330729,0.133452 -0.363802,0 -0.51263,-0.06005 -0.330729,-0.133452 z m -0.992187,-0.618521 c -0.279033,-0.180325 -0.295909,-0.257684 -0.05684,-0.260532 0.269089,-0.0032 0.274625,-0.128265 0.02654,-0.599364 -0.172426,-0.327422 -0.444506,-0.681628 -0.604622,-0.787125 -0.198569,-0.130832 -0.06912,-0.635522 0.407192,-1.5875 0.384072,-0.767628 0.767288,-1.604047 0.851592,-1.858709 0.0843,-0.254661 0.398878,-0.46302 0.699054,-0.46302 0.300176,0 0.614751,0.208359 0.699054,0.46302 0.0843,0.254662 0.46752,1.091081 0.851592,1.858709 0.476309,0.951978 0.605761,1.456668 0.407193,1.5875 -0.459432,0.302709 -0.962597,1.382437 -0.644231,1.382437 0.150641,0 0.273892,-0.171567 0.273892,-0.38126 0,-0.209693 0.119063,-0.454844 0.264584,-0.544781 0.472036,-0.291735 0.279574,0.381884 -0.264584,0.926041 -0.570661,0.570662 -2.206656,0.719388 -2.910416,0.264584 z m 1.994522,-1.507829 c 0.321652,-0.490902 0.371993,-0.746041 0.161073,-0.816348 -0.168745,-0.05625 -0.254392,-0.187082 -0.190327,-0.290742 0.06406,-0.103659 0.0071,-0.361381 -0.126591,-0.572714 -0.176933,-0.279688 -0.244177,-0.15026 -0.247126,0.475653 -0.0022,0.472943 -0.123114,0.859896 -0.268635,0.859896 -0.145521,0 -0.264583,-0.377031 -0.264583,-0.837847 0,-0.800835 -0.245309,-0.923197 -0.358023,-0.178584 -0.02955,0.195235 -0.146708,0.503801 -0.260344,0.685702 -0.113637,0.181901 -0.09441,0.330729 0.04273,0.330729 0.137137,0 0.31161,0.238125 0.387719,0.529167 0.18973,0.725528 0.568379,0.663242 1.12411,-0.184912 z m -2.611883,0.802273 c -0.09701,-0.09701 -0.176389,-0.29942 -0.176389,-0.449792 0,-0.165789 0.123235,-0.150167 0.31309,0.03969 0.1722,0.1722 0.251575,0.374606 0.176389,0.449792 -0.07519,0.07518 -0.216077,0.05733 -0.31309,-0.03969 z m -0.176389,-2.718413 c 0,-0.136932 0.117699,-0.32171 0.261552,-0.410617 0.149982,-0.09269 0.194339,0.01351 0.103985,0.248969 -0.175893,0.458368 -0.365537,0.542233 -0.365537,0.161648 z m 3.853469,-0.202641 c -0.143586,-0.377084 -0.113194,-0.407475 0.148112,-0.148113 0.180821,0.179476 0.262115,0.39297 0.180654,0.474432 -0.08146,0.08146 -0.229407,-0.06538 -0.328766,-0.326319 z m -0.546178,-1.92964 c -0.08994,-0.145521 -0.03743,-0.264584 0.116677,-0.264584 0.154109,0 0.280198,0.119063 0.280198,0.264584 0,0.14552 -0.0525,0.264583 -0.116676,0.264583 -0.06417,0 -0.190262,-0.119063 -0.280199,-0.264583 z M 29.31885,36.088291 c -0.164767,-0.429376 -0.707501,-0.428075 -1.023805,0.0025 -0.118298,0.161017 -0.195972,0.12739 -0.198438,-0.08591 -0.003,-0.262125 -0.331885,-0.315123 -1.304341,-0.210208 -0.93468,0.100839 -1.38745,0.03526 -1.610278,-0.23323 -0.535292,-0.644989 -0.03017,-0.998341 1.155994,-0.808666 1.071991,0.171419 1.080953,0.166346 0.561351,-0.317737 -0.290418,-0.270564 -0.88489,-0.484956 -1.32105,-0.476426 -0.845808,0.01654 -0.873116,-0.07645 -0.539335,-1.836573 0.119212,-0.628641 0.09859,-0.683677 -0.09913,-0.264584 -0.222251,0.471085 -0.255135,0.442043 -0.299598,-0.264583 -0.02747,-0.436563 -0.02691,-0.958744 0.0012,-1.160403 0.03187,-0.228215 -0.101059,-0.308227 -0.352052,-0.211912 -0.256498,0.09843 -0.356543,0.03303 -0.274907,-0.179712 0.07143,-0.186143 0.652092,-0.361565 1.309442,-0.395592 1.132221,-0.05861 1.180933,-0.03052 1.177049,0.678657 -0.0022,0.406887 -0.110922,0.908638 -0.241541,1.115001 -0.384526,0.607508 1.039349,2.597667 1.60736,2.246616 0.175323,-0.108355 0.236625,-0.07537 0.142618,0.07673 -0.09068,0.146725 0.144433,0.407704 0.522477,0.579953 0.761951,0.347168 1.22375,0.149836 0.611308,-0.261219 -0.313351,-0.210326 -0.286076,-0.246195 0.139963,-0.184058 0.291041,0.04245 0.618463,0.196241 0.727604,0.341762 0.132291,0.176389 0.264583,0.176389 0.396875,0 0.10914,-0.145521 0.436562,-0.299314 0.727604,-0.341762 0.426039,-0.06214 0.453314,-0.02627 0.139954,0.184051 -0.72463,0.486354 -0.06288,0.596717 0.827646,0.138031 1.60216,-0.82523 2.058103,-1.597028 1.899246,-3.214952 l -0.139679,-1.422597 1.206579,0.06246 c 0.676903,0.03504 1.262921,0.209279 1.334921,0.39691 0.08164,0.212739 -0.01841,0.27814 -0.274906,0.179712 -0.250994,-0.09632 -0.383918,-0.0163 -0.352052,0.211912 0.02816,0.201659 0.02872,0.723841 0.0012,1.160403 -0.04446,0.706627 -0.07735,0.735668 -0.299597,0.264584 -0.197722,-0.419094 -0.218343,-0.364058 -0.09913,0.264583 0.311369,1.641942 0.274969,1.84906 -0.34032,1.93646 -0.459618,0.06529 -0.556041,-0.01456 -0.4262,-0.352914 0.131127,-0.341712 0.214441,-0.361828 0.38118,-0.09204 0.341788,0.553023 0.616075,0.02752 0.325515,-0.623647 L 35.05532,32.39744 34.724009,33.053467 c -0.182221,0.360815 -0.647516,0.923327 -1.03399,1.250026 -0.561883,0.474978 -0.609904,0.594262 -0.239659,0.595313 0.254661,7.14e-4 0.463021,-0.101238 0.463021,-0.226579 0,-0.125341 0.299416,-0.170656 0.665368,-0.1007 1.59471,0.304848 0.873194,1.53135 -0.748317,1.27206 -0.631624,-0.101001 -1.177575,-0.04671 -1.40183,0.139408 -0.20201,0.167659 -0.367296,0.191038 -0.367296,0.05195 0,-0.384696 -0.752211,-0.30179 -0.906352,0.09989 -0.18698,0.487261 -1.64545,0.450284 -1.836104,-0.04655 z m -3.868076,-2.577234 c 0.0027,-0.220486 0.08955,-0.198437 0.260532,0.06615 0.353762,0.547409 0.331429,0.09011 -0.02844,-0.582306 -0.235026,-0.43915 -0.338959,-0.474983 -0.525115,-0.181043 -0.312997,0.494223 -0.300335,1.027933 0.02439,1.027933 0.145521,0 0.266407,-0.148828 0.268635,-0.33073 z m 7.261111,-0.745207 c -0.09592,-0.155202 -0.117656,-0.338931 -0.0483,-0.408286 0.06935,-0.06936 0.196602,0.05763 0.282773,0.282187 0.178907,0.466224 0.02642,0.548232 -0.234472,0.126099 z m -5.942246,-0.480334 c 0,-0.14552 0.119062,-0.338167 0.264583,-0.428104 0.145521,-0.08994 0.264584,-0.04446 0.264584,0.101062 0,0.14552 -0.119063,0.338167 -0.264584,0.428104 -0.145521,0.08994 -0.264583,0.04446 -0.264583,-0.101062 z m 6.526389,0.05696 c -0.09701,-0.09701 -0.176389,-0.29942 -0.176389,-0.449792 0,-0.165789 0.123235,-0.150167 0.31309,0.03969 0.1722,0.1722 0.251575,0.374606 0.176389,0.449792 -0.07519,0.07519 -0.216076,0.05733 -0.31309,-0.03969 z m -7.055556,-0.452672 c 0,-0.05494 0.20836,-0.263302 0.463021,-0.463021 0.419644,-0.329108 0.429002,-0.319749 0.0999,0.09989 -0.345644,0.44073 -0.562916,0.580888 -0.562916,0.363127 z m 1.109914,-1.090731 c 0.0054,-0.436562 0.06469,-0.583124 0.131774,-0.325693 0.06708,0.257431 0.06267,0.614618 -0.0098,0.79375 -0.07248,0.179131 -0.127363,-0.03149 -0.121971,-0.468057 z m 5.55625,0 c 0.0054,-0.436562 0.06469,-0.583124 0.131774,-0.325693 0.06708,0.257431 0.06267,0.614618 -0.0098,0.79375 -0.07248,0.179131 -0.127363,-0.03149 -0.121971,-0.468057 z"
         id="path389"
         inkscape:connector-curvature="0" />
      <path
         style="fill:#d4effc;stroke-width:0.26458332"
         d="m 28.954456,41.982837 c -0.02445,-0.32461 -0.255064,-0.744199 -0.512471,-0.93242 -0.438582,-0.320699 -0.408992,-0.454128 0.470531,-2.121779 0.516199,-0.978758 1.099717,-1.77956 1.296706,-1.77956 0.19699,0 0.780507,0.800802 1.296707,1.77956 0.879523,1.667651 0.909112,1.80108 0.470531,2.121779 -0.257407,0.188221 -0.488019,0.60781 -0.512472,0.93242 -0.03902,0.51805 -0.192414,0.5902 -1.254766,0.5902 -1.062351,0 -1.215742,-0.07215 -1.254766,-0.5902 z m 1.923647,-0.843279 c 0.38792,-0.817482 0.390129,-0.976261 0.02301,-1.653646 -0.377758,-0.69701 -0.406855,-0.707765 -0.416709,-0.154021 -0.0058,0.327422 -0.129656,0.595312 -0.275177,0.595312 -0.145521,0 -0.26935,-0.26789 -0.275176,-0.595312 -0.0099,-0.553744 -0.03895,-0.542989 -0.416711,0.154021 -0.367123,0.677385 -0.364914,0.836164 0.02301,1.653646 0.236019,0.497372 0.537015,0.904312 0.668881,0.904312 0.131866,0 0.432862,-0.40694 0.668881,-0.904312 z m -1.462631,-5.195001 c 0,-0.174898 -0.740075,-0.258891 -1.989705,-0.225816 -2.129659,0.05637 -2.399762,-0.03011 -2.147477,-0.687555 0.126929,-0.330773 0.374763,-0.381374 1.157165,-0.23626 l 0.995642,0.184663 -0.861541,-0.885395 c -0.473847,-0.486968 -1.003781,-1.278754 -1.177631,-1.759526 -0.173849,-0.480772 -0.411234,-0.874131 -0.527521,-0.874131 -0.116287,0 -0.211432,-0.424263 -0.211432,-0.942805 0,-0.904297 0.03512,-0.939419 0.859896,-0.859896 0.665886,0.0642 0.879402,0.22051 0.946352,0.692785 0.04755,0.335431 -0.05583,0.78132 -0.229735,0.990863 -0.357346,0.430575 0.128551,1.370728 1.258041,2.434157 0.692383,0.651887 0.636284,0.637314 2.721696,0.707025 1.98991,0.06652 2.68747,-0.305377 3.822767,-2.038059 0.373497,-0.570029 0.406561,-0.802385 0.15697,-1.103123 -0.173905,-0.209543 -0.277286,-0.655432 -0.229735,-0.990863 0.06695,-0.472275 0.280467,-0.628582 0.946352,-0.692785 0.824773,-0.07952 0.859896,-0.0444 0.859896,0.859896 0,0.518542 -0.09514,0.942805 -0.211431,0.942805 -0.116288,0 -0.353672,0.393359 -0.527522,0.874131 -0.173849,0.480772 -0.703783,1.272558 -1.177631,1.759526 l -0.861541,0.885395 0.995642,-0.184663 c 0.782402,-0.145114 1.030236,-0.09451 1.157166,0.23626 0.252285,0.657443 -0.01782,0.743922 -2.147477,0.687555 -1.24963,-0.03308 -1.989706,0.05092 -1.989706,0.225816 0,0.153164 -0.357187,0.27848 -0.79375,0.27848 -0.436562,0 -0.79375,-0.125316 -0.79375,-0.27848 z m -3.704166,-5.542354 c 0,-0.145521 -0.12609,-0.264583 -0.280199,-0.264583 -0.154109,0 -0.206613,0.119062 -0.116676,0.264583 0.08994,0.145521 0.216026,0.264584 0.280198,0.264584 0.06417,0 0.116677,-0.119063 0.116677,-0.264584 z m 9.392708,0 c 0.08994,-0.145521 0.03743,-0.264583 -0.116677,-0.264583 -0.154109,0 -0.280198,0.119062 -0.280198,0.264583 0,0.145521 0.0525,0.264584 0.116677,0.264584 0.06417,0 0.190261,-0.119063 0.280198,-0.264584 z"
         id="path387"
         inkscape:connector-curvature="0" />
      <path
         style="fill:#a6d8f8;stroke-width:0.26458332"
         d="m 29.150889,42.205473 c 0,-0.20216 -0.225772,-0.64638 -0.501716,-0.987156 -0.498275,-0.615344 -0.495531,-0.631875 0.400201,-2.410562 0.496055,-0.985032 1.017986,-1.790968 1.159848,-1.790968 0.141862,0 0.670791,0.81983 1.175398,1.821846 0.905946,1.798967 0.910972,1.827725 0.400201,2.289965 -0.284496,0.257466 -0.517265,0.687791 -0.517265,0.956279 0,0.393131 -0.206024,0.48816 -1.058334,0.48816 -0.726842,0 -1.058333,-0.115129 -1.058333,-0.367564 z m 1.812515,-1.077848 c 0.27695,-0.76589 0.265701,-1.03725 -0.06855,-1.653646 -0.374637,-0.690878 -0.400533,-0.699842 -0.410458,-0.142088 -0.0058,0.327422 -0.129656,0.595312 -0.275177,0.595312 -0.145521,0 -0.26935,-0.26789 -0.275176,-0.595312 -0.0099,-0.557754 -0.03582,-0.54879 -0.410459,0.142088 -0.334247,0.616396 -0.345496,0.887756 -0.06855,1.653646 0.189797,0.524875 0.511942,0.916245 0.754181,0.916245 0.242239,0 0.564385,-0.39137 0.754182,-0.916245 z m -1.41564,-5.169172 c -0.08994,-0.14552 -1.02962,-0.264583 -2.088184,-0.264583 -2.018368,0 -2.325497,-0.09607 -2.109186,-0.65977 0.09218,-0.240219 0.464456,-0.299409 1.238541,-0.196924 l 1.106746,0.146529 -0.830773,-0.702266 c -0.456926,-0.386246 -1.017457,-1.168832 -1.245625,-1.73908 -0.228168,-0.570248 -0.538929,-1.113499 -0.690581,-1.207225 -0.151651,-0.09373 -0.27573,-0.520571 -0.27573,-0.948546 0,-0.695475 0.08802,-0.778135 0.828588,-0.778135 0.820077,0 0.827062,0.01137 0.68005,1.107426 -0.173353,1.292444 0.227839,2.229793 1.363296,3.185216 0.686354,0.57753 1.002342,0.646945 2.782819,0.611321 1.733192,-0.03468 2.103333,-0.128741 2.699953,-0.686137 1.067454,-0.997277 1.416134,-1.865489 1.249156,-3.1104 -0.147011,-1.096051 -0.140026,-1.107426 0.680051,-1.107426 0.740569,0 0.828587,0.08266 0.828587,0.778135 0,0.427975 -0.124078,0.85482 -0.27573,0.948546 -0.151651,0.09373 -0.462412,0.636977 -0.690581,1.207225 -0.228168,0.570248 -0.788698,1.352834 -1.245624,1.73908 l -0.830773,0.702266 1.106746,-0.146529 c 0.796706,-0.10548 1.145536,-0.04544 1.245215,0.214318 0.200862,0.523437 -0.03796,0.593828 -2.067537,0.609405 -1.004582,0.0077 -1.94984,0.137345 -2.100572,0.288078 -0.349021,0.34902 -1.145569,0.354575 -1.358852,0.0095 z m 0.926042,-0.79375 c 0,-0.145521 -0.119063,-0.264583 -0.264584,-0.264583 -0.145521,0 -0.264583,0.119062 -0.264583,0.264583 0,0.145521 0.119062,0.264584 0.264583,0.264584 0.145521,0 0.264584,-0.119063 0.264584,-0.264584 z m -4.7625,-4.7625 c 0,-0.145521 -0.119063,-0.264583 -0.264584,-0.264583 -0.145521,0 -0.264583,0.119062 -0.264583,0.264583 0,0.145521 0.119062,0.264584 0.264583,0.264584 0.145521,0 0.264584,-0.119063 0.264584,-0.264584 z m 9.525,0 c 0,-0.145521 -0.119063,-0.264583 -0.264584,-0.264583 -0.14552,0 -0.264583,0.119062 -0.264583,0.264583 0,0.145521 0.119063,0.264584 0.264583,0.264584 0.145521,0 0.264584,-0.119063 0.264584,-0.264584 z"
         id="path385"
         inkscape:connector-curvature="0" />
      <path
         style="fill:#76c5fc;stroke-width:0.26458332"
         d="m 29.150889,42.076267 c 0,-0.273224 -0.178594,-0.64499 -0.396875,-0.826147 -0.218281,-0.181157 -0.396875,-0.495196 -0.396875,-0.697863 0,-0.48598 1.576906,-3.270887 1.852083,-3.270887 0.275178,0 1.852084,2.784907 1.852084,3.270887 0,0.202667 -0.178594,0.516706 -0.396875,0.697863 -0.218282,0.181157 -0.396875,0.552923 -0.396875,0.826147 0,0.403176 -0.199396,0.49677 -1.058334,0.49677 -0.858938,0 -1.058333,-0.09359 -1.058333,-0.49677 z m 1.5875,-0.342293 c 0,-0.170442 0.18725,-0.516804 0.41611,-0.769692 0.379123,-0.418926 0.374426,-0.538371 -0.05284,-1.34375 -0.356688,-0.672348 -0.492612,-0.773113 -0.567803,-0.420933 -0.05437,0.254662 -0.200457,0.463021 -0.324638,0.463021 -0.12418,0 -0.270267,-0.208359 -0.324638,-0.463021 -0.07519,-0.35218 -0.211114,-0.251415 -0.567802,0.420933 -0.427263,0.805379 -0.431959,0.924824 -0.05284,1.34375 0.228861,0.252888 0.416111,0.59925 0.416111,0.769692 0,0.170443 0.238125,0.309896 0.529166,0.309896 0.291042,0 0.529167,-0.139453 0.529167,-0.309896 z m -1.322917,-6.074899 c 0,-0.20749 -0.609061,-0.26029 -1.984375,-0.172028 -1.552268,0.09962 -1.984375,0.04958 -1.984375,-0.229789 0,-0.241805 0.35081,-0.357138 1.086315,-0.357138 h 1.086314 L 26.8109,34.144913 C 26.366251,33.72955 25.804951,32.896112 25.563565,32.29283 25.32218,31.689548 25.018547,31.195953 24.888827,31.195953 c -0.12972,0 -0.235855,-0.357187 -0.235855,-0.79375 0,-0.713201 0.0842,-0.79375 0.829714,-0.79375 h 0.829713 l -0.169722,1.238258 c -0.140398,1.024311 -0.0674,1.387593 0.422513,2.102568 0.691157,1.008678 2.630849,2.212266 2.790996,1.731826 0.05686,-0.170583 0.440727,-0.310152 0.853036,-0.310152 0.412309,0 0.796176,0.139569 0.853037,0.310152 0.160147,0.48044 2.099838,-0.723148 2.790996,-1.731826 0.489908,-0.714975 0.56291,-1.078257 0.422513,-2.102568 l -0.169722,-1.238258 h 0.829713 c 0.745515,0 0.829713,0.08055 0.829713,0.79375 0,0.436563 -0.106134,0.79375 -0.235855,0.79375 -0.12972,0 -0.433352,0.493595 -0.674738,1.096877 -0.241385,0.603282 -0.802686,1.43672 -1.247334,1.852083 l -0.808452,0.755207 h 1.086315 c 0.701532,0 1.086314,0.118969 1.086314,0.335871 0,0.250491 -0.504437,0.310398 -1.984375,0.235664 -1.337097,-0.06752 -1.984375,-0.0045 -1.984375,0.193296 0,0.161426 -0.357187,0.293502 -0.79375,0.293502 -0.436562,0 -0.79375,-0.13472 -0.79375,-0.299378 z m 1.058334,-0.494372 c 0,-0.145521 -0.119063,-0.264583 -0.264584,-0.264583 -0.145521,0 -0.264583,0.119062 -0.264583,0.264583 0,0.145521 0.119062,0.264584 0.264583,0.264584 0.145521,0 0.264584,-0.119063 0.264584,-0.264584 z m -4.7625,-4.7625 c 0,-0.145521 -0.119063,-0.264583 -0.264584,-0.264583 -0.145521,0 -0.264583,0.119062 -0.264583,0.264583 0,0.145521 0.119062,0.264584 0.264583,0.264584 0.145521,0 0.264584,-0.119063 0.264584,-0.264584 z m 9.525,0 c 0,-0.145521 -0.119063,-0.264583 -0.264584,-0.264583 -0.14552,0 -0.264583,0.119062 -0.264583,0.264583 0,0.145521 0.119063,0.264584 0.264583,0.264584 0.145521,0 0.264584,-0.119063 0.264584,-0.264584 z"
         id="path383"
         inkscape:connector-curvature="0" />
      <path
         style="fill:#56b1f4;stroke-width:0.26458332"
         d="M 28.923701,41.467309 28.37663,40.36158 29.197498,38.821475 c 0.451477,-0.847058 0.906753,-1.540105 1.011724,-1.540105 0.104972,0 0.560248,0.693047 1.011725,1.540105 l 0.820867,1.540105 -0.54707,1.105729 c -0.44683,0.903121 -0.68238,1.105728 -1.285522,1.105728 -0.603141,0 -0.838692,-0.202607 -1.285521,-1.105728 z m 2.142946,-0.235998 c 0.441546,-0.775823 0.439299,-0.849449 -0.05445,-1.784265 -0.427727,-0.809812 -0.516984,-0.874165 -0.526696,-0.379739 -0.0064,0.327422 -0.130756,0.595313 -0.276277,0.595313 -0.145521,0 -0.269845,-0.267891 -0.276277,-0.595313 -0.0097,-0.494426 -0.09897,-0.430073 -0.526696,0.379739 -0.49375,0.934816 -0.495997,1.008442 -0.05445,1.784265 0.253303,0.445067 0.639144,0.809213 0.857425,0.809213 0.218282,0 0.604123,-0.364146 0.857425,-0.809213 z m -1.651175,-5.56636 c 0,-0.197765 -0.647277,-0.260816 -1.984375,-0.193296 -1.479938,0.07473 -1.984375,0.01483 -1.984375,-0.235664 0,-0.218077 0.389372,-0.335871 1.110236,-0.335871 h 1.110236 l -0.832243,-0.859896 c -0.457734,-0.472943 -1.018469,-1.30638 -1.246078,-1.852083 -0.227609,-0.545703 -0.5313,-0.992188 -0.674868,-0.992188 -0.143568,0 -0.261033,-0.357187 -0.261033,-0.79375 0,-0.705555 0.0882,-0.79375 0.79375,-0.79375 0.700516,0 0.79375,0.09064 0.79375,0.771702 0,0.424435 -0.113925,0.811389 -0.253167,0.859896 -0.426365,0.14853 0.673144,2.223722 1.479107,2.791636 0.9689,0.682727 1.94906,0.995363 1.94906,0.621679 0,-0.155327 0.357188,-0.282413 0.79375,-0.282413 0.436563,0 0.79375,0.127086 0.79375,0.282413 0,0.373684 0.98016,0.06105 1.949061,-0.621679 0.805963,-0.567914 1.905472,-2.643106 1.479107,-2.791636 -0.139242,-0.04851 -0.253168,-0.435461 -0.253168,-0.859896 0,-0.681057 0.09323,-0.771702 0.79375,-0.771702 0.705556,0 0.79375,0.08819 0.79375,0.79375 0,0.436563 -0.117464,0.79375 -0.261032,0.79375 -0.143568,0 -0.447259,0.446485 -0.674868,0.992188 -0.227609,0.545703 -0.788345,1.37914 -1.246078,1.852083 l -0.832243,0.859896 h 1.110235 c 0.720865,0 1.110236,0.117794 1.110236,0.335871 0,0.250491 -0.504437,0.310398 -1.984375,0.235664 -1.337097,-0.06752 -1.984375,-0.0045 -1.984375,0.193296 0,0.161426 -0.357187,0.293502 -0.79375,0.293502 -0.436562,0 -0.79375,-0.132076 -0.79375,-0.293502 z m 1.058334,-0.500248 c 0,-0.145521 -0.119063,-0.264583 -0.264584,-0.264583 -0.145521,0 -0.264583,0.119062 -0.264583,0.264583 0,0.145521 0.119062,0.264584 0.264583,0.264584 0.145521,0 0.264584,-0.119063 0.264584,-0.264584 z m -4.7625,-4.7625 c 0,-0.145521 -0.119063,-0.264583 -0.264584,-0.264583 -0.145521,0 -0.264583,0.119062 -0.264583,0.264583 0,0.145521 0.119062,0.264584 0.264583,0.264584 0.145521,0 0.264584,-0.119063 0.264584,-0.264584 z m 9.525,0 c 0,-0.145521 -0.119063,-0.264583 -0.264584,-0.264583 -0.14552,0 -0.264583,0.119062 -0.264583,0.264583 0,0.145521 0.119063,0.264584 0.264583,0.264584 0.145521,0 0.264584,-0.119063 0.264584,-0.264584 z"
         id="path381"
         inkscape:connector-curvature="0" />
      <path
         style="fill:#0f97f6;stroke-width:0.26458332"
         d="m 29.327278,42.396648 c -0.09701,-0.09701 -0.176389,-0.35553 -0.176389,-0.574479 0,-0.21895 -0.186308,-0.603959 -0.414019,-0.855576 -0.378885,-0.418664 -0.343064,-0.583209 0.422132,-1.939062 0.459883,-0.814868 0.932482,-1.481578 1.05022,-1.481578 0.117739,0 0.590338,0.66671 1.05022,1.481578 0.739614,1.310522 0.791964,1.53199 0.453428,1.918229 -0.210498,0.240158 -0.464362,0.704542 -0.564141,1.031964 -0.131084,0.430149 -0.384453,0.595313 -0.913239,0.595313 -0.402503,0 -0.811198,-0.07937 -0.908212,-0.176389 z m 1.823935,-1.27506 c 0.418257,-0.88141 0.413142,-0.960556 -0.11542,-1.785937 -0.495555,-0.773839 -0.553536,-0.801746 -0.55753,-0.268344 -0.0025,0.327422 -0.12352,0.595313 -0.269041,0.595313 -0.145521,0 -0.266589,-0.267891 -0.26904,-0.595313 -0.004,-0.533402 -0.06198,-0.505495 -0.55753,0.268344 -0.528562,0.825381 -0.533677,0.904527 -0.115421,1.785937 0.576791,1.215495 1.307192,1.215495 1.883982,0 z M 29.415472,35.69387 c 0,-0.15287 -0.837847,-0.264583 -1.984375,-0.264583 -1.203874,0 -1.984375,-0.108783 -1.984375,-0.276573 0,-0.171789 0.344338,-0.211974 0.908875,-0.106066 1.393378,0.261399 1.494838,-0.03678 0.40304,-1.184502 -0.549465,-0.577608 -1.076702,-1.403849 -1.171639,-1.836091 -0.09494,-0.432242 -0.35228,-0.85484 -0.571876,-0.939107 -0.70002,-0.268623 -0.328889,-1.334808 0.497746,-1.429923 0.612356,-0.07046 0.727604,0.01545 0.727604,0.542396 0,0.344364 -0.123487,0.749603 -0.274415,0.900531 -0.609848,0.609848 0.718486,2.668417 2.228675,3.453859 0.630256,0.327793 0.872873,0.338699 1.389062,0.06244 0.504319,-0.269903 0.746538,-0.269903 1.250857,0 0.516189,0.276256 0.758806,0.26535 1.389062,-0.06244 1.510188,-0.785442 2.838523,-2.844011 2.228675,-3.453859 -0.150929,-0.150928 -0.274416,-0.556167 -0.274416,-0.900531 0,-0.526943 0.115249,-0.612855 0.727605,-0.542396 0.826635,0.09511 1.197766,1.1613 0.497745,1.429923 -0.219595,0.08427 -0.476939,0.506865 -0.571875,0.939107 -0.09494,0.432242 -0.637994,1.275113 -1.206793,1.873045 -0.5688,0.597933 -1.034182,1.143486 -1.034182,1.21234 0,0.06885 0.535782,0.05175 1.190625,-0.038 0.712798,-0.0977 1.190625,-0.05904 1.190625,0.09633 0,0.146571 -0.863648,0.259522 -1.984375,0.259522 -1.146527,0 -1.984375,0.111713 -1.984375,0.264583 0,0.145521 -0.357187,0.264583 -0.79375,0.264583 -0.436562,0 -0.79375,-0.119062 -0.79375,-0.264583 z m 1.058334,-0.396875 c 0,-0.218281 -0.119063,-0.396875 -0.264584,-0.396875 -0.145521,0 -0.264583,0.178594 -0.264583,0.396875 0,0.218281 0.119062,0.396875 0.264583,0.396875 0.145521,0 0.264584,-0.178594 0.264584,-0.396875 z m -4.7625,-4.7625 c 0,-0.218281 -0.119063,-0.396875 -0.264584,-0.396875 -0.145521,0 -0.264583,0.178594 -0.264583,0.396875 0,0.218281 0.119062,0.396875 0.264583,0.396875 0.145521,0 0.264584,-0.178594 0.264584,-0.396875 z m 9.525,0 c 0,-0.218281 -0.119063,-0.396875 -0.264584,-0.396875 -0.14552,0 -0.264583,0.178594 -0.264583,0.396875 0,0.218281 0.119063,0.396875 0.264583,0.396875 0.145521,0 0.264584,-0.178594 0.264584,-0.396875 z"
         id="path379"
         inkscape:connector-curvature="0" />
    </g>
  </g>
</svg>
